<?xml version="1.0" encoding="UTF-8"?>
<svg width="300px" height="300px" viewBox="0 0 300 300" version="1.1" xmlns="http://www.w3.org/2000/svg" xmlns:xlink="http://www.w3.org/1999/xlink">
    <!-- Generator: Sketch 49.3 (51167) - http://www.bohemiancoding.com/sketch -->
    <title>Oval 2</title>
    <desc>Created with Sketch.</desc>
    <defs></defs>
    <g id="Page-1" stroke="none" stroke-width="1" fill="none" fill-rule="evenodd">
        <circle id="Oval-2" fill="#EC5F67" cx="150" cy="150" r="150"></circle>
        <g id="Angry_Birds_logo" transform="translate(17.000000, 127.000000)" fill="#FFFFFF">
            <path d="M25.7757863,36.8014255 L25.042235,37.0235196 C24.6663833,37.8916087 24.4154597,38.4222855 24.3092175,38.6054064 C24.0006348,39.0976439 23.5858099,39.4932491 23.0647429,39.792222 C23.1325457,39.8691007 23.113326,39.9272936 23.0070839,39.965733 C22.8912319,39.965733 22.6888913,39.849881 22.3797747,39.6277869 C22.0808019,39.3966168 21.8784613,39.2903746 21.7626093,39.2903746 C21.6851967,39.328814 21.665977,39.3677873 21.7044164,39.3966168 C20.9906186,39.6667601 19.9105791,40.1008047 18.4824497,40.6987504 C17.6143607,37.6892681 16.7852448,34.4673015 15.9940344,31.0328506 C14.0742015,31.7466483 11.4603243,32.9046344 8.14161866,34.4865212 C7.72679379,37.0427393 7.389168,39.5893475 7.11918481,42.1167361 C7.04198574,42.1557093 6.97434313,42.174929 6.89730423,42.174929 C6.78155901,42.174929 6.62716088,42.0398573 6.41483675,41.7793238 C6.21233602,41.5091805 6.06770789,41.3837186 5.99050882,41.3837186 C5.73008209,41.3837186 5.50820151,41.6923014 5.34414014,42.3100007 C5.17057571,42.936776 5.01617758,43.3035516 4.86183283,43.4097938 C4.86183283,43.341991 4.84245298,43.3035516 4.80385345,43.3035516 C4.72670777,43.3035516 4.43734473,43.515502 3.92615451,43.9495466 C3.41475073,44.384125 3.12538769,44.6152951 3.04824201,44.6537345 C3.39553104,44.2389096 3.55959241,43.5251119 3.55959241,42.5123412 L3.83923882,42.059077 L3.4437938,41.1520147 L2.25719182,42.7920944 L2.48873563,44.9436314 C2.13189015,45.1267523 1.81348404,45.2228507 1.54334069,45.2228507 C1.22509474,45.2228507 1.01293078,45.03012 0.916351862,44.6537345 C0.81993311,44.2778829 0.752450661,44.0942281 0.713851127,44.0942281 C0.54984315,44.0942281 0.318299336,44.4706136 0,45.2228507 C0.18328105,42.4354625 0.279699802,39.2807648 0.279699802,35.7406056 C0.279699802,27.8397135 1.20571489,18.4151275 3.04824201,7.46631373 C3.87783835,7.19617038 5.1029331,6.78134552 6.72357963,6.22183914 C7.0226059,6.10652103 7.64959472,5.69169616 8.59498967,4.97736449 C9.19293542,4.52410026 9.94570641,4.30254 10.8522349,4.30254 C11.4501806,4.30254 12.6946552,3.92615451 14.5856586,3.1739174 C14.3539547,4.08044587 14.1708338,4.97736449 14.0165424,5.88442689 C14.392394,5.7685749 14.9615103,5.58545402 15.7142813,5.31531062 C15.8974021,5.05477711 16.2449581,4.73658455 16.7270519,4.36019906 C16.8429039,4.32175969 16.9971952,4.26356675 17.1803161,4.18668801 L16.6790027,5.6046737 L18.1450375,8.1416721 L18.4824497,6.22183914 L18.0291855,4.74619439 L18.1450375,4.24434707 L17.8652843,3.95498404 C18.6180553,3.57913242 19.7851173,3.09650478 21.3670041,2.48894919 C21.4444167,8.33493671 22.0039231,14.7980896 23.0647429,21.8784079 C23.7016619,21.6856772 24.5505314,21.4251437 25.6017413,21.0871976 C25.563302,21.4635831 25.5152528,22.051919 25.4378401,22.8431294 C25.3994008,23.1036629 25.1965263,23.383416 24.8398944,23.6919988 C24.4827286,23.9909716 24.3092175,24.3481374 24.3092175,24.7629623 C24.3092175,24.9076438 24.4154597,25.1484238 24.6471637,25.4666163 C24.8687239,25.7853428 24.9845759,26.0843156 24.9845759,26.3448492 C24.9845759,26.52797 24.9557464,26.8269429 24.8975534,27.2225481 C24.8398944,27.6181533 24.8110649,27.9075163 24.8110649,28.100247 L24.0775136,28.3223412 C24.569751,31.2645546 25.1292574,34.090916 25.7757863,36.8014255 Z M17.6917733,10.6882803 L17.4120201,9.78175187 L17.4696791,9.44380575 L17.0164149,8.99054151 L16.5631507,10.293209 L17.4696791,11.8750959 L17.6917733,10.6882803 Z M14.4121476,24.1933122 C13.6209372,20.5373011 12.9455789,16.8620702 12.3764627,13.1772295 C10.9873065,19.0904859 10.0225851,23.5953665 9.49190829,26.6822614 C11.3054991,25.6694908 12.9455789,24.8398411 14.4121476,24.1933122 Z M3.50161302,35.5569509 L3.33771182,35.1618796 L2.76854221,35.894897 L2.88434081,37.2552236 L3.27978583,36.4640132 L3.33771182,35.779045 L3.50161302,35.5569509 Z M5.25727784,37.7661469 L5.02573403,37.0811786 L4.18658124,38.2679942 L4.40840843,40.2454862 C4.90043236,39.4932491 5.12231295,38.7596978 5.08371341,38.0459 L5.25727784,37.7661469 Z M52.9689709,36.126601 C52.1782944,36.8014255 51.5509853,37.2936629 51.097721,37.5926358 C50.6540666,36.7629861 50.2776811,35.9915293 49.9690984,35.2777316 C49.7470043,35.6535832 49.3711527,36.2323092 48.8404758,37.0235196 C48.9947672,37.5157571 49.1971077,38.2295548 49.4672511,39.1745227 L47.8757544,39.1745227 C47.8757544,39.2134959 47.7887319,39.8888543 47.5960012,41.2102076 C41.8370362,35.894897 37.4576175,31.3222136 34.4865745,27.4734718 C34.4476013,28.042588 34.4283816,29.5091567 34.4283816,31.88172 C34.4283816,33.8789656 34.3899422,35.2003189 34.3125296,35.8372379 C34.1678481,36.9364971 34.0909693,37.4767838 34.0909693,37.4767838 C34.0909693,38.4222855 34.1870678,40.0426117 34.3707225,42.3388302 C33.7338035,42.6474129 33.2228802,42.8305338 32.8464948,42.9079464 L32.4508896,42.5123412 L32.7883018,41.3837186 L32.6147908,39.965733 L32.7883018,39.5701278 L32.2773785,38.6635994 L31.4285091,40.2454862 L31.9976253,42.0008841 L31.2646079,41.1520147 C30.8497831,41.7601041 30.2609133,42.6570228 29.5086762,43.863058 L28.7174658,43.2453587 L27.6470361,44.036569 C25.9877367,29.8657886 25.1580869,17.981083 25.1580869,8.37337608 C25.3123783,8.29596346 25.8334453,8.25752409 26.7399738,8.25752409 C27.3480633,8.25752409 27.9267893,8.01621027 28.4959055,7.52450667 C29.2481427,6.87797782 29.7403801,6.50212621 29.9619404,6.39588406 C30.039353,7.14812117 30.2609133,8.21908472 30.6372988,9.61785067 C30.9074421,9.2702947 31.1679756,8.72039817 31.4285091,7.94894137 C31.6986525,7.1769507 31.9394324,6.61744432 32.1711364,6.28003207 C32.7690821,6.08730134 33.5795122,5.80701427 34.6018926,5.43116266 C34.6018926,5.69169616 34.6985249,5.92286626 34.9110092,6.10652103 C35.1133498,6.29925176 35.219592,6.52134589 35.219592,6.79148924 L35.393103,6.79148924 L35.4993451,6.55978526 C35.6151971,7.12890149 35.8079279,7.37021531 36.0684614,7.29280269 L36.0102684,7.92011184 C38.6823385,14.8845782 41.2871397,20.2965211 43.8145282,24.1356532 C43.013708,21.2030496 42.3965426,15.4926677 41.9432784,7.0130495 C42.31913,6.79148924 42.8887801,6.43432343 43.6410172,5.94261983 C43.6410172,5.26726141 43.6986762,4.58229319 43.8049184,3.90693482 C44.528326,3.68484069 45.5603163,3.4344509 46.9206428,3.1739174 L46.3515266,4.24434707 L47.258589,7.07124243 L47.7695123,5.43116266 L47.5960012,3.95498404 L47.7695123,3.5017198 L47.4321,2.99987248 C48.1458978,2.88455437 48.9947672,2.69128976 49.9690984,2.43075625 C49.9690984,3.8295222 49.9883181,4.86204638 50.0267575,5.54701465 C50.3647036,5.39218941 50.8179678,5.18984879 51.387084,4.91970544 C51.2327927,8.16089178 51.1553801,11.1420785 51.1553801,13.8525879 C51.1553801,21.3092917 51.7634695,28.737166 52.9689709,36.126601 Z M45.9559214,10.0615051 L45.8502132,9.04873445 L45.9559214,8.76898126 L45.5603163,8.1416721 L45.0008099,9.22224549 L45.6185092,11.1997375 L45.9559214,10.0615051 Z M31.2646079,35.0460276 L31.1487559,34.090916 L31.2646079,33.7438939 L30.9266618,33.1261946 L30.2998865,34.2548172 L30.9266618,36.1746502 L31.2646079,35.0460276 Z M29.9619404,40.3613382 L29.8466223,39.3966168 L29.9619404,39.0592045 L29.5663352,38.4415052 L28.9491698,39.5701278 L29.5663352,41.4899608 L29.9619404,40.3613382 Z M84.9184936,19.1678985 L84.5810814,21.762556 L81.2432628,23.1228825 C81.2432628,27.9459557 81.3591148,31.5250881 81.580675,33.859212 C81.580675,34.1971582 81.696527,34.968615 81.9186212,36.1746502 C82.0729125,37.1201519 82.1497913,37.8916087 82.1497913,38.4895544 C82.1497913,38.7212584 82.0921322,39.0592045 81.9762802,39.5124688 C82.1305716,40.3415846 82.3911051,41.5668395 82.7674906,43.1876996 C82.4295444,43.3323811 81.9570605,43.5443315 81.3591148,43.8048651 C80.9827293,43.5443315 80.3943934,43.2069193 79.603183,42.7920944 C78.9278246,43.6601835 78.4169014,44.3547616 78.0789552,44.8854384 L77.2300858,44.5480262 L76.2077054,45.2228507 C75.8313199,44.1716407 75.4357147,42.8497535 75.0208898,41.2678667 C70.1593773,43.0718476 66.2428327,43.9783761 63.2712558,43.9783761 C59.8373388,43.9783761 57.0109774,42.4546822 54.7921715,39.3966168 C52.8338992,36.6471341 51.8499581,33.5025801 51.8499581,29.9618871 C51.8499581,26.006903 52.8146795,22.1485513 54.7345125,18.3766881 C56.4995202,14.836529 58.95003,11.6722214 62.0849742,8.88429937 C65.6641066,5.72052569 70.0723549,3.54976901 75.3102529,2.38270704 L75.2525938,4.5337101 L74.1239712,6.79148924 L74.5676256,7.9777709 L74.2302133,8.08401305 L73.439003,8.82664031 L73.0433978,8.87468952 L72.7636446,9.61785067 L74.1239712,9.44380575 L74.7993296,8.59493633 L75.1367418,9.55965774 L74.0081192,11.1997375 L75.0208898,13.5728347 C69.7829918,15.8300799 65.9822992,19.1486788 63.609202,23.5184877 C62.1335573,26.1905578 61.400006,28.4766325 61.400006,30.3574922 C61.400006,31.9014736 61.9595123,33.1454143 63.0689153,34.090916 C64.1783182,35.0268079 65.5290349,35.4992918 67.1109218,35.4992918 C68.6543692,35.4992918 70.6126416,34.968615 72.9857388,33.917405 C72.6867659,33.2036072 72.271941,31.302994 71.750874,28.2064892 C69.7829918,29.4125244 67.5834057,30.8689494 65.1334297,32.5570784 C65.2877211,31.9206933 65.5482546,30.9559719 65.9246401,29.6826677 L66.4932224,29.5668158 L67.2267737,29.0553586 L67.5065269,28.9976995 L67.8439392,28.4381932 L66.7153166,28.4381932 L66.0981511,29.1135515 L65.2492817,28.100247 C65.4324026,27.7532249 65.7698149,27.2513776 66.2620523,26.5664094 L65.470842,25.8915849 C65.6641066,25.2931053 65.8280078,24.8398411 65.9822992,24.5408682 C66.9950698,23.8559 68.5577369,22.9200081 70.6703006,21.7145067 L70.5549825,20.9232964 C71.3168295,20.5762743 72.4838914,20.0936467 74.0657783,19.4476517 L74.1239712,18.9938536 C77.2108661,17.6436707 80.7899986,16.3799764 84.8603007,15.2123806 C84.7449826,15.8108602 84.6483503,16.7173887 84.5810814,17.9234239 L83.9537722,18.4343472 L82.7092976,18.4343472 L80.8476576,20.5762743 L82.4295444,20.2383282 L83.500508,19.3894588 L83.9537722,19.3317997 L84.0696242,19.2255576 L84.9184936,19.1678985 Z M73.2174427,7.12890149 L71.6932149,7.63074881 L70.6126416,8.59493633 L70.1593773,8.65312927 L69.7637721,9.61785067 L71.51917,9.38614669 L73.2174427,7.12890149 Z M78.7543136,19.5635037 L77.625691,19.5635037 L76.4388755,20.9713456 L77.45218,20.7497853 L78.1371482,20.1806691 L78.4745604,20.1806691 L78.7543136,19.5635037 Z M70.2752293,11.4794907 L69.425826,11.7592439 L68.8663196,12.2707011 L68.6351495,12.3283601 L68.4130554,12.8398173 L69.3201178,12.7239653 L70.2752293,11.4794907 Z M55.641041,35.8372379 L54.8984137,33.5794588 L54.4547593,34.8821264 L54.6186605,36.068408 L54.4547593,36.4640132 L54.8984137,37.1393716 L55.641041,35.8372379 Z M112.150652,36.9172774 C112.00597,37.8147299 111.928557,38.6635994 111.928557,39.4542758 L111.079688,39.0592045 L111.079688,39.965733 L110.568765,39.3485676 L107.520309,38.9529624 L108.870492,40.1392441 L110.289011,40.5828984 L110.684617,40.9304544 L111.079688,40.9304544 L111.137881,42.3388302 C110.98359,42.3003908 110.858128,42.2811712 110.742276,42.2811712 C110.626424,42.2811712 110.424083,42.3388302 110.114967,42.4546822 C109.931846,42.5315609 109.680922,42.5123412 109.381949,42.3964893 L110.963836,44.6537345 C108.031766,43.4866725 105.089553,42.3003908 102.147339,41.0943556 C98.6456196,39.7051995 95.7610653,38.4030659 93.5038201,37.1970306 C93.5038201,38.3640926 93.5908425,39.792222 93.7835733,41.4899608 C93.446161,41.6826915 92.9347038,41.943225 92.2593455,42.2811712 L92.2016864,42.2229782 L92.5972916,41.2102076 L91.4104761,38.5573572 L91.0730638,40.1878271 L91.352817,41.2678667 L90.6774586,40.5828984 C90.6390193,40.6218717 90.0309298,41.6058128 88.8638678,43.5251119 L88.1308504,42.9656055 C87.7160255,43.3035516 87.33964,43.6025245 87.0022278,43.863058 C85.5644886,31.8048413 84.7738121,22.4475242 84.6291306,15.771887 L83.7220682,16.3415371 L84.0018214,16.003591 L82.1401814,15.771887 L80.6159536,17.1322136 C80.3169808,16.4862186 80.1050303,15.9843713 79.9891784,15.6079858 C80.0276177,15.6079858 80.6351733,15.2609637 81.8027692,14.5856053 L80.8380478,13.9102469 L81.5710652,13.5151756 L82.0243294,13.5151756 L82.7092976,12.6657724 L80.8957068,12.4442121 L80.2203484,13.0037185 L79.9891784,12.2125081 C80.4040032,11.5371498 80.6933662,10.9680335 80.8380478,10.5147693 L78.9182148,10.8527154 L78.9182148,9.95526292 C79.1114794,9.83941093 79.5263043,9.55965774 80.1626894,9.1063935 C86.52921,4.4664412 92.8962645,2.15153694 99.2627851,2.15153694 C102.503971,2.15153694 105.147212,2.86533468 107.182363,4.30254 C109.517021,5.96183951 110.684617,8.33493671 110.684617,11.4212978 C110.684617,17.9426436 106.690659,23.8366803 98.7032787,29.1135515 C103.526886,32.3547378 108.012013,34.9493953 112.150652,36.9172774 Z M82.9890508,16.8524604 C82.1594011,17.4504061 81.5326258,17.9426436 81.1274108,18.3190291 C81.0115588,18.0584956 80.9149265,17.8267916 80.8380478,17.6436707 L81.5710652,17.5854778 L82.8731988,16.8524604 L82.9890508,16.8524604 Z M101.240277,15.8300799 C101.240277,13.2738618 99.5040989,11.9909479 96.0408185,11.9909479 C95.6649668,11.9909479 95.2693617,12.0101676 94.8545368,12.0486069 C94.2560572,16.7948013 93.9570843,20.5570546 93.9570843,23.3444428 C98.8095208,20.5570546 101.240277,18.0584956 101.240277,15.8300799 Z M85.9312642,9.95526292 L84.5709377,9.78175187 L82.9313918,11.1420785 L84.1758664,11.0838855 L85.0823948,10.5724284 L85.478,10.5724284 L85.9312642,9.95526292 Z M107.124704,37.5926358 L106.334027,36.6279144 L104.356002,36.3481612 L105.204871,37.1393716 L106.159983,37.4191248 L106.391686,37.7084878 L107.124704,37.5926358 Z M90.1083424,37.3609318 L89.2012801,35.4416328 L88.9797198,36.6279144 L89.2012801,37.5926358 L89.1532309,37.9300481 L89.5968852,38.5573572 L90.1083424,37.3609318 Z M138.032093,3.73342378 C137.656241,4.37941874 137.076981,5.3345303 136.276695,6.61744432 C136.546838,6.73329631 137.087125,6.87797782 137.916775,7.07124243 C136.68191,8.91366277 133.266679,14.2866324 127.691368,23.1805416 C126.784306,24.5696977 125.482172,26.6630417 123.794043,29.4509638 C123.070636,30.9559719 121.864601,33.0685356 120.176472,35.779045 C119.346822,36.8403987 118.478733,38.2098012 117.572204,39.908074 C116.857873,41.3356694 116.144075,42.7920944 115.420667,44.2586632 C114.977013,44.2586632 114.388677,44.2196899 113.674879,44.1428112 C113.674879,43.0910673 113.655126,42.2614176 113.616686,41.6634718 L113.89644,41.4899608 L114.571798,40.1878271 L114.977013,39.908074 L115.083255,38.8947695 L113.443175,39.6859798 L112.883669,41.3837186 C111.899728,42.1364896 110.954226,42.7920944 110.057307,43.3612107 L109.825604,42.174929 L108.301376,42.5705342 C109.960675,38.5381375 112.575086,32.5570784 116.163295,24.6471103 C112.613526,20.1614494 109.208438,15.3960354 105.928279,10.3508681 C106.150373,10.0807247 106.536368,9.86877433 107.056901,9.69472941 C107.587578,9.53082821 107.954354,9.30926795 108.156694,9.04873445 C108.369179,8.78820094 108.561909,8.08401305 108.755174,6.95539044 C108.947905,6.12574071 109.410779,5.63350323 110.16355,5.48882171 L110.278868,6.79148924 L112.82601,8.82664031 L112.314553,7.0130495 L111.301782,5.7685749 L111.18593,5.25765156 L111.128271,5.25765156 C111.543096,4.95814481 111.822315,4.35058921 111.97714,3.42484106 C112.131432,2.50816887 112.314553,1.89100344 112.546257,1.59203056 C115.256766,6.33769113 117.967276,10.9295942 120.678319,15.3768157 C122.829322,10.9295942 125.14476,6.43432343 127.633175,1.87124987 C128.385946,1.91022312 129.514569,1.98710186 131.028653,2.09334401 L130.237977,2.48894919 L129.330914,5.25765156 L130.681631,4.30254 L131.366599,2.99987248 L131.762204,2.76870238 L131.819863,2.15153694 L133.228239,2.26685505 C132.967706,3.2411863 132.774975,4.09005571 132.659123,4.80385345 C133.266679,4.4664412 134.154521,4.00356713 135.321583,3.39547766 C136.228112,3.54976901 137.125564,3.65601116 138.032093,3.73342378 Z M131.308406,6.83953845 L130.006273,7.46631373 L129.330914,9.61785067 L130.401878,8.82664031 L130.913335,7.86191891 L131.250747,7.63074881 L131.308406,6.83953845 Z M115.71003,14.5279463 L115.47886,13.6790769 L114.977013,13.1195705 L114.91882,12.8878665 L114.465556,12.6657724 L114.523749,13.5728347 L115.71003,14.5279463 Z M112.651965,12.8398173 L112.256894,11.5371498 L111.523342,10.6306213 L111.465683,10.2350161 L110.674473,9.89760386 L110.790325,11.3636387 L112.651965,12.8398173 Z M115.536519,35.2777316 L114.292045,35.894897 L113.616686,38.0459 L114.629457,37.2552236 L115.140914,36.2905022 L115.47886,36.068408 L115.536519,35.2777316 Z M176.647109,11.3059797 C176.647109,15.9074925 174.611958,19.9393553 170.541122,23.4026357 C173.261241,24.3091642 174.611958,26.0747058 174.611958,28.7179463 C174.611958,29.7691563 174.409083,30.9169986 173.994258,32.1614732 C172.711345,35.7406056 170.203176,38.4799446 166.479896,40.3613382 C163.199736,41.9816644 159.486066,42.7728748 155.337817,42.7344354 L154.884553,43.5251119 L154.093876,42.9656055 C153.833343,43.1487264 153.476177,43.4482331 153.022913,43.863058 L152.849402,42.5603905 C151.797658,42.4931216 150.649816,42.3003908 149.405341,42.0008841 L149.685094,41.0366966 C150.215771,40.9977233 151.045421,40.6410914 152.174044,39.965733 L151.498685,39.4542758 L152.74316,39.0010116 L151.836631,38.7789175 L151.10308,38.8947695 L150.87191,38.8371104 L150.708009,38.8947695 L150.427722,38.7212584 L150.0807,38.2098012 L152.010142,37.3128826 L151.10308,35.3834398 L152.058192,35.4992918 C151.344394,28.4958522 150.89113,22.3124525 150.708009,16.9587025 C149.386121,17.865231 148.122427,18.791513 146.916392,19.7274049 C146.810684,19.2063379 146.636639,18.4343472 146.415079,17.4119667 L147.60136,17.4701597 L149.743287,15.4344747 L148.045548,15.6565689 L146.810684,16.4568552 L146.357419,16.5054383 L146.241567,16.7366084 L145.961814,15.6079858 C146.106496,15.5695464 146.183375,15.5118874 146.183375,15.4344747 C146.183375,15.3960354 146.087276,15.2994031 145.903621,15.1547215 C145.710891,15.0004302 145.604648,14.8653585 145.566209,14.7591164 L145.787769,14.5856053 C145.74933,14.5471659 145.73011,14.5087266 145.73011,14.4697533 C145.73011,14.3640451 146.029083,14.1323411 146.636639,13.794395 C147.235118,13.4569827 147.543701,13.2348886 147.543701,13.1195705 C147.543701,13.0421579 147.505262,12.9359157 147.427849,12.8104539 C147.350437,12.6759161 147.119266,12.5888936 146.723661,12.5499204 C146.328056,12.511481 146.068056,12.4052389 145.961814,12.2125081 L146.183375,12.0389971 C145.653232,12.1932884 145.238407,12.2707011 144.9389,12.2707011 C144.639927,12.2707011 144.601488,12.1932884 144.823582,12.0389971 C144.755779,12.0774364 144.6789,12.1356294 144.601488,12.2125081 C144.601488,12.2125081 144.601488,12.1932884 144.601488,12.1548491 C144.601488,12.0774364 144.69812,11.8847057 144.881241,11.5665132 C145.073972,11.2381769 145.170604,11.0262265 145.170604,10.9103745 C145.170604,10.7272536 145.093725,10.7075 144.9389,10.8527154 L144.9389,9.95526292 C145.016313,9.91682355 145.411918,9.62746051 146.125715,9.1063935 C148.875198,7.07124243 151.89429,5.43116266 155.173916,4.18668801 C158.714609,2.82636143 162.061504,2.15153694 165.235421,2.15153694 C168.438168,2.15153694 171.071799,2.84558112 173.145389,4.24434707 C175.480047,5.90364658 176.647109,8.25752409 176.647109,11.3059797 Z M167.376814,14.5856053 C167.376814,12.5888936 166.190533,11.5953427 163.817435,11.5953427 C162.987786,11.5953427 161.994235,11.749634 160.827173,12.0486069 C160.258057,17.5470384 159.977769,21.1069512 159.977769,22.7272774 C164.907619,19.6788218 167.376814,16.9587025 167.376814,14.5856053 Z M151.556344,9.72409282 L149.858605,9.95526292 L148.614665,10.7464733 L148.103207,10.7464733 L147.543701,11.6433919 L149.347682,11.7592439 L151.556344,9.72409282 Z M152.058192,13.3411307 L151.161273,13.4569827 L150.533964,13.8525879 L150.254211,13.9102469 L149.974457,14.3640451 L150.929569,14.4217041 L152.058192,13.3411307 Z M166.364044,31.4284558 C166.364044,30.5988061 165.572833,30.1839812 163.990946,30.1839812 C162.862324,30.1839812 161.444338,30.4156852 159.746599,30.8689494 C159.785039,31.9591326 159.70816,33.5794588 159.524505,35.7309958 C160.846392,35.4992918 162.196575,35.0268079 163.595341,34.3130102 C165.438295,33.4059478 166.364044,32.4508362 166.364044,31.4284558 Z M188.223232,6.22183914 C187.123439,15.646959 186.583152,24.6081371 186.583152,33.1261946 C186.583152,34.5927633 186.544713,35.5959241 186.4673,36.126601 C186.4673,36.2712825 186.409641,36.5606455 186.303399,36.9946901 C186.187547,37.4287346 186.129888,37.7757567 186.129888,38.0459 C186.129888,38.682819 186.187547,39.4932491 186.303399,40.4771902 C186.409641,41.7889337 186.487054,42.5993637 186.525493,42.9079464 C186.187547,43.0526279 185.676624,43.2843319 185.001265,43.5833048 C184.663853,43.2069193 184.171615,42.5993637 183.525087,41.7793238 L183.361185,40.6987504 L183.58328,40.1878271 L182.96558,39.1168636 L182.001393,41.0366966 L182.628168,42.9656055 C182.319585,43.3035516 182.001393,43.8336946 181.663447,44.5480262 L180.87277,43.863058 C180.496385,44.0846182 180.139219,44.3739813 179.801807,44.7119274 C178.180946,29.9816406 177.332077,17.4893794 177.255198,7.23514363 C178.344848,6.82031877 179.965708,6.16418008 182.117245,5.25765156 C182.232563,5.6046737 182.416218,6.06754778 182.685827,6.67563725 L182.280612,7.40865468 L183.187674,10.3508681 L183.699132,8.65312927 L183.525087,7.12890149 L183.699132,6.67563725 L183.477037,6.22183914 L184.316297,5.15140942 C185.184386,4.88126607 185.994816,4.58229319 186.747053,4.24434707 C186.708614,4.58229319 186.853295,4.83268298 187.171488,4.97736449 C187.499824,5.13218973 187.654116,5.35375004 187.654116,5.65272292 C187.808407,5.58545402 187.894896,5.66233276 187.905039,5.91325642 C187.924259,6.15457024 187.972308,6.28003207 188.049721,6.28003207 L188.223232,6.22183914 Z M181.046281,11.1420785 L180.87277,10.1191641 L181.046281,9.83941093 L180.650676,9.16458644 L180.023367,10.3508681 L180.650676,12.3283601 L181.046281,11.1420785 Z M182.570509,15.2609637 L182.512316,14.6432644 L182.570509,14.4697533 L182.338805,14.074682 L182.001393,14.7591164 L182.338805,15.9459319 L182.570509,15.2609637 Z M184.548001,37.4767838 L184.373956,36.4640132 L184.548001,36.126601 L184.152396,35.4992918 L183.58328,36.6279144 L184.152396,38.6054064 L184.548001,37.4767838 Z M218.13707,36.9172774 C217.992388,37.8147299 217.914975,38.6635994 217.914975,39.4542758 L217.066106,39.0592045 L217.066106,39.965733 L216.555183,39.3485676 L213.506727,38.9529624 L214.85691,40.1392441 L216.27543,40.5828984 L216.671035,40.9304544 L217.066106,40.9304544 L217.124299,42.3388302 C216.970008,42.3003908 216.844546,42.2811712 216.728694,42.2811712 C216.612842,42.2811712 216.410501,42.3388302 216.101385,42.4546822 C215.918264,42.5315609 215.66734,42.5123412 215.368367,42.3964893 L216.950254,44.6537345 C214.018184,43.4866725 211.075971,42.3003908 208.133758,41.0943556 C204.632038,39.7051995 201.747483,38.4030659 199.490238,37.1970306 C199.490238,38.3640926 199.577261,39.792222 199.769991,41.4899608 C199.432579,41.6826915 198.921122,41.943225 198.245764,42.2811712 L198.188105,42.2229782 L198.58371,41.2102076 L197.396894,38.5573572 L197.059482,40.1878271 L197.339235,41.2678667 L196.663877,40.5828984 C196.625437,40.6218717 196.017348,41.6058128 194.850286,43.5251119 L194.117268,42.9656055 C193.702444,43.3035516 193.326058,43.6025245 192.988646,43.863058 C191.550907,31.8048413 190.76023,22.4475242 190.615549,15.771887 L189.70902,16.3415371 L189.98824,16.003591 L188.126599,15.771887 L186.602372,17.1322136 C186.303399,16.4862186 186.091448,15.9843713 185.975596,15.6079858 C186.014036,15.6079858 186.621591,15.2609637 187.789187,14.5856053 L186.824466,13.9102469 L187.557483,13.5151756 L188.010748,13.5151756 L188.695716,12.6657724 L186.882125,12.4442121 L186.206767,13.0037185 L185.975596,12.2125081 C186.390421,11.5371498 186.679784,10.9680335 186.824466,10.5147693 L184.904633,10.8527154 L184.904633,9.95526292 C185.097897,9.83941093 185.512722,9.55965774 186.149107,9.1063935 C192.515628,4.4664412 198.882683,2.15153694 205.249203,2.15153694 C208.490389,2.15153694 211.13363,2.86533468 213.168781,4.30254 C215.503439,5.96183951 216.671035,8.33493671 216.671035,11.4212978 C216.671035,17.9426436 212.677077,23.8366803 204.689697,29.1135515 C209.513304,32.3547378 213.998431,34.9493953 218.13707,36.9172774 Z M188.975469,16.8524604 C188.145819,17.4504061 187.519044,17.9426436 187.113829,18.3190291 C186.997977,18.0584956 186.901878,17.8267916 186.824466,17.6436707 L187.557483,17.5854778 L188.859617,16.8524604 L188.975469,16.8524604 Z M207.226695,15.8300799 C207.226695,13.2738618 205.490517,11.9909479 202.027237,11.9909479 C201.651385,11.9909479 201.25578,12.0101676 200.840955,12.0486069 C200.242475,16.7948013 199.943502,20.5570546 199.943502,23.3444428 C204.795939,20.5570546 207.226695,18.0584956 207.226695,15.8300799 Z M191.917682,9.95526292 L190.557356,9.78175187 L188.91781,11.1420785 L190.162284,11.0838855 L191.068813,10.5724284 L191.464418,10.5724284 L191.917682,9.95526292 Z M213.111122,37.5926358 L212.319912,36.6279144 L210.34242,36.3481612 L211.191289,37.1393716 L212.146401,37.4191248 L212.378105,37.7084878 L213.111122,37.5926358 Z M196.094761,37.3609318 L195.187698,35.4416328 L194.966138,36.6279144 L195.187698,37.5926358 L195.139649,37.9300481 L195.583303,38.5573572 L196.094761,37.3609318 Z M244.481919,15.4344747 C244.481919,18.7530736 243.555637,22.2547934 241.713216,25.949244 C239.262706,30.8497297 235.751377,34.9979784 231.169618,38.3838462 C226.587324,41.7793238 221.60996,43.8534481 216.217237,44.6056853 L216.555183,42.5705342 L216.612842,42.5123412 L218.310581,42.5705342 L220.567826,40.1878271 L218.706186,40.5348492 L218.310581,40.8146024 C218.11785,40.2454862 217.799123,38.9721821 217.345859,36.9658605 L219.265692,36.5702554 C218.474482,30.3190529 217.953415,23.9140929 217.683271,17.3543077 C216.371528,18.0681054 215.050175,18.8977552 213.728287,19.8432569 C213.8057,17.4701597 214.182086,15.415255 214.85691,13.6790769 L213.612969,12.2707011 L214.355597,12.2707011 L216.333089,10.2350161 L214.751202,10.5147693 L213.449068,11.3636387 L213.728287,8.93288246 L212.599665,8.02582011 C218.3298,4.63995225 224.127205,2.94221342 230.011632,2.94221342 C234.304562,2.94221342 237.738479,3.92615451 240.295231,5.88442689 C243.082619,8.06479336 244.481919,11.2477867 244.481919,15.4344747 Z M219.612714,10.4571102 L218.426433,10.6882803 L217.51937,11.3059797 L217.181958,11.3636387 L216.786353,11.9909479 L218.13707,12.0389971 L219.612714,10.4571102 Z M234.593925,20.074427 C234.593925,16.1482725 232.27902,14.2284395 227.639068,14.3058521 C226.992539,20.595494 226.674347,26.8557724 226.674347,33.0685356 C228.863789,31.4866487 230.66777,29.6052551 232.105509,27.4152788 C233.764275,24.9268635 234.593925,22.4859635 234.593925,20.074427 Z M225.603383,38.3256532 L224.860756,38.4415052 C224.52281,38.7020387 224.28203,38.8371104 224.127205,38.8371104 L223.905644,39.2327156 L224.696855,39.2327156 L225.603383,38.3256532 Z M222.834681,37.988241 L221.8123,38.161752 L221.136942,38.6635994 L220.847579,38.6635994 L220.510167,39.2327156 L221.590206,39.2327156 L222.834681,37.988241 Z M265,9.50199868 C257.542762,13.9876596 253.809872,17.7109396 253.809872,20.6921263 C253.809872,21.7048969 254.716935,22.6503986 256.520382,23.5184877 C259.308304,24.8398411 261.006043,25.71754 261.614132,26.1713381 C263.417579,27.6085434 264.324642,29.5283764 264.324642,31.939913 C264.324642,34.3898889 263.157046,37.0811786 260.822922,40.0233921 C259.086744,42.2421979 256.915987,44.3547616 254.31172,46.3514733 C254.166504,46.2745946 254.089626,46.129913 254.089626,45.8982091 C254.089626,45.7535275 254.157428,45.492994 254.282356,45.1363621 C254.417428,44.7791963 254.485231,44.5288065 254.485231,44.3739813 C254.485231,44.152421 253.867531,44.036569 252.623591,44.036569 C252.169793,44.036569 251.83238,44.036569 251.600676,44.036569 L253.809872,41.7216648 C252.517349,41.9143955 251.465605,42.4931216 250.655175,43.4386233 L250.153861,43.5635512 L249.826059,44.036569 L248.552221,43.4674528 C253.231146,40.1782173 255.56527,37.6310752 255.56527,35.8174844 C255.56527,34.6504224 254.243917,33.453997 251.610286,32.2484957 C247.423598,30.2806135 244.992842,29.0745783 244.307874,28.621314 C241.713216,26.8851358 240.411083,24.782182 240.411083,22.3316722 C240.411083,18.1353743 242.861059,13.6982965 247.761544,9.0097612 C251.678089,5.22828816 256.009459,2.22841568 260.755653,0 C260.870971,0.376385497 261.150724,0.829649731 261.604522,1.36032658 C262.134665,2.03568495 262.453392,2.4697295 262.56871,2.66246023 L261.778033,2.82636143 L260.475366,3.90693482 L260.022102,3.95498404 L259.289084,5.19945863 L260.870971,5.37296972 L262.733145,3.1739174 C262.733145,3.39547766 262.54949,4.12902896 262.173639,5.37296972 L263.97762,6.79148924 L263.929036,6.79148924 L262.964315,7.58216572 L262.626903,7.63074881 L262.057787,8.47961822 L263.244068,8.59493633 L264.372691,7.35099562 L264.662054,7.68840787 L265,9.50199868 Z M260.475366,6.73329631 L259.462595,6.89719751 L258.671919,7.63074881 L258.382556,7.63074881 L257.928758,8.47961822 L258.951672,8.53727728 L260.475366,6.73329631 Z M257.649004,40.081585 L256.405064,40.4771902 L255.498001,41.2102076 L255.160589,41.3260596 L254.658742,42.059077 L255.893607,41.943225 L257.649004,40.081585 Z" id="path396"></path>
        </g>
    </g>
</svg>