<?xml version="1.0" encoding="UTF-8"?>
<svg width="300px" height="300px" viewBox="0 0 300 300" version="1.1" xmlns="http://www.w3.org/2000/svg" xmlns:xlink="http://www.w3.org/1999/xlink">
    <!-- Generator: Sketch 49.3 (51167) - http://www.bohemiancoding.com/sketch -->
    <title>Oval 2</title>
    <desc>Created with Sketch.</desc>
    <defs></defs>
    <g id="Page-1" stroke="none" stroke-width="1" fill="none" fill-rule="evenodd">
        <circle id="Oval-2" fill="#EC5F67" cx="150" cy="150" r="150"></circle>
        <g id="Candy_Crush_(Print)" transform="translate(32.000000, 51.000000)" fill="#FFFFFF">
            <path d="M103.065018,144.677974 L114.736396,144.696349 L114.780683,149.956419 C117.618139,149.341578 119.421908,148.939929 122.320612,148.770789 L122.335925,160.305065 C120.73828,160.526502 116.136396,161.394346 114.737574,162.588221 C114.754299,173.007067 114.588928,183.56914 114.745347,193.96702 C110.905771,193.987986 106.927915,193.979976 103.088575,193.969611 L103.065018,144.677974 Z M140.452297,104.428975 C144.278916,99.4007067 148.978563,98.2694935 151.85371,98.7542992 C154.434158,99.1896349 158.021201,101.874205 156.264075,108.203062 C154.809658,113.432038 149.844052,119.464075 139.813663,126.06172 C134.41013,123.452297 127.137338,117.091873 125.010365,107.317079 C124.564664,104.582803 125.239812,101.736631 126.876796,100.062898 C128.665018,98.2306243 131.516608,98.1210836 134.485748,99.2914016 C136.805654,100.48245 138.898704,101.629446 140.452297,104.428975 Z M180.816254,144.878916 L180.816254,158.404947 C179.687868,157.325559 177.86808,156.175972 176.08033,155.709541 C173.786572,155.112839 172.289988,155.587044 171.643581,156.833216 C170.038163,159.935218 173.640518,163.328857 175.668316,165.560424 C178.410601,168.870907 180.665489,171.323439 181.981625,175.215312 C183.730978,180.538045 182.487161,186.577621 179.39576,189.942992 C176.616961,192.963958 172.227326,194.866902 167.639812,194.697291 C160.945819,194.793875 150.024028,195.977385 144.930742,190.813428 C144.545112,190.331213 144.107185,189.885748 143.856773,189.319906 C143.609187,189.330271 140.786101,195.664547 133.641225,195.440283 C128.493286,195.281037 125.279388,190.802827 125.185159,184.93828 L125.224499,144.694229 L135.98987,144.694229 L135.98987,184.023086 C137.929093,183.285512 141.61225,178.251826 141.61225,176.176914 L141.617197,144.693993 L152.395995,144.693993 L152.395995,181.953121 C152.395995,182.294464 152.510483,185.068316 155.623086,185.67821 C158.818375,186.17338 162.175972,185.683628 165.371731,185.326502 C167.834865,184.820966 169.831802,184.424499 170.783039,182.318257 C172.456537,178.603769 168.098469,174.758775 165.945347,172.235571 C161.271614,167.238869 158.35477,161.751708 160.304358,153.916137 C161.741107,148.741814 166.696349,144.938751 171.009894,144.081272 C174.015783,143.468551 177.685748,143.781625 180.816254,144.878916 Z M197.120848,148.426384 C199.062662,145.749352 201.153121,144.167256 203.851119,143.964193 C208.950059,143.872792 212.108834,148.382097 212.72391,153.003769 C212.849234,164.624264 212.72391,177.769376 212.76066,191.02662 C213.054888,193.159011 215.028504,194.314016 216.608009,193.873498 C220.361602,192.989635 219.694229,184.51543 230.19364,183.266902 C228.337809,191.204005 225.830153,195.325324 215.138045,195.692815 C210.711896,195.857008 205.602591,195.028033 202.469729,194.040047 C202.407067,184.119435 202.40212,164.110483 202.443581,154.77338 C200.079623,156.175736 198.173852,158.519199 196.815783,162.05159 L196.77927,193.961837 L185.48245,193.979976 L185.479623,129.444994 C190.124853,126.80424 193.458657,124.734747 197.136396,122.333804 L197.120848,148.426384 Z M146.859364,128.449234 L146.854181,128.358068 C158.182803,129.254653 170.423793,125.276796 179.309305,119.88881 C187.47609,114.66808 192.439105,109.8351 194.91543,104.689517 C197.245936,99.8438163 198.046172,92.962073 198.06172,85.2570082 C196.19788,87.1208481 194.198587,88.5076561 191.724853,88.3250883 C187.038163,87.9809187 182.546996,84.2954064 182.562309,77.9611307 L182.538987,38.819788 L194.164664,38.6895171 L194.216961,75.8916372 C196.30742,73.8087161 198.145347,72.4193168 198.145347,68.540636 L198.095642,38.7232038 L209.877503,38.7726737 L209.809894,85.6921084 C209.809894,98.3500589 203.637456,114.193168 193.560424,121.937574 C183.743698,129.405654 171.53404,134.222615 160.077739,135.273027 C153.712367,135.857008 147.461484,135.379741 141.341343,133.826384 C134.895171,136.190577 127.914488,137.180919 120.652297,135.661249 C105.458186,132.478445 103.099176,127.627562 92.8956419,123.378563 C85.5969376,120.342049 77.4499411,120.422615 69.0723204,125.437927 C60.2744405,131.08669 55.1825677,142.315901 55.8004711,154.441932 C56.4414605,164.122968 61.6393404,172.399293 69.5882214,177.56066 C77.6153121,182.745347 89.3726737,183.62874 98.8895171,178.879623 L98.8855124,192.739223 C86.5429918,196.917314 73.5335689,195.147703 63.1288575,188.81861 C51.1879859,181.556419 43.4838634,169.065253 42.8075383,155.112132 C41.9667845,137.757126 49.6381625,121.898233 62.7276796,114.354535 C71.6631331,109.203769 80.9349823,108.966313 89.2775029,110.788693 C97.4155477,112.566078 104.767727,116.919199 113.236278,121.986572 C119.827326,126.827326 127.090695,129.097527 133.578799,127.817903 C127.082921,123.769611 118.887868,114.398587 117.532155,106.591755 C116.359246,99.8301531 119.747939,92.8468787 126.777856,90.9130742 C131.715194,89.9877503 138.286455,91.0120141 140.405654,98.3368669 C143.846172,92.6023557 150.279623,89.6044759 154.812721,90.4881037 C161.042403,91.6664311 165.559717,99.7441696 162.968669,109.133569 C160.55477,116.674912 153.053004,125.522026 146.859364,128.449234 Z M60.0308598,6.35641932 L60.0673734,20.1795053 C52.8600707,16.6058893 44.7196702,16.246172 38.5795053,17.8987044 C25.8292108,21.33404 16.1309776,33.3090695 16.7137809,47.8487633 C17.5792697,63.9448763 30.1380448,75.1823322 45.1156655,76.0110718 C49.9912839,76.2796231 54.9269729,75.2944641 59.9342756,73.1281508 L64.041225,84.0447585 C59.1889282,87.9104829 49.0998822,89.4171967 40.6713781,88.3535925 C30.0845701,87.0869258 20.8765607,81.5580683 14.2791519,73.8685512 C7.71166078,66.3875147 4.28127208,57.2275618 4.14723204,46.6447585 C3.94628975,30.9057715 12.5952886,17.4869258 24.6011779,10.1493522 C35.0162544,3.78374558 47.2414605,2.39458186 60.0308598,6.35641932 Z M97.0035336,52.3820966 L96.9630153,75.6725559 C98.2824499,79.4103651 101.39576,78.8186101 103.57126,77.6928151 L103.590577,38.7027091 C107.401649,38.7130742 111.462662,38.6685512 115.27232,38.7156655 L115.291873,42.1929329 C117.483863,39.1955241 120.446408,37.6051826 123.845701,37.662662 C128.561131,37.9674912 130.886219,43.0845701 130.886219,48.5220259 L130.901767,86.6468787 L120.082921,89.5036514 L120.111425,52.7083628 C120.01649,51.355477 120.15689,50 120.073734,48.6810365 C117.508834,50.4822144 114.405654,54.1081272 114.405654,57.2179034 L114.441696,88.0386337 C108.87821,88.0334511 104.144405,88.1714959 100.050648,87.9656066 C97.7241461,87.8482921 95.9465253,87.6216726 93.7217903,87.0193168 C92.5436985,86.7639576 91.5045936,86.2921084 90.4007067,85.5359246 C86.8961131,88.0070671 82.9159011,89.0810365 79.0499411,88.791755 C71.4843345,88.2233216 64.3161366,82.345583 63.6007067,73.3109541 C63.2459364,68.4106007 65.1893993,63.7055359 68.7773852,60.2855124 C71.5757362,57.6188457 75.5090695,55.809894 79.4310954,55.7707892 C81.8614841,55.7474676 83.2756184,56.1512367 85.3778563,57.5693757 L85.3908127,52.3926973 C85.2749117,50.3491166 83.5700824,49.2176678 82.0190813,49.2803298 C80.2581861,49.3507656 79.0619552,50.8730271 78.9903416,52.593404 L67.7177856,49.4706714 C69.586808,40.8765607 77.3467609,36.8935218 83.9962309,37.6782097 C90.4779741,38.4442874 97.0035336,43.970318 97.0035336,52.3820966 Z M75.958775,75.7846879 C78.196702,78.5396938 82.7413428,78.3314488 84.7159011,75.4146054 C87.0409894,72.3698469 85.3663133,68.0584217 81.9905771,66.9846879 C79.2471143,66.009894 76.4619552,67.38351 75.3189635,69.4949352 C74.3151943,71.3481743 74.2473498,73.7722026 75.958775,75.7846879 Z M177.472085,10.2273263 L177.409423,75.5733804 C177.644052,76.6004711 178.832509,77.1295642 180.836985,77.1738516 L182.231802,88.6822144 C178.770318,88.8831567 173.567491,87.8089517 170.720612,85.5413428 C163.946054,90.6815077 152.77126,89.2322733 145.681508,84.8216726 C138.844523,80.5729093 133.954064,73.3943463 134.045465,63.5074205 C134.01649,53.6699647 138.890695,45.3964664 147.883863,40.1700824 C152.865253,37.3156655 160.171496,36.3825677 165.794111,37.9232038 C165.809423,31.6621908 165.82285,25.6275618 165.788928,19.3691402 L177.472085,10.2273263 Z M165.85159,76.2094229 L165.856773,50.004947 C155.779741,45.9255595 146.171496,53.4353357 145.670907,62.6391048 C145.253946,73.1648999 156.363251,81.2845701 165.85159,76.2094229 Z" id="Shape"></path>
        </g>
    </g>
</svg>