<?xml version="1.0" encoding="UTF-8"?>
<svg width="300px" height="300px" viewBox="0 0 300 300" version="1.1" xmlns="http://www.w3.org/2000/svg" xmlns:xlink="http://www.w3.org/1999/xlink">
    <!-- Generator: Sketch 50.2 (55047) - http://www.bohemiancoding.com/sketch -->
    <title>Oval-2</title>
    <desc>Created with Sketch.</desc>
    <defs>
        <linearGradient x1="49.9996911%" y1="0.707287845%" x2="49.9996911%" y2="97.0083886%" id="linearGradient-1">
            <stop stop-color="#A2C0E6" offset="0%"></stop>
            <stop stop-color="#406CB1" offset="100%"></stop>
        </linearGradient>
    </defs>
    <g id="Page-1" stroke="none" stroke-width="1" fill="none" fill-rule="evenodd">
        <g id="chrome" transform="translate(50.000000, 50.000000)" fill-rule="nonzero">
            <path d="M99.2424658,0.0178082192 C99.2424658,0.0178082192 157.908219,-2.62283105 189.000457,56.3360731 L94.2538813,56.3360731 C94.2538813,56.3360731 76.3598174,55.7474886 61.1063927,77.4570776 C56.7073059,86.5511416 52.0150685,95.9378995 57.2940639,114.414612 C49.6680365,101.510959 16.8141553,44.3105023 16.8141553,44.3105023 C16.8141553,44.3105023 39.9899543,2.36347032 99.2424658,0.0178082192 Z" id="Shape" fill="#C6352E"></path>
            <path d="M185.946575,149.712785 C185.946575,149.712785 158.893151,201.832877 92.2853881,199.271233 C100.502283,185.048402 139.669863,117.224658 139.669863,117.224658 C139.669863,117.224658 149.126027,102.024201 137.960274,77.9593607 C132.284018,69.6009132 126.503653,60.8424658 107.860274,56.1726027 C122.853881,56.0237443 188.812329,56.1821918 188.812329,56.1821918 C188.812329,56.1821918 213.546575,97.2283105 185.946575,149.712785 Z" id="Shape" fill="#F4D911"></path>
            <path d="M12.9557078,150.108676 C12.9557078,150.108676 -18.6534247,100.613242 16.873516,44.2146119 C25.083105,58.4429224 64.2296804,126.278539 64.2296804,126.278539 C64.2296804,126.278539 72.6630137,142.06758 99.0885845,144.431963 C109.1621,143.69726 119.639726,143.07032 133.005936,129.261644 C125.63653,142.318265 92.5159817,199.362557 92.5159817,199.362557 C92.5159817,199.362557 44.6031963,200.255708 12.9557078,150.108676 Z" id="Shape" fill="#81B354"></path>
            <path d="M92.2853881,199.753425 L105.612785,144.140183 C105.612785,144.140183 120.266667,142.996804 132.545205,129.520548 C124.922831,142.929224 92.2853881,199.753425 92.2853881,199.753425 Z" id="Shape" fill="#7BAA50"></path>
            <path d="M54.6073059,100.499087 C54.6073059,75.983105 74.4794521,56.1086758 98.9977169,56.1086758 C123.513699,56.1086758 143.387671,75.9826484 143.387671,100.499087 C143.387671,125.016438 123.514612,144.891324 98.9977169,144.891324 C74.4794521,144.891324 54.6073059,125.016895 54.6073059,100.499087 Z" id="Shape" fill="#FFFFFF"></path>
            <path d="M62.0365297,100.499087 C62.0365297,80.0872146 78.5835616,63.539726 98.9977169,63.539726 C119.407763,63.539726 135.956621,80.0872146 135.956621,100.499087 C135.956621,120.911416 119.407763,137.460274 98.9977169,137.460274 C78.5835616,137.460731 62.0365297,120.910502 62.0365297,100.499087 Z" id="Shape" fill="url(#linearGradient-1)"></path>
            <path d="M188.812785,56.1821918 L133.934703,72.2721461 C133.934703,72.2721461 125.659361,60.1278539 107.859817,56.1726027 C123.282648,56.1200913 188.812785,56.1821918 188.812785,56.1821918 Z" id="Shape" fill="#E7CE12"></path>
            <path d="M56.2269406,112.418721 C48.5146119,99.0625571 16.8159817,44.3091324 16.8159817,44.3091324 L57.4684932,84.5237443 C57.4684932,84.5237443 53.2908676,93.1173516 54.8748858,105.391324 L56.2269406,112.418721 Z" id="Shape" fill="#BC332C"></path>
        </g>
    </g>
</svg>
