<?xml version="1.0" encoding="UTF-8"?>
<svg width="241px" height="231px" viewBox="0 0 241 231" version="1.1" xmlns="http://www.w3.org/2000/svg" xmlns:xlink="http://www.w3.org/1999/xlink">
    <!-- Generator: Sketch 50.2 (55047) - http://www.bohemiancoding.com/sketch -->
    <title>Fill 5</title>
    <desc>Created with Sketch.</desc>
    <defs></defs>
    <g id="Page-1" stroke="none" stroke-width="1" fill="none" fill-rule="evenodd">
        <path d="M150.523722,230.582 C150.523722,230.582 175.746722,32.426 238.797722,0 C238.797722,52.243 231.590722,57.645 240.598722,97.278 C249.605722,136.911 177.547722,208.965 150.523722,230.582" id="Fill-3" fill="#FFFFFF"></path>
        <path d="M164.512722,211.047 C164.512722,211.047 183.262722,59.059 230.133722,34.188 C230.133722,74.258 224.773722,78.403 231.473722,108.801 C238.168722,139.2 184.602722,194.465 164.512722,211.047" id="Fill-4" fill="#E37171"></path>
        <path d="M90.844722,230.582 C90.844722,230.582 65.625722,32.426 2.57472202,0 C2.57472202,52.243 9.78172202,57.645 0.773722016,97.278 C-8.23327798,136.911 63.824722,208.965 90.844722,230.582" id="Fill-5" fill="#FFFFFF"></path>
        <path d="M76.859722,211.047 C76.859722,211.047 58.109722,59.059 11.238722,34.188 C11.238722,74.258 16.594722,78.403 9.89872202,108.801 C3.20372202,139.2 56.769722,194.465 76.859722,211.047" id="Fill-6" fill="#E37171"></path>
    </g>
</svg>