<?xml version="1.0" encoding="UTF-8"?>
<svg width="300px" height="300px" viewBox="0 0 300 300" version="1.1" xmlns="http://www.w3.org/2000/svg" xmlns:xlink="http://www.w3.org/1999/xlink">
    <!-- Generator: Sketch 50.2 (55047) - http://www.bohemiancoding.com/sketch -->
    <title>Oval-2</title>
    <desc>Created with Sketch.</desc>
    <defs></defs>
    <g id="Page-1" stroke="none" stroke-width="1" fill="none" fill-rule="evenodd">
        <path d="M129.717245,99.4625289 C121.814273,108.442691 117.715577,118.814309 116.164094,130.543475 C139.944135,130.543475 163.470697,130.543475 187.172999,130.543475 C187.172999,128.807567 187.266865,127.044367 187.156872,125.2944 C186.676789,117.635397 185.030198,110.284458 180.847561,103.72456 C175.243281,94.9354388 166.830453,90.5609332 156.819,88.9474234 C142.291623,86.6065523 128.274515,89.0863622 114.654788,94.0484632 C94.7294714,101.307603 77.9976804,113.170333 64.6835365,129.730931 C62.4460425,132.51467 60.4545859,135.496479 58,138.866573 C58.2034461,137.19145 58.320469,135.983179 58.4999317,134.784004 C61.3692666,115.603003 68.2760976,98.1058078 80.7086416,83.081393 C95.3195479,65.4249972 114.149481,54.9648884 136.734897,51.3202252 C158.734785,47.769842 179.543769,51.3392466 198.85916,62.5258897 C216.637955,72.8230763 228.89269,87.9128253 236.207654,107.035522 C240.42668,118.064205 242.487606,129.527072 242.594705,141.337285 C242.662107,148.776302 242.730749,156.215318 242.79691,163.654335 C242.803527,164.397409 242.797737,165.140484 242.797737,166.170533 C200.763367,166.170533 158.915488,166.170533 116.928257,166.170533 C116.976224,176.494184 119.98119,185.388337 126.912831,192.777319 C134.965908,201.36134 145.300723,205.531159 156.623824,207.181471 C180.392288,210.646258 202.779634,206.306074 223.662636,194.376356 C224.197302,194.071187 224.729901,193.761882 225.267462,193.461262 C225.320391,193.431489 225.398957,193.447616 225.718186,193.424046 C225.762018,194.143551 225.844306,194.863469 225.844719,195.583387 C225.850095,208.263209 225.820322,220.943444 225.877387,233.622853 C225.884003,235.077162 225.413844,235.832642 224.128246,236.473166 C209.154279,243.936166 193.305742,248.197784 176.651277,249.488344 C166.041479,250.310812 155.462693,250.317015 144.957098,248.187033 C113.349342,241.778893 88.1381473,218.636067 82.3535781,186.082618 C75.7523297,148.934676 93.432709,114.63622 128.952255,99.468318 C129.062662,99.421178 129.211111,99.4625289 129.717245,99.4625289" id="Fill-2" fill="#008EC4"></path>
    </g>
</svg>