<?xml version="1.0" encoding="UTF-8"?>
<svg width="72px" height="103px" viewBox="0 0 72 103" version="1.1" xmlns="http://www.w3.org/2000/svg" xmlns:xlink="http://www.w3.org/1999/xlink">
    <!-- Generator: Sketch 52.4 (67378) - http://www.bohemiancoding.com/sketch -->
    <title>fingerprint-outline-variant</title>
    <desc>Created with Sketch.</desc>
    <g id="Page-1" stroke="none" stroke-width="1" fill="none" fill-rule="evenodd">
        <g id="fingerprint-outline-variant" fill="#C594C5" fill-rule="nonzero">
            <path d="M69.7658619,41 C69.3127752,41 68.8563957,40.8646867 68.4622498,40.5849961 C66.8698607,39.4549035 65.7634862,36.0196292 65.1042714,33.2635112 C65.0061465,32.9932083 64.9162536,32.6416527 64.7693956,32.0677042 C64.2013908,29.8521919 62.6959312,23.9647689 59.308647,18.3088028 C58.6833479,17.2641713 59.0383097,15.9188075 60.1008902,15.3037471 C61.1644586,14.6890104 62.5316214,15.0366814 63.1569205,16.0819604 C66.8695315,22.2814456 68.4889213,28.6133307 69.0987444,30.9971754 C69.1695392,31.2784846 69.2508709,31.5902231 69.29236,31.7323345 C69.3430688,31.8501671 69.38357,31.9715606 69.4128757,32.0961912 C69.9054758,34.193871 70.7349274,36.5404883 71.1741845,37.1001933 C72.0879313,37.8285543 72.2743027,39.1396041 71.5778795,40.0877683 C71.1402688,40.6837295 70.4576753,41 69.7658619,41 Z" id="Shape"></path>
            <path d="M56.7989647,13 C56.2171528,13 55.6350164,12.7633065 55.2031192,12.2925977 C50.9146493,7.63070625 45.6166887,5.03276888 39.4568806,4.56942541 C37.5057176,4.4686549 35.544171,4.6166302 33.6283776,5.00832952 C32.4387944,5.25138397 31.2790645,4.45392433 31.0425107,3.22392151 C30.8059569,1.99458826 31.5805164,0.799068368 32.7720465,0.556013918 C35.0506206,0.090326949 37.3837091,-0.084431209 39.7047915,0.0377655873 C39.7190691,0.0387699446 39.7359426,0.0401090875 39.7515182,0.0411134448 C47.0483419,0.584135921 53.3210728,3.65579512 58.3951348,9.16938152 C59.2323209,10.0789944 59.1956535,11.51556 58.3149855,12.3783029 C57.8873067,12.793772 57.3421622,13 56.7989647,13 Z" id="Shape"></path>
            <path d="M2.20159382,29 C2.0281083,29 1.87001521,28.9744922 1.70935671,28.9384624 C0.880730844,28.7579946 0.232645367,28.1142413 0.0495395743,27.2909767 C-0.132604192,26.4673933 0.197691722,25.5978958 0.873034628,25.0883772 C1.03722056,24.9646644 1.21359216,24.8674158 1.39541525,24.7953563 C1.93382966,24.4828856 3.49808545,23.3988036 4.82087248,21.6594898 L5.33074676,20.9867213 C6.11544006,19.9498288 7.09093537,18.6594524 8.23831282,17.2479139 C11.9956693,12.6281306 15.7068486,9.0758491 19.5812517,6.3889201 C20.5654053,5.70562962 21.9218632,5.94635958 22.6084298,6.92522182 C23.2965997,7.90504059 23.0535276,9.25249069 22.0690533,9.93482462 C18.533925,12.3861252 15.1164847,15.6677051 11.6207995,19.9673654 C10.5215234,21.3192794 9.5723235,22.5752202 8.80815344,23.5850106 L8.2912243,24.2683011 C7.11145861,25.8185383 5.83356617,26.9306789 4.97062801,27.5913312 C3.48269302,28.7261099 2.76341755,29 2.20159382,29 Z" id="Shape"></path>
            <path d="M2.13777069,52 C1.19750255,52 0.335117118,51.3464128 0.0756132019,50.3525254 C-0.234656365,49.1626277 0.438224993,47.9338575 1.57588007,47.6106876 C5.5220423,46.4886523 9.35469127,44.6211191 11.8756315,43.2520121 C12.9227913,42.683747 14.213374,43.1087104 14.7582376,44.2030737 C15.3034165,45.2977663 14.8953994,46.6461194 13.847609,47.216361 C11.1418944,48.6856145 7.01127316,50.695461 2.69997662,51.9212665 C2.51204912,51.9739751 2.32317568,52 2.13777069,52 Z" id="Shape"></path>
            <path d="M18.2256401,44 C17.5156205,44 16.8167514,43.6648259 16.3874601,43.0442528 C15.694494,42.043902 15.956529,40.6805806 16.9699057,39.9985966 C24.9145823,34.6545576 31.8212856,27.4736869 31.8826129,27.4058118 C37.7877459,20.7394996 44.2340023,17.827008 49.5517704,19.4320944 C54.9577579,21.0643308 57.0756824,24.54859 57.9004858,27.1840862 C58.2628746,28.3405499 57.6043437,29.5671514 56.4315815,29.9239809 C55.2565237,30.2808104 54.0129235,29.6314712 53.6515186,28.4756539 C52.9119832,26.1145673 51.0947922,24.4816844 48.2497945,23.623225 C44.1129875,22.3749682 38.8066978,26.2551659 35.2208529,30.3044051 C34.4760702,31.1450877 27.3050362,38.354078 19.4787509,43.6173133 C19.0937334,43.8765318 18.6565712,44 18.2256401,44 Z" id="Shape"></path>
            <path d="M6.20443294,74 C5.34947661,74 4.53544905,73.5019107 4.17780964,72.6700403 C3.69965777,71.5599114 4.21906323,70.2715937 5.33778268,69.7967464 C14.6513495,65.8397936 27.8388559,57.658282 33.0770876,54.3243443 C43.5200933,47.6780968 50.507867,40.9482426 52.7521274,35.3762927 C53.2046176,34.2538971 54.4873769,33.7086782 55.6145419,34.1567326 C56.7439808,34.6057554 57.2942453,35.8795468 56.8414303,37.0029108 C53.531398,45.2221907 43.3830144,52.962104 35.452255,58.0098174 C30.1214464,61.4034742 16.6864184,69.7360589 7.06848455,73.822134 C6.7858812,73.9425406 6.49255842,74 6.20443294,74 Z" id="Shape"></path>
            <path d="M26.8577162,21.373817 C28.9768083,19.3784967 31.0198168,17.7750215 33.5451288,16.3003185 C36.0714333,14.8269163 38.9682314,13.7047112 41.7561971,13.4188757 C42.973203,13.2940056 44,12.5103156 44,11.2138127 C44,10.1059157 42.9751878,8.88452994 41.7561971,9.00874968 C34.7449332,9.7287039 28.6843829,13.5495991 23.6850325,18.2546658 C21.5924043,20.2259225 24.7690576,23.3392205 26.8577162,21.373817 Z" id="Shape"></path>
            <path d="M3.8467606,39.9157381 C6.91818102,39.0221175 9.59087076,37.2788827 12.4108454,35.8546147 C15.3834124,34.3542186 18.0013679,32.0193055 20.3426667,29.7290413 C22.3837564,27.731083 19.2045261,24.6490234 17.1607826,26.6479454 C15.0523532,28.7111105 12.7866872,30.6981475 10.1395401,32.0941486 C7.69474384,33.3841488 5.24099108,34.9619577 2.65123201,35.7161709 C1.47859229,36.0573014 0.749797535,37.2303792 1.07952989,38.3951055 C1.39864712,39.5183949 2.67312571,40.2581535 3.8467606,39.9157381 Z" id="Shape"></path>
            <path d="M36.1409606,45 C35.5459867,45 34.9538534,44.7513717 34.5315324,44.2646071 C33.7515958,43.3702446 33.8402895,42.0085118 34.7297519,41.2232025 C38.4163808,37.9665532 41.5736882,34.4946592 44.117399,30.9041739 C44.8045387,29.9347779 46.1406261,29.7096771 47.1030003,30.4005586 C48.0653746,31.0923938 48.287898,32.4382297 47.6020209,33.4073078 C44.8657721,37.268995 41.4849944,40.9891994 37.5509068,44.4642728 C37.1453145,44.822908 36.6421906,45 36.1409606,45 Z" id="Shape"></path>
            <path d="M3.21078961,63 C2.31908989,63 1.47953636,62.477415 1.1435194,61.6266077 C0.71200974,60.529085 1.28626957,59.3030322 2.42729322,58.8870332 C2.44912944,58.8782555 2.50974937,58.8578788 2.60915303,58.824649 C4.78136744,58.1080147 10.5982741,56.0361704 17.6816811,52.3153774 C20.0696503,51.0595432 22.3911332,49.7256504 24.5793173,48.3469288 C25.6017084,47.7042777 26.9711975,47.9801474 27.6393205,48.9619928 C28.3074435,49.9454057 28.0206395,51.2626837 26.9998779,51.9053347 C24.7132678,53.3436192 22.2910777,54.7370748 19.799142,56.0471425 C12.4181758,59.9240526 6.32163529,62.0933918 4.0444767,62.8454503 L3.96690925,62.8711563 C3.71693349,62.9592465 3.46206902,63 3.21078961,63 Z" id="Shape"></path>
            <path d="M63.8098504,80 C63.5796898,80 63.3450035,79.9631519 63.1161359,79.8848906 C59.4568403,78.6542309 55.4674969,75.7885611 51.6087502,73.0164788 C47.9494546,70.3875497 43.3973167,67.1129643 41.5330801,67.4370968 C39.7166859,67.7540552 34.1960631,71.352773 32.3816085,72.5345194 C31.3639881,73.1974582 30.0082384,72.9039782 29.3510522,71.877124 C28.693866,70.8515742 28.9864157,69.4823267 30.002743,68.8206922 C35.821411,65.0276254 38.8451788,63.4173982 40.7863511,63.0802222 C44.4466165,62.445327 48.9447701,65.6736077 54.1508616,69.4154785 C57.7448589,71.9977769 61.4629877,74.6681194 64.5019487,75.6913866 C65.649196,76.0774759 66.2698539,77.3293314 65.8867916,78.4866211 C65.5822813,79.4140181 64.7269372,80 63.8098504,80 Z" id="Shape"></path>
            <path d="M11.1760503,85 C10.2151733,85 9.33648286,84.3512016 9.07547617,83.3664589 C8.76278181,82.1901661 9.45013152,80.9813522 10.6113384,80.6632946 C13.2897871,79.9331931 19.5741732,75.7376299 24.6247971,72.3651788 C25.6290147,71.6929651 26.9789939,71.9755745 27.6406603,72.9928385 C28.3020057,74.0091267 28.0246259,75.3766443 27.0210504,76.0469067 C20.0412885,80.7065479 14.8596797,84.0721694 11.7433305,84.9225995 C11.5539161,84.973983 11.3625754,85 11.1760503,85 Z" id="Shape"></path>
            <path d="M57.8693003,92 C57.6273513,92 57.3835171,91.9550057 57.1447104,91.8602084 C55.4058203,91.1749894 53.1754911,89.7513137 51.0218314,88.3183644 C50.0166436,87.6486015 49.699282,86.2156522 50.3120098,85.1179278 C50.923795,84.0188296 52.2347183,83.6708963 53.2402203,84.3410028 C55.1079403,85.5857315 57.2056689,86.9314399 58.5929475,87.4806455 C59.6993139,87.9175371 60.2727643,89.2515675 59.8724488,90.4612625 C59.557601,91.4095782 58.7406306,92 57.8693003,92 Z" id="Shape"></path>
            <path d="M19.2139872,94 C18.5199598,94 17.8366951,93.6849389 17.4058633,93.0976649 C16.7004211,92.1335778 16.9381776,90.8011842 17.9358419,90.119707 C18.6425887,89.6367183 19.6614522,88.9186939 20.841103,88.0872476 C30.481495,81.2882282 36.2232015,77.5178915 38.9588694,77.061683 C40.8482023,76.7459917 43.2756673,77.6161906 47.9143661,80.2715259 C48.9648652,80.8720324 49.3138357,82.1820566 48.6912331,83.1978137 C48.0686306,84.2126257 46.7125377,84.5487959 45.6620386,83.9482894 C41.3184972,81.4630871 40.0348075,81.2507359 39.6877938,81.2765709 C37.4778647,81.6455075 27.2862949,88.8336274 23.4499022,91.5387424 C22.2545966,92.3809008 21.2239921,93.108692 20.4888711,93.6099543 C20.1004375,93.8717701 19.6536248,94 19.2139872,94 Z" id="Shape"></path>
            <path d="M28.1665068,103 C27.6230315,103 27.0801953,102.792605 26.6594093,102.374539 C25.7993061,101.52137 25.7782189,100.115147 26.6102057,99.2328179 C27.7815052,97.9917251 33.8185221,91.7675854 37.6081521,91.097238 C40.9734815,90.4996262 44.0458263,92.7475508 47.5993432,95.3480138 C48.6808622,96.1382767 49.7991242,96.9567165 51.0170712,97.77188 C52.0199924,98.4422274 52.3008359,99.81929 51.6480904,100.846435 C50.9943864,101.874563 49.6515136,102.163868 48.6498704,101.49352 C47.3565206,100.627573 46.1494367,99.7429503 45.0832538,98.9638271 C42.3195494,96.9409899 39.9312614,95.1953345 38.346844,95.4744821 C36.7474099,95.7582166 32.6258159,99.250838 29.724086,102.324083 C29.2972294,102.772292 28.7320279,103 28.1665068,103 Z" id="Shape"></path>
            <path d="M58.0332133,45.7773377 C58.9394621,51.5103809 62.9881862,54.613552 67.8252655,56.7433964 C68.890999,57.2121317 70.0874475,57.0892435 70.7263248,55.9513055 C71.2529372,55.013183 71.030284,53.3967308 69.9651759,52.9273436 C68.1973966,52.1492691 66.349875,51.3311011 64.8616632,50.0412642 C63.2242862,48.6213678 62.4634501,46.7562056 62.121965,44.6025658 C61.679473,41.7937397 57.5922848,42.9903511 58.0332133,45.7773377 Z" id="Shape"></path>
            <path d="M50.1162891,54.739518 C52.723693,61.089054 58.7111366,65.8880886 65.304683,67.8932891 C68.0108448,68.7153799 69.1575345,64.5434285 66.4688005,63.7267546 C64.8254164,63.2274459 63.578355,62.5936713 61.8387948,61.5788034 C58.6546573,59.7217705 55.7487204,57.0295825 54.3373852,53.5914586 C53.8887788,52.5010731 52.8970035,51.7423917 51.6447784,52.0817431 C50.5952329,52.3653325 49.6663917,53.6456274 50.1162891,54.739518 Z" id="Shape"></path>
        </g>
    </g>
</svg>