<?xml version="1.0" encoding="UTF-8"?>
<svg width="300px" height="300px" viewBox="0 0 300 300" version="1.1" xmlns="http://www.w3.org/2000/svg" xmlns:xlink="http://www.w3.org/1999/xlink">
    <!-- Generator: Sketch 50.2 (55047) - http://www.bohemiancoding.com/sketch -->
    <title>Oval-2</title>
    <desc>Created with Sketch.</desc>
    <defs>
        <radialGradient cx="86.8496638%" cy="30.0272996%" fx="86.8496638%" fy="30.0272996%" r="184.024457%" gradientTransform="translate(0.868497,0.300273),scale(1.000000,0.362882),rotate(2.554810),translate(-0.868497,-0.300273)" id="radialGradient-1">
            <stop stop-color="#FFEA00" offset="4.5%"></stop>
            <stop stop-color="#FFDE00" offset="12%"></stop>
            <stop stop-color="#FFBF00" offset="25.4%"></stop>
            <stop stop-color="#FF8E00" offset="42.9%"></stop>
            <stop stop-color="#FF272D" offset="76.9%"></stop>
            <stop stop-color="#E0255A" offset="87.2%"></stop>
            <stop stop-color="#CC2477" offset="95.3%"></stop>
            <stop stop-color="#C42482" offset="100%"></stop>
        </radialGradient>
        <radialGradient cx="70.8275826%" cy="12.3927561%" fx="70.8275826%" fy="12.3927561%" r="109.233694%" gradientTransform="translate(0.708276,0.123928),scale(1.000000,0.994695),translate(-0.708276,-0.123928)" id="radialGradient-2">
            <stop stop-color="#00CCDA" offset="0%"></stop>
            <stop stop-color="#0083FF" offset="22%"></stop>
            <stop stop-color="#007AF9" offset="26.1%"></stop>
            <stop stop-color="#0060E8" offset="33%"></stop>
            <stop stop-color="#005FE7" offset="33.3%"></stop>
            <stop stop-color="#2639AD" offset="43.8%"></stop>
            <stop stop-color="#401E84" offset="52.2%"></stop>
            <stop stop-color="#4A1475" offset="56.6%"></stop>
        </radialGradient>
        <linearGradient x1="57.3392895%" y1="75.2198361%" x2="35.1458962%" y2="6.80511416%" id="linearGradient-3">
            <stop stop-color="#000F43" stop-opacity="0.4" offset="0%"></stop>
            <stop stop-color="#001962" stop-opacity="0.173" offset="48.5%"></stop>
            <stop stop-color="#002079" stop-opacity="0" offset="100%"></stop>
        </linearGradient>
        <radialGradient cx="147.72731%" cy="-21.6638402%" fx="147.72731%" fy="-21.6638402%" r="171.815161%" gradientTransform="translate(1.477273,-0.216638),scale(0.923323,1.000000),rotate(5.761779),translate(-1.477273,0.216638)" id="radialGradient-4">
            <stop stop-color="#FFEA00" offset="0.3%"></stop>
            <stop stop-color="#FF272D" offset="49.7%"></stop>
            <stop stop-color="#C42482" offset="100%"></stop>
        </radialGradient>
        <radialGradient cx="135.976%" cy="-52.1307456%" fx="135.976%" fy="-52.1307456%" r="453.896488%" gradientTransform="translate(1.359760,-0.521307),scale(1.000000,0.541483),rotate(5.761779),translate(-1.359760,0.521307)" id="radialGradient-5">
            <stop stop-color="#FFE900" offset="0.3%"></stop>
            <stop stop-color="#FFAF0E" offset="15.7%"></stop>
            <stop stop-color="#FF7A1B" offset="31.6%"></stop>
            <stop stop-color="#FF4E26" offset="47.2%"></stop>
            <stop stop-color="#FF2C2E" offset="62.1%"></stop>
            <stop stop-color="#FF1434" offset="76.2%"></stop>
            <stop stop-color="#FF0538" offset="89.2%"></stop>
            <stop stop-color="#FF0039" offset="100%"></stop>
        </radialGradient>
        <radialGradient cx="211.883445%" cy="2.14494548%" fx="211.883445%" fy="2.14494548%" r="377.539423%" gradientTransform="translate(2.118834,0.021449),scale(0.533470,1.000000),rotate(5.761779),translate(-2.118834,-0.021449)" id="radialGradient-6">
            <stop stop-color="#FF272D" offset="0.3%"></stop>
            <stop stop-color="#C42482" offset="49.7%"></stop>
            <stop stop-color="#620700" offset="98.6%"></stop>
        </radialGradient>
        <radialGradient cx="76.8453227%" cy="39.179475%" fx="76.8453227%" fy="39.179475%" r="84.0433431%" gradientTransform="translate(0.768453,0.391795),scale(1.000000,0.959470),translate(-0.768453,-0.391795)" id="radialGradient-7">
            <stop stop-color="#FFEA00" offset="15.6%"></stop>
            <stop stop-color="#FFDE00" offset="23.1%"></stop>
            <stop stop-color="#FFBF00" offset="36.5%"></stop>
            <stop stop-color="#FF8E00" offset="54.1%"></stop>
            <stop stop-color="#FF272D" offset="76.3%"></stop>
            <stop stop-color="#F92433" offset="79.6%"></stop>
            <stop stop-color="#E91C45" offset="84.1%"></stop>
            <stop stop-color="#CF0E62" offset="89.3%"></stop>
            <stop stop-color="#B5007F" offset="93.5%"></stop>
        </radialGradient>
        <radialGradient cx="24.9534176%" cy="0.138231601%" fx="24.9534176%" fy="0.138231601%" r="249.815176%" gradientTransform="translate(0.249534,0.001382),scale(1.000000,0.396485),translate(-0.249534,-0.001382)" id="radialGradient-8">
            <stop stop-color="#FFEA00" offset="27.9%"></stop>
            <stop stop-color="#FFDD00" offset="40.2%"></stop>
            <stop stop-color="#FFBA00" offset="63%"></stop>
            <stop stop-color="#FF9100" offset="85.6%"></stop>
            <stop stop-color="#FF6711" offset="93.3%"></stop>
            <stop stop-color="#FF4A1D" offset="99.4%"></stop>
        </radialGradient>
        <linearGradient x1="-121.602561%" y1="64.455333%" x2="142.342359%" y2="29.6659057%" id="linearGradient-9">
            <stop stop-color="#C42482" stop-opacity="0.5" offset="0%"></stop>
            <stop stop-color="#FF272D" stop-opacity="0.5" offset="47.4%"></stop>
            <stop stop-color="#FF2C2C" stop-opacity="0.513" offset="48.6%"></stop>
            <stop stop-color="#FF7A1A" stop-opacity="0.72" offset="67.5%"></stop>
            <stop stop-color="#FFB20D" stop-opacity="0.871" offset="82.9%"></stop>
            <stop stop-color="#FFD605" stop-opacity="0.964" offset="94.2%"></stop>
            <stop stop-color="#FFE302" offset="100%"></stop>
        </linearGradient>
        <linearGradient x1="56.497619%" y1="94.8929888%" x2="19.4899942%" y2="5.47775928%" id="linearGradient-10">
            <stop stop-color="#891551" stop-opacity="0.6" offset="0%"></stop>
            <stop stop-color="#C42482" stop-opacity="0" offset="100%"></stop>
        </linearGradient>
        <linearGradient x1="8.03963742%" y1="6.68641317%" x2="47.9144739%" y2="47.8860609%" id="linearGradient-11">
            <stop stop-color="#891551" stop-opacity="0.5" offset="0.5%"></stop>
            <stop stop-color="#FF272D" stop-opacity="0.5" offset="48.4%"></stop>
            <stop stop-color="#FF272D" stop-opacity="0" offset="100%"></stop>
        </linearGradient>
        <linearGradient x1="47.5090137%" y1="102.675292%" x2="50.0086151%" y2="31.7488679%" id="linearGradient-12">
            <stop stop-color="#C42482" offset="0%"></stop>
            <stop stop-color="#C42482" stop-opacity="0.81" offset="8.3%"></stop>
            <stop stop-color="#C42482" stop-opacity="0.565" offset="20.6%"></stop>
            <stop stop-color="#C42482" stop-opacity="0.362" offset="32.8%"></stop>
            <stop stop-color="#C42482" stop-opacity="0.204" offset="44.7%"></stop>
            <stop stop-color="#C42482" stop-opacity="0.091" offset="56.2%"></stop>
            <stop stop-color="#C42482" stop-opacity="0.023" offset="67.3%"></stop>
            <stop stop-color="#C42482" stop-opacity="0" offset="77.3%"></stop>
        </linearGradient>
        <linearGradient x1="6.33406996%" y1="1.6470824%" x2="92.3513585%" y2="89.4608567%" id="linearGradient-13">
            <stop stop-color="#FFF14F" offset="0%"></stop>
            <stop stop-color="#FFEE4C" offset="26.8%"></stop>
            <stop stop-color="#FFE643" offset="45.2%"></stop>
            <stop stop-color="#FFD834" offset="61.2%"></stop>
            <stop stop-color="#FFC41E" offset="75.7%"></stop>
            <stop stop-color="#FFAB02" offset="89.2%"></stop>
            <stop stop-color="#FFA900" offset="90.2%"></stop>
            <stop stop-color="#FFA000" offset="94.9%"></stop>
            <stop stop-color="#FF9100" offset="100%"></stop>
        </linearGradient>
        <linearGradient x1="71.7885226%" y1="7.15860627%" x2="42.7455484%" y2="81.9478615%" id="linearGradient-14">
            <stop stop-color="#FF8E00" offset="0%"></stop>
            <stop stop-color="#FF8E00" stop-opacity="0.858" offset="4%"></stop>
            <stop stop-color="#FF8E00" stop-opacity="0.729" offset="8.4%"></stop>
            <stop stop-color="#FF8E00" stop-opacity="0.628" offset="13%"></stop>
            <stop stop-color="#FF8E00" stop-opacity="0.557" offset="17.8%"></stop>
            <stop stop-color="#FF8E00" stop-opacity="0.514" offset="22.7%"></stop>
            <stop stop-color="#FF8E00" stop-opacity="0.5" offset="28.2%"></stop>
            <stop stop-color="#FF8E00" stop-opacity="0.478" offset="38.9%"></stop>
            <stop stop-color="#FF8E00" stop-opacity="0.416" offset="52.4%"></stop>
            <stop stop-color="#FF8E00" stop-opacity="0.314" offset="67.6%"></stop>
            <stop stop-color="#FF8E00" stop-opacity="0.172" offset="83.8%"></stop>
            <stop stop-color="#FF8E00" stop-opacity="0" offset="100%"></stop>
        </linearGradient>
    </defs>
    <g id="Page-1" stroke="none" stroke-width="1" fill="none" fill-rule="evenodd">
        <g id="Firefox_Logo,_2017" transform="translate(53.000000, 50.000000)" fill-rule="nonzero">
            <path d="M156.561992,18.6093496 C151.694715,24.2768293 149.427846,37.0319106 154.363211,49.9621951 C159.298577,62.8924797 166.863211,60.0841463 171.578659,73.2697154 C177.802846,90.6680894 174.905691,114.039837 174.905691,114.039837 C174.905691,114.039837 182.388211,135.708333 187.602439,112.691667 C199.143699,69.4593496 156.561992,29.2554878 156.561992,18.6093496 Z" id="Shape" fill="url(#radialGradient-1)"></path>
            <path d="M97.1691057,198.097154 C147.013821,198.097154 187.392683,157.499797 187.392683,107.441057 C187.392683,57.3823171 147.013821,16.7851626 97.2174797,16.7851626 C47.4211382,16.7851626 7.04268293,57.3825203 7.04268293,107.441057 C6.94613821,157.548171 47.372561,198.097154 97.1691057,198.097154 Z" id="_Path_" fill="url(#radialGradient-2)"></path>
            <path d="M164.771341,163.34065 C162.82098,164.716605 160.774932,165.951651 158.64878,167.036382 C161.46527,162.909566 164.063681,158.638064 166.433333,154.239431 C168.356098,152.111382 170.11748,150.042683 171.552846,147.805894 C172.251423,146.706911 173.039228,145.350813 173.873171,143.777642 C178.938415,134.651626 184.523577,119.882724 184.681911,104.712602 L184.681911,104.676016 C184.685569,104.302642 184.687805,103.929065 184.684756,103.555081 C184.71097,99.7471354 184.321675,95.9476938 183.52378,92.224187 C183.564431,92.5150407 183.600203,92.8056911 183.636789,93.0963415 C183.59187,92.8727642 183.554065,92.646748 183.505894,92.4227642 C183.580285,92.8361789 183.640041,93.2357724 183.704268,93.6388211 C184.739634,102.422764 184.002236,110.990854 180.313618,117.30752 C180.255488,117.399797 180.195732,117.486179 180.136992,117.576423 C182.049593,107.976016 182.689431,97.375813 180.561382,86.7634146 C180.561382,86.7634146 179.710366,81.6042683 173.371138,65.9420732 C169.722358,56.9272358 163.24248,49.5363821 157.51748,44.1520325 C152.499187,37.9434959 147.941463,33.7770325 145.429065,31.1317073 C140.180894,25.6054878 137.981301,21.4632114 137.078049,18.7603659 C136.294919,18.3676829 126.278252,8.63699187 125.48252,8.26626016 C121.110366,15.045122 107.360163,36.2489837 113.901016,56.0601626 C116.865244,65.0382114 124.361789,74.3563008 132.207317,79.5837398 C132.551829,79.9772358 136.875813,84.6735772 138.932114,95.2660569 C141.055285,106.209553 139.939024,114.74878 135.569106,127.376423 C130.429675,138.454675 117.262805,149.406504 104.934146,150.526829 C78.5772358,152.921341 68.928252,137.293496 68.928252,137.293496 C78.3461382,141.05874 88.7591463,140.271138 95.0916667,136.36748 C101.47378,132.419309 105.33435,129.492073 108.467683,130.646341 C111.557114,131.795325 114.016463,128.460163 111.809553,125.002642 C108.325582,119.636521 101.973085,116.870464 95.6713415,117.97561 C89.2825203,119.014024 83.4302846,124.075 75.0591463,119.173577 C74.5173466,118.859178 73.9929367,118.515723 73.4882114,118.144715 C72.9363821,117.781911 75.2821138,118.696951 74.7347561,118.284553 C73.1056911,117.399593 70.222561,115.471138 69.4745935,114.785163 C69.35,114.670935 70.7386179,115.228049 70.6140244,115.113618 C62.7867886,108.668089 63.7644309,104.314024 64.0103659,101.58313 C64.2073171,99.398374 65.629065,96.5987805 68.0247967,95.4632114 C69.1819106,96.0947154 69.9028455,96.5768293 69.9028455,96.5768293 C69.9028455,96.5768293 69.4093496,95.5684959 69.1424797,95.0369919 C69.2359756,94.9963415 69.3254065,95.0071138 69.4184959,94.9674797 C70.3664634,95.425 72.4626016,96.6138211 73.5662602,97.3388211 C75.0036585,98.3526423 75.4617886,99.2567073 75.4617886,99.2567073 C75.4617886,99.2567073 75.8402439,99.048374 75.5603659,98.1642276 C75.4587398,97.801626 75.0223577,96.6493902 73.5985772,95.4865854 L73.6876016,95.4965447 C74.5397722,95.9820996 75.3469639,96.5426513 76.0995935,97.1715447 C76.5010163,95.7119919 77.2229675,94.1880081 77.0642276,91.4617886 C76.9672764,89.5449187 77.0119919,89.0485772 76.674187,88.3083333 C76.371748,87.672561 76.8436992,87.4245935 77.3689024,88.0847561 C77.2790078,87.56749 77.1283722,87.0626424 76.920122,86.5806911 L76.9245935,86.5310976 C77.5800813,84.2473577 90.7961382,78.3073171 91.7581301,77.6130081 C93.3387167,76.4946413 94.6640924,75.0537143 95.646748,73.3853659 C96.3819106,72.2140244 96.9347561,70.5707317 97.0695122,68.0780488 C97.1416667,66.2804878 96.3054878,65.0833333 82.9420732,63.6841463 C79.2873984,63.324187 77.1430894,60.6760163 75.9245935,58.2323171 C75.7022358,57.7058943 75.4756098,57.2288618 75.2487805,56.7522358 C75.0322775,56.1950381 74.85847,55.6221798 74.7288618,55.0386179 C76.9136179,48.7636179 80.5845528,43.4579268 85.9823171,39.449187 C86.2764228,39.1813008 84.8071138,39.5178862 85.1010163,39.25 C85.4439024,38.9373984 87.6835366,38.0351626 88.1065041,37.8319106 C88.6231707,37.5880081 85.8947154,36.4294715 83.4861789,36.7115854 C81.0331301,36.9880081 80.5121951,37.2806911 79.2030488,37.8357724 C79.7463415,37.2949187 81.4739837,36.5859756 81.0689024,36.5906504 C78.4243902,36.9961382 75.1382114,38.5333333 72.329065,40.2743902 C72.3235915,39.9712157 72.3813934,39.6702305 72.4987805,39.3906504 C71.1896341,39.945935 67.9743902,42.1930894 67.0384146,44.0943089 C67.0787508,43.7298961 67.0968061,43.3633609 67.0924797,42.996748 C66.0951848,43.8285023 65.1954624,44.770705 64.4105691,45.8052846 L64.3615854,45.8497967 C56.7684959,42.7908537 50.0865854,42.5928862 44.4321138,43.9644309 C43.195122,42.7221545 42.5908537,43.6302846 39.7762195,37.4463415 C39.5849593,37.0739837 39.9229675,37.8140244 39.7762195,37.4463415 C39.3132114,36.2471545 40.0585366,39.0463415 39.7762195,37.4463415 C35.0436992,41.1804878 28.8168699,45.4123984 25.8278455,48.3995935 C25.7908537,48.5186992 29.3148374,47.4036585 25.8278455,48.3995935 C24.6067073,48.748374 24.6896341,49.4729675 24.504065,56.0215447 C24.4593496,56.5180894 24.4989837,57.074187 24.4587398,57.5211382 C22.070935,60.5634146 20.4447154,63.1396341 19.8296748,64.4745935 C16.7416667,69.7957317 13.3406504,78.0908537 10.0439024,91.2126016 C11.4980419,87.6558859 13.2512079,84.2289033 15.2845528,80.9684959 C12.5430894,87.9333333 9.89288618,98.8705285 9.36300813,115.713415 C10.0261848,112.237819 10.8765418,108.800566 11.9103659,105.416667 C11.2631582,119.390147 13.6728665,133.336559 18.9713415,146.282724 C20.8674797,150.921138 24.0038618,157.960569 29.3430894,165.672967 C46.1180894,183.323171 69.779065,194.311179 95.9796748,194.311179 C123.331707,194.311382 147.893293,182.344106 164.771341,163.34065 Z" id="Shape" fill="url(#linearGradient-3)"></path>
            <path d="M144.53252,176.160163 C177.636179,172.326829 192.290447,138.213008 173.471748,137.542276 C156.473171,136.998984 128.852439,177.969106 144.53252,176.160163 Z" id="Shape" fill="url(#radialGradient-4)"></path>
            <path d="M175.855081,130.573984 C198.630691,117.319106 192.692276,88.6878049 192.692276,88.6878049 C192.692276,88.6878049 183.902439,98.8987805 177.931098,115.17561 C172.03252,131.293293 162.161992,138.579675 175.855081,130.573984 Z" id="Shape" fill="url(#radialGradient-5)"></path>
            <path d="M103.551626,193.102033 C135.305081,203.23435 162.596341,178.219919 145.77378,169.86626 C130.478862,162.33252 88.4804878,188.310976 103.551626,193.102033 Z" id="Shape" fill="url(#radialGradient-6)"></path>
            <path d="M178.221341,142.730488 C178.993699,141.640447 180.038415,138.150203 180.961179,136.590041 C186.567276,127.54065 186.606911,120.325203 186.606911,120.159959 C189.992886,103.245528 189.685772,96.3388211 187.602846,83.5658537 C185.925813,73.2813008 178.594309,58.5471545 172.243089,51.4520325 C165.698374,44.1420732 170.30935,46.5237805 163.972358,41.1841463 C158.418089,35.0270325 153.032724,28.929878 150.099797,26.4778455 C128.905488,8.75894309 129.38435,4.9953252 129.79248,4.35365854 C129.723577,4.42906504 129.622358,4.54105691 129.493293,4.68760163 C129.242276,3.68699187 129.065041,2.84552846 129.065041,2.84552846 C129.065041,2.84552846 117.479675,14.4308943 115.04065,33.7398374 C113.448374,46.3457317 118.167276,59.4869919 125,67.8861789 C128.55796,72.2389639 132.578905,76.1917576 136.99187,79.6747967 L136.99187,79.6695122 C142.154472,87.0835366 144.995935,96.2323171 144.995935,106.07378 C144.995935,130.71687 125.007927,150.693902 100.35122,150.693902 C96.9908262,150.695644 93.6409014,150.319362 90.3646341,149.572154 C78.7313008,147.355081 72.0134146,141.486585 68.6630081,137.502642 C66.7428862,135.219309 65.9264228,133.554878 65.9264228,133.554878 C76.3497967,137.288821 87.8747967,136.507724 94.8833333,132.636585 C101.946138,128.720935 106.219512,125.818293 109.687602,126.962805 C113.106301,128.102236 115.828049,124.794715 113.386789,121.366057 C110.994309,117.942276 104.768902,113.038821 95.5254065,114.397358 C88.4544715,115.427236 81.9772358,120.446138 72.7123984,115.585366 C72.11572,115.275343 71.5354115,114.934783 70.9737805,114.565041 C70.3630081,114.205081 72.9591463,115.112805 72.353252,114.703659 C70.5504065,113.826016 67.3587398,111.913415 66.5315041,111.233333 C66.3934959,111.120122 67.9304878,111.672561 67.7916667,111.558537 C59.1288618,105.166463 60.2103659,100.848577 60.4829268,98.1402439 C60.7010163,95.9735772 62.2743902,93.1971545 64.925813,92.0711382 C66.2063008,92.6973577 67.0042683,93.1754065 67.0042683,93.1754065 C67.0042683,93.1754065 66.4579268,92.1754065 66.1626016,91.648374 C66.2660569,91.6089431 66.3646341,91.6189024 66.4674797,91.5794715 C67.5166667,92.0331301 69.8365854,93.2113821 71.0581301,93.9310976 C72.6489837,94.9365854 73.1560976,95.8331301 73.1560976,95.8331301 C73.1560976,95.8331301 73.575,95.626626 73.2650407,94.7497967 C73.1518293,94.3902439 72.6697154,93.247561 71.0939024,92.0943089 L71.1924797,92.1042683 C72.1279264,92.5810929 73.0210003,93.1368332 73.8619919,93.7654472 C74.3063008,92.3180894 75.1054878,90.8067073 74.9296748,88.1030488 C74.8223577,86.2022358 74.8719512,85.7097561 74.4979675,84.975813 C74.1632114,84.3457317 74.6857724,84.0993902 75.2666667,84.7546748 C75.1661323,84.2378431 74.9991643,83.7361874 74.7699187,83.2621951 L74.775,83.2130081 C75.5006098,80.9481707 90.1276423,75.0575203 91.1922764,74.3689024 C92.9078488,73.2920154 94.3748939,71.8627289 95.4961382,70.175813 C96.3091463,69.0142276 96.921748,67.3845528 97.070935,64.9126016 C97.120935,63.7987805 96.7780488,62.9172764 92.9042683,62.074187 C90.5792683,61.5680894 86.9823171,61.0756098 81.4341463,60.5550813 C77.3894309,60.1981707 75.0160569,57.5721545 73.6674797,55.1485772 C73.4213415,54.6264228 73.1705285,54.1526423 72.9195122,53.6806911 C72.6808944,53.1312425 72.4884277,52.5628845 72.3441057,51.9815041 C74.7644427,45.6453189 79.1232563,40.2349103 84.799187,36.5215447 C85.1243902,36.2556911 83.498374,36.5896341 83.8235772,36.3239837 C84.203252,36.0140244 86.6819106,35.1193089 87.1502033,34.9176829 C87.7219512,34.676626 84.7022358,33.527439 82.0365854,33.8067073 C79.321748,34.0808943 78.745122,34.370935 77.2961382,34.921748 C77.897561,34.3853659 79.8095528,33.6819106 79.3613821,33.6869919 C76.4345528,34.0890244 72.7963415,35.6136179 69.6865854,37.3400407 C69.6808926,37.0373384 69.7451633,36.7374087 69.8743902,36.4636179 C68.4254065,37.0142276 64.8668699,39.2428862 63.8308943,41.128252 C63.8754464,40.7672878 63.8954112,40.4037127 63.8906504,40.0400407 C62.7995459,40.8532272 61.8040429,41.7873637 60.9231707,42.8245935 L60.8689024,42.8689024 C52.4650407,39.8353659 45.0697154,39.6390244 38.8115854,40.9989837 C37.4424797,39.7670732 35.2412602,37.9042683 32.1262195,31.7713415 C31.9146341,31.4020325 31.8010163,32.5345528 31.6384146,32.1699187 C30.4280488,29.3623984 29.696748,24.7626016 29.8168699,21.5914634 C29.8168699,21.5914634 27.3132114,22.7325203 25.2410569,27.4979675 C24.8563008,28.3546748 24.6095528,28.8272358 24.3630081,29.2997967 C24.2495935,29.4376016 24.620122,27.7347561 24.5609756,27.827439 C24.200813,28.4371951 23.2691057,29.2892276 22.8595528,30.3920732 C22.578252,31.2093496 22.1837398,31.6670732 21.9319106,32.6863821 L21.8727642,32.779878 C21.852439,32.4794715 21.9473577,31.5439024 21.878252,31.7357724 C20.9069846,33.6980824 20.0711563,35.7245653 19.376626,37.8010163 C18.2609756,41.4689024 16.9621951,46.4615854 16.7563008,52.9565041 C16.7067073,53.4489837 16.750813,54.0004065 16.7060976,54.4436992 C14.0638211,57.4607724 12.2634146,60.0154472 11.5827236,61.3396341 C8.16666667,66.6182927 4.40243902,74.8447154 0.753455285,87.8575203 C2.37692867,84.3029272 4.31829176,80.9023105 6.55386179,77.6971545 C3.5195122,84.6042683 0.586382114,95.450813 0,112.154472 C0.736550516,108.697787 1.67805039,105.287972 2.8195122,101.943089 C2.29552846,113.081301 3.59288618,126.890244 10.6343496,142.470122 C14.8152439,151.634146 24.4394309,170.244309 47.9554878,184.76687 L47.9534553,184.768293 C47.9534553,184.768293 55.9534553,190.723577 69.704878,195.186789 C70.7211382,195.555488 71.7506098,195.918496 72.8012195,196.270732 C72.4715447,196.137602 72.1526423,195.997561 71.8428862,195.853659 C80.9959575,198.596057 90.4991958,199.992786 100.054268,200 C135.659959,200.030285 146.161179,185.731707 146.161179,185.731707 C146.161179,185.731707 146.124187,185.759553 146.056911,185.808333 C146.55935,185.335298 147.043293,184.843631 147.50874,184.333333 C141.891057,189.638211 129.070732,189.990244 124.277033,189.60752 C132.452439,187.206504 137.832114,185.175407 148.296341,181.168699 C149.520867,180.71477 150.773035,180.197154 152.052846,179.615854 C152.19126,179.554878 152.330894,179.488821 152.469919,179.42561 C152.72378,179.307317 152.975203,179.195528 153.231504,179.071138 C158.32989,176.668569 163.123957,173.667279 167.512398,170.130691 C178.020528,161.736382 180.306911,153.554065 181.502033,148.159146 C181.335366,148.67622 180.816057,149.881707 180.45122,150.662398 C177.744919,156.451423 171.743699,160.003659 165.226016,163.050203 C168.327497,158.980823 171.203625,154.744525 173.841463,150.360366 C175.968902,148.25 176.632724,144.94878 178.221341,142.730488 Z" id="Shape" fill="url(#radialGradient-7)"></path>
            <path d="M165.431098,162.80122 C169.71565,158.077439 173.563211,152.67439 176.477642,146.547561 C183.977642,130.778862 195.573577,104.559756 186.44065,77.1764228 C179.222561,55.5335366 169.312195,43.699187 156.729065,32.1386179 C136.293293,13.3650407 130.585772,4.98394309 130.585772,0 C130.585772,0 106.990447,26.3026423 117.223577,53.7359756 C127.456707,81.1693089 148.414634,80.1636179 162.280285,108.791667 C178.596341,142.479675 149.079268,179.241667 124.669715,189.531098 C126.164228,189.199187 178.931911,177.25813 181.705081,147.075407 C181.642276,147.630488 180.453252,155.978455 165.431098,162.80122 Z" id="Shape" fill="url(#radialGradient-8)"></path>
            <path d="M97.0715447,64.9132114 C97.1514228,63.1306911 96.2268293,61.9335366 81.4857724,60.550813 C75.420935,59.9908537 73.0985772,54.3853659 72.3906504,52.0262195 C70.2341463,57.6288618 69.3436992,63.5079268 69.8223577,70.6191057 C70.1495935,75.2776423 73.2794715,80.2778455 74.7756098,83.2136179 C74.7756098,83.2136179 75.1081301,82.7815041 75.2615854,82.621748 C78.0788618,79.6886179 89.8827236,75.2195122 90.9916667,74.5849593 C92.2140244,73.8128049 96.8662602,70.4136179 97.0715447,64.9132114 Z" id="Shape" fill="url(#linearGradient-9)"></path>
            <path d="M32.1776423,31.8030488 C31.9660569,31.4335366 31.852439,32.5660569 31.6898374,32.201626 C30.4794715,29.3941057 29.7430894,24.8439024 29.9174797,21.6280488 C29.9174797,21.6280488 27.4138211,22.7691057 25.3416667,27.5345528 C24.9569106,28.3912602 24.7101626,28.8638211 24.4636179,29.3363821 C24.3502033,29.474187 24.7207317,27.7713415 24.6615854,27.8640244 C24.301626,28.4737805 23.3699187,29.325813 22.9652439,30.3792683 C22.6296748,31.2408537 22.2845528,31.7034553 22.0276423,32.7719512 C21.9485772,33.0623984 22.1073171,31.4867886 22.0382114,31.6786585 C17.2189024,40.9926829 16.2989837,55.075813 16.8069106,54.4802846 C27.0666667,43.525 38.824187,40.9268293 38.824187,40.9268293 C37.5731707,40.0052846 34.8550813,37.3445122 32.1778455,31.8030488 L32.1776423,31.8030488 Z" id="Shape" fill="url(#linearGradient-10)"></path>
            <path d="M71.1065041,146.361789 C56.9349593,140.311179 40.8235772,131.777439 41.4317073,112.39065 C42.2599593,86.8583333 65.2416667,91.9046748 65.2416667,91.9046748 C64.3743902,92.1158537 62.0556911,93.7668699 61.2339431,95.526626 C60.3654472,97.7272358 58.7808943,102.696545 63.5817073,107.904675 C71.120122,116.07378 48.0939024,127.285976 83.6351626,148.467073 C84.5315041,148.954878 75.3036585,148.176423 71.1069106,146.361789 L71.1065041,146.361789 Z" id="Shape" fill="url(#linearGradient-11)"></path>
            <path d="M66.0719512,133.638211 C76.1211382,137.135569 87.8280488,136.522154 94.8367886,132.650813 C99.5288618,130.038821 105.548171,125.855285 109.251829,126.888008 C106.045122,125.620528 103.616463,125.028252 100.694919,124.883537 C100.197358,124.883537 99.6010163,124.872967 99.0591463,124.818496 C97.9891064,124.815032 96.9197653,124.873599 95.8565041,124.993902 C94.047561,125.160163 92.0422764,126.301423 90.2193089,126.118293 C90.1207317,126.108333 91.9876016,125.35122 91.8357724,125.385569 C90.8699187,125.586992 89.8205285,125.630488 88.7117886,125.767886 C88.0071138,125.846341 87.4010163,125.934553 86.7014228,125.963618 C65.770122,127.738618 48.0800813,114.619512 48.0800813,114.619512 C46.5743902,119.69065 54.8211382,129.721138 66.0721545,133.638211 L66.0719512,133.638211 Z" id="Shape" fill="url(#linearGradient-12)"></path>
            <path d="M165.393902,162.936179 C186.565041,142.149593 197.276423,116.882317 192.748171,88.5420732 C192.748171,88.5420732 194.557114,103.074593 187.697764,117.938008 C190.993089,103.427236 191.376626,85.3945122 182.621545,66.720935 C170.935976,41.795935 151.71748,28.6806911 144.380285,23.2091463 C133.263415,14.9186992 128.655081,6.47764228 128.571951,4.73577236 C125.251016,11.5400407 115.204878,34.8577236 127.492683,54.9390244 C139.004878,73.7528455 157.140041,79.3371951 169.835772,96.5949187 C193.225,128.387602 165.393902,162.936179 165.393902,162.936179 Z" id="Shape" fill="url(#linearGradient-13)"></path>
            <path d="M162.360569,108.851829 C154.961789,93.5670732 145.727236,86.9004065 136.99187,79.6747967 C138.00813,81.097561 138.258537,81.6002033 138.821138,82.5203252 C146.509553,90.7146341 157.846951,110.702439 149.615854,135.794106 C134.122154,183.024797 72.1477642,160.783943 65.6504065,154.536382 C68.2788618,181.871545 114.031707,194.952033 143.821138,177.225407 C160.772358,161.178862 174.485366,133.9 162.360569,108.851829 Z" id="Shape" fill="url(#linearGradient-14)"></path>
        </g>
    </g>
</svg>