<?xml version="1.0" encoding="UTF-8"?>
<svg width="300px" height="300px" viewBox="0 0 300 300" version="1.1" xmlns="http://www.w3.org/2000/svg" xmlns:xlink="http://www.w3.org/1999/xlink">
    <!-- Generator: Sketch 49.3 (51167) - http://www.bohemiancoding.com/sketch -->
    <title>Oval 2</title>
    <desc>Created with Sketch.</desc>
    <defs></defs>
    <g id="Page-1" stroke="none" stroke-width="1" fill="none" fill-rule="evenodd">
        <circle id="Oval-2" fill="#EC5F67" cx="150" cy="150" r="150"></circle>
        <g id="Group-2" transform="translate(75.000000, 75.000000)" fill-rule="nonzero">
            <path d="M85.86795,71.3122297 C85.86795,77.1120041 81.1662486,81.8136486 75.3664095,81.8136486 C69.5665622,81.8136486 64.8648649,77.1120041 64.8648649,71.3122297 C64.8648649,65.5124554 69.5665622,60.8108108 75.3664095,60.8108108 C81.1662486,60.8108108 85.86795,65.5124554 85.86795,71.3122297 Z" id="Shape" fill="#A23C42"></path>
            <path d="M114.246328,71.3122297 C114.246328,77.1120041 109.544631,81.8136486 103.744788,81.8136486 C97.9449446,81.8136486 93.2432432,77.1120041 93.2432432,71.3122297 C93.2432432,65.5124554 97.9449446,60.8108108 103.744788,60.8108108 C109.544631,60.8108108 114.246328,65.5124554 114.246328,71.3122297 Z" id="Shape" fill="#A23C42"></path>
            <path d="M146.678765,71.3122297 C146.678765,77.1120041 141.977064,81.8136486 136.17722,81.8136486 C130.377377,81.8136486 125.675676,77.1120041 125.675676,71.3122297 C125.675676,65.5124554 130.377377,60.8108108 136.17722,60.8108108 C141.977064,60.8108108 146.678765,65.5124554 146.678765,71.3122297 Z" id="Shape" fill="#A23C42"></path>
            <path d="M53.4355196,71.3122297 C53.4355196,77.1120041 48.7338223,81.8136486 42.9339791,81.8136486 C37.1341322,81.8136486 32.4324324,77.1120041 32.4324324,71.3122297 C32.4324324,65.5124554 37.1341322,60.8108108 42.9339791,60.8108108 C48.7338223,60.8108108 53.4355196,65.5124554 53.4355196,71.3122297 Z" id="Shape" fill="#A23C42"></path>
            <path d="M85.8679541,136.177095 C85.8679541,141.976869 81.1662527,146.678514 75.3664095,146.678514 C69.5665662,146.678514 64.8648649,141.976869 64.8648649,136.177095 C64.8648649,130.37732 69.5665662,125.675676 75.3664095,125.675676 C81.1662527,125.675676 85.8679541,130.37732 85.8679541,136.177095 Z" id="Shape" fill="#FFFFFF"></path>
            <path d="M85.8679541,10.5014189 C85.8679541,16.3011932 81.1662527,21.0028378 75.3664095,21.0028378 C69.5665662,21.0028378 64.8648649,16.3011932 64.8648649,10.5014189 C64.8648649,4.70164541 69.5665662,0 75.3664095,0 C81.1662527,0 85.8679541,4.70164541 85.8679541,10.5014189 Z" id="Shape" fill="#FFFFFF"></path>
            <path d="M85.8679541,103.744662 C85.8679541,109.544436 81.1662527,114.246081 75.3664095,114.246081 C69.5665662,114.246081 64.8648649,109.544436 64.8648649,103.744662 C64.8648649,97.9448878 69.5665662,93.2432432 75.3664095,93.2432432 C81.1662527,93.2432432 85.8679541,97.9448878 85.8679541,103.744662 Z" id="Shape" fill="#FFFFFF"></path>
            <path d="M114.246328,103.744662 C114.246328,109.544436 109.544627,114.246081 103.744788,114.246081 C97.9449405,114.246081 93.2432432,109.544436 93.2432432,103.744662 C93.2432432,97.9448878 97.9449405,93.2432432 103.744788,93.2432432 C109.544627,93.2432432 114.246328,97.9448878 114.246328,103.744662 Z" id="Shape" fill="#A23C42"></path>
            <path d="M53.4355196,103.744662 C53.4355196,109.544436 48.7338223,114.246081 42.9339791,114.246081 C37.1341322,114.246081 32.4324324,109.544436 32.4324324,103.744662 C32.4324324,97.9448878 37.1341322,93.2432432 42.9339791,93.2432432 C48.7338223,93.2432432 53.4355196,97.9448878 53.4355196,103.744662 Z" id="Shape" fill="#FFFFFF"></path>
            <path d="M85.8679541,38.8797973 C85.8679541,44.6795716 81.1662527,49.3812162 75.3664095,49.3812162 C69.5665662,49.3812162 64.8648649,44.6795716 64.8648649,38.8797973 C64.8648649,33.080023 69.5665662,28.3783784 75.3664095,28.3783784 C81.1662527,28.3783784 85.8679541,33.080023 85.8679541,38.8797973 Z" id="Shape" fill="#FFFFFF"></path>
            <path d="M114.246328,38.8797973 C114.246328,44.6795716 109.544627,49.3812162 103.744788,49.3812162 C97.9449405,49.3812162 93.2432432,44.6795716 93.2432432,38.8797973 C93.2432432,33.080023 97.9449405,28.3783784 103.744788,28.3783784 C109.544627,28.3783784 114.246328,33.080023 114.246328,38.8797973 Z" id="Shape" fill="#A23C42"></path>
            <path d="M53.4355196,38.8797973 C53.4355196,44.6795716 48.7338223,49.3812162 42.9339791,49.3812162 C37.1341322,49.3812162 32.4324324,44.6795716 32.4324324,38.8797973 C32.4324324,33.080023 37.1341322,28.3783784 42.9339791,28.3783784 C48.7338223,28.3783784 53.4355196,33.080023 53.4355196,38.8797973 Z" id="Shape" fill="#FFFFFF"></path>
            <path d="M21.0030867,71.3122297 C21.0030867,77.1120041 16.301387,81.8136486 10.5015446,81.8136486 C4.70169969,81.8136486 0,77.1120041 0,71.3122297 C0,65.5124554 4.70169969,60.8108108 10.5015446,60.8108108 C16.301387,60.8108108 21.0030867,65.5124554 21.0030867,71.3122297 Z" id="Shape" fill="#A23C42"></path>
        </g>
    </g>
</svg>