<?xml version="1.0" encoding="UTF-8"?>
<svg width="300px" height="300px" viewBox="0 0 300 300" version="1.1" xmlns="http://www.w3.org/2000/svg" xmlns:xlink="http://www.w3.org/1999/xlink">
    <!-- Generator: Sketch 49.3 (51167) - http://www.bohemiancoding.com/sketch -->
    <title>Oval 2</title>
    <desc>Created with Sketch.</desc>
    <defs></defs>
    <g id="Page-1" stroke="none" stroke-width="1" fill="none" fill-rule="evenodd">
        <circle id="Oval-2" fill="#EC5F67" cx="150" cy="151" r="150"></circle>
        <g id="Apple-Health-Kit-Icon" transform="translate(50.000000, 51.000000)" fill="#FFFFFF">
            <path d="M125.717494,5.00000002 L100.607991,5.00000001 L67.9687497,5 C45.8010944,5 41.0796192,5.23525399 34.6382129,6.95261588 C33.3366836,7.29962038 32.0103394,7.71633192 30.587932,8.22433456 C20.0411397,11.7450743 11.7450743,20.0411397 8.25850327,30.4890026 C7.71633192,32.0103394 7.29962039,33.3366835 6.95261589,34.6382129 C5.23525399,41.0796192 5,45.8010945 5,67.96875 L5.00000001,72.7119499 L5.00000003,84.5706007 L5.00000005,100.000006 C5.00000006,112.005863 5.00000006,112.005863 5.00000005,122.012698 L5.00000004,129.270875 L5,132.031253 C5.00000012,154.198906 5.23525416,158.920381 6.95261594,165.361787 C7.29962043,166.663316 7.71633195,167.989661 8.22433457,169.412068 C11.7529896,179.962297 20.0451001,188.256247 30.4890026,191.741497 C32.0103394,192.283668 33.3366835,192.70038 34.6382129,193.047384 C41.0796192,194.764746 45.8010945,195 67.96875,195 L132.03125,195 C154.198906,195 158.920381,194.764746 165.361787,193.047384 C166.663316,192.70038 167.989661,192.283668 169.412068,191.775665 C179.95886,188.254926 188.254926,179.95886 191.741497,169.510997 C192.283668,167.989661 192.70038,166.663316 193.047384,165.361787 C194.764746,158.920381 195,154.198906 195,132.03125 L195,67.96875 C195,45.8010945 194.764746,41.0796192 193.047384,34.6382129 C192.70038,33.3366835 192.283668,32.0103394 191.746203,30.503035 C188.263821,20.1696924 179.831667,11.7415555 169.41459,8.22523458 C167.975687,7.71220924 166.635583,7.2922601 165.320782,6.94318305 C158.884632,5.23439703 154.166904,5.00005821 132.039494,5.00000001 L125.717494,5.00000002 Z M132.03125,5.00000001 L132.03125,-5 L133.242805,-4.99999999 C133.245615,-4.99999999 133.246194,-4.99999999 133.247232,6.49506315e-09 L132.03125,0 C132.441561,6.5206418e-10 132.846694,1.28316291e-09 133.246763,2.23931311e-05 C133.246911,1.29962406 133.247058,2.93701711 133.247243,5.00000001 L133.213005,5.00000001 L133.059308,5.00000001 L132.398575,5.00000001 L132.039494,5.00000001 C132.036746,5 132.033998,5 132.03125,5.00000001 Z M171.09375,3.515625 C182.899996,7.5 192.5,17.0833333 196.484375,28.90625 C200,38.75 200,45.8333333 200,67.96875 L200,132.03125 C200,154.166667 200,161.25 196.484375,171.09375 C192.5,183.033333 183.033333,192.5 171.09375,196.484375 C161.25,200 154.166667,200 132.03125,200 L67.96875,200 C45.8333333,200 38.75,200 28.90625,196.484375 C16.9666672,192.5 7.50773112,183.033333 3.515625,171.09375 C9.93327257e-08,161.25 1.23798867e-07,154.166667 0,132.03125 C1.23798867e-07,131.999995 0,67.96875 0,67.96875 C0,45.8333333 0,38.75 3.515625,28.90625 C7.5,16.9666672 16.9666672,7.5 28.90625,3.515625 C38.75,-1.5560933e-08 45.8333333,0 67.96875,0 C67.96875,0 133.247232,3.03354994e-08 133.247232,6.49506227e-09 C154.429704,0.00120888169 161.416173,0.0651909163 171.09375,3.515625 Z" id="Icon-Base" fill-rule="nonzero"></path>
            <path d="M121.484375,116.015625 C117.549896,116.015627 75.390625,93.6906201 75.390625,60.546875 C75.390625,49.2562536 83.3809473,34.375 100,34.375 C113.89958,34.375 120.499333,41.9819719 121.875,43.359375 C122.860042,41.9819719 129.459795,34.375 143.359375,34.375 C159.978428,34.375 167.96875,49.2562536 167.96875,60.546875 C167.96875,93.6906201 125.418854,116.015623 121.484375,116.015625 Z" id="HeatShape"></path>
        </g>
    </g>
</svg>