<?xml version="1.0" encoding="UTF-8"?>
<svg width="300px" height="300px" viewBox="0 0 300 300" version="1.1" xmlns="http://www.w3.org/2000/svg" xmlns:xlink="http://www.w3.org/1999/xlink">
    <!-- Generator: Sketch 49.3 (51167) - http://www.bohemiancoding.com/sketch -->
    <title>Oval 2</title>
    <desc>Created with Sketch.</desc>
    <defs></defs>
    <g id="Page-1" stroke="none" stroke-width="1" fill="none" fill-rule="evenodd">
        <circle id="Oval-2" fill="#EC5F67" cx="150" cy="150" r="150"></circle>
        <path d="M150.008333,50 C122.85,50 119.441667,50.11875 108.775,50.6041667 C98.1291667,51.0916667 90.8625,52.7770833 84.5041667,55.25 C77.9270833,57.8041667 72.3479167,61.2208333 66.7895833,66.78125 C61.2270833,72.3395833 57.8104167,77.91875 55.2479167,84.49375 C52.76875,90.8541667 51.08125,98.1229167 50.6020833,108.764583 C50.125,119.43125 50,122.841667 50,150 C50,177.158333 50.1208333,180.55625 50.6041667,191.222917 C51.09375,201.86875 52.7791667,209.135417 55.25,215.49375 C57.80625,222.070833 61.2229167,227.65 66.7833333,233.208333 C72.3395833,238.770833 77.91875,242.195833 84.4916667,244.75 C90.8541667,247.222917 98.1229167,248.908333 108.766667,249.395833 C119.433333,249.88125 122.839583,250 149.995833,250 C177.15625,250 180.554167,249.88125 191.220833,249.395833 C201.866667,248.908333 209.141667,247.222917 215.504167,244.75 C222.079167,242.195833 227.65,238.770833 233.20625,233.208333 C238.76875,227.65 242.185417,222.070833 244.747917,215.495833 C247.20625,209.135417 248.89375,201.866667 249.39375,191.225 C249.872917,180.558333 249.997917,177.158333 249.997917,150 C249.997917,122.841667 249.872917,119.433333 249.39375,108.766667 C248.89375,98.1208333 247.20625,90.8541667 244.747917,84.4958333 C242.185417,77.91875 238.76875,72.3395833 233.20625,66.78125 C227.64375,61.21875 222.08125,57.8020833 215.497917,55.25 C209.122917,52.7770833 201.852083,51.0916667 191.20625,50.6041667 C180.539583,50.11875 177.14375,50 149.977083,50 L150.008333,50 Z M141.0375,68.0208333 C143.7,68.0166667 146.670833,68.0208333 150.008333,68.0208333 C176.708333,68.0208333 179.872917,68.1166667 190.416667,68.5958333 C200.166667,69.0416667 205.458333,70.6708333 208.983333,72.0395833 C213.65,73.8520833 216.977083,76.01875 220.475,79.51875 C223.975,83.01875 226.141667,86.3520833 227.958333,91.01875 C229.327083,94.5395833 230.958333,99.83125 231.402083,109.58125 C231.88125,120.122917 231.985417,123.289583 231.985417,149.977083 C231.985417,176.664583 231.88125,179.83125 231.402083,190.372917 C230.95625,200.122917 229.327083,205.414583 227.958333,208.935417 C226.145833,213.602083 223.975,216.925 220.475,220.422917 C216.975,223.922917 213.652083,226.089583 208.983333,227.902083 C205.4625,229.277083 200.166667,230.902083 190.416667,231.347917 C179.875,231.827083 176.708333,231.93125 150.008333,231.93125 C123.30625,231.93125 120.141667,231.827083 109.6,231.347917 C99.85,230.897917 94.5583333,229.26875 91.03125,227.9 C86.3645833,226.0875 83.03125,223.920833 79.53125,220.420833 C76.03125,216.920833 73.8645833,213.595833 72.0479167,208.927083 C70.6791667,205.40625 69.0479167,200.114583 68.6041667,190.364583 C68.125,179.822917 68.0291667,176.65625 68.0291667,149.952083 C68.0291667,123.247917 68.125,120.097917 68.6041667,109.55625 C69.05,99.80625 70.6791667,94.5145833 72.0479167,90.9895833 C73.8604167,86.3229167 76.03125,82.9895833 79.53125,79.4895833 C83.03125,75.9895833 86.3645833,73.8229167 91.03125,72.00625 C94.55625,70.63125 99.85,69.00625 109.6,68.5583333 C118.825,68.1416667 122.4,68.0166667 141.0375,67.9958333 L141.0375,68.0208333 Z M203.3875,84.625 C196.7625,84.625 191.3875,89.99375 191.3875,96.6208333 C191.3875,103.245833 196.7625,108.620833 203.3875,108.620833 C210.0125,108.620833 215.3875,103.245833 215.3875,96.6208333 C215.3875,89.9958333 210.0125,84.6208333 203.3875,84.6208333 L203.3875,84.625 Z M150.008333,98.6458333 C121.647917,98.6458333 98.6541667,121.639583 98.6541667,150 C98.6541667,178.360417 121.647917,201.34375 150.008333,201.34375 C178.36875,201.34375 201.354167,178.360417 201.354167,150 C201.354167,121.639583 178.366667,98.6458333 150.00625,98.6458333 L150.008333,98.6458333 Z M150.008333,116.666667 C168.416667,116.666667 183.341667,131.589583 183.341667,150 C183.341667,168.408333 168.416667,183.333333 150.008333,183.333333 C131.597917,183.333333 116.675,168.408333 116.675,150 C116.675,131.589583 131.597917,116.666667 150.008333,116.666667 Z" id="Shape" fill="#FFFFFF" fill-rule="nonzero"></path>
    </g>
</svg>