<?xml version="1.0" encoding="UTF-8"?>
<svg width="97px" height="146px" viewBox="0 0 97 146" version="1.1" xmlns="http://www.w3.org/2000/svg" xmlns:xlink="http://www.w3.org/1999/xlink">
    <!-- Generator: Sketch 52.4 (67378) - http://www.bohemiancoding.com/sketch -->
    <title>Shape</title>
    <desc>Created with Sketch.</desc>
    <g id="Page-1" stroke="none" stroke-width="1" fill="none" fill-rule="evenodd">
        <g id="iconmonstr-lock-26" fill="#C594C5" fill-rule="nonzero">
            <path d="M78.8125,59.3794167 L78.8125,30.4166667 C78.8125,13.6205833 65.244625,0 48.5,0 C31.7493125,0 18.1875,13.6205833 18.1875,30.4166667 L18.1875,59.3794167 C7.1113125,68.2975833 0,81.9729167 0,97.3333333 C0,124.2095 21.715875,146 48.5,146 C75.284125,146 97,124.2095 97,97.3333333 C97,81.9729167 89.8886875,68.2975833 78.8125,59.3794167 Z M30.3125,30.4166667 C30.3125,20.3548333 38.472625,12.1666667 48.5,12.1666667 C58.527375,12.1666667 66.6875,20.3548333 66.6875,30.4166667 L66.6875,52.2375833 C61.0675625,49.95025 54.938375,48.6666667 48.5,48.6666667 C42.061625,48.6666667 35.9324375,49.95025 30.3125,52.2375833 L30.3125,30.4166667 Z M48.5,133.833333 C28.4391875,133.833333 12.125,117.463083 12.125,97.3333333 C12.125,77.2035833 28.4391875,60.8333333 48.5,60.8333333 C68.5608125,60.8333333 84.875,77.2035833 84.875,97.3333333 C84.875,117.463083 68.5608125,133.833333 48.5,133.833333 Z M60.625,97.3333333 C60.625,104.049333 55.193,109.5 48.5,109.5 C41.807,109.5 36.375,104.049333 36.375,97.3333333 C36.375,90.6173333 41.807,85.1666667 48.5,85.1666667 C55.193,85.1666667 60.625,90.6173333 60.625,97.3333333 Z" id="Shape"></path>
        </g>
    </g>
</svg>