<?xml version="1.0" encoding="UTF-8"?>
<svg width="1470px" height="300px" viewBox="0 0 1470 300" version="1.1" xmlns="http://www.w3.org/2000/svg" xmlns:xlink="http://www.w3.org/1999/xlink">
    <!-- Generator: Sketch 49.3 (51167) - http://www.bohemiancoding.com/sketch -->
    <title>Oval 2</title>
    <desc>Created with Sketch.</desc>
    <defs></defs>
    <g id="Page-1" stroke="none" stroke-width="1" fill="none" fill-rule="evenodd">
        <circle id="Oval-2" fill="#EC5F67" cx="150" cy="150" r="150"></circle>
        <circle id="Oval-2" fill="#EC5F67" cx="540" cy="150" r="150"></circle>
        <circle id="Oval-2" fill="#EC5F67" cx="1320" cy="150" r="150"></circle>
        <circle id="Oval-2" fill="#EC5F67" cx="930" cy="150" r="150"></circle>
        <g id="Facebook_Messenger_logo" transform="translate(831.000000, 50.000000)" fill-rule="nonzero">
            <path d="M36.5088496,164.176991 L36.5088496,199.752212 L69.7734513,180.840708 C79.0460177,183.513274 88.9026549,184.955752 99.1150442,184.955752 C153.858407,184.955752 198.230088,143.548673 198.230088,92.4778761 C198.230088,41.4035398 153.858407,2.84217094e-14 99.1150442,2.84217094e-14 C44.3752212,2.84217094e-14 0,41.4035398 0,92.4778761 C0,121.39823 14.2283186,147.221239 36.5088496,164.176991 Z" id="Shape" fill="#FFFFFF"></path>
            <polygon id="Shape" fill="#EC5F67" points="88.5309735 67.1486726 35.0787611 123.743363 83.7247788 97.0530973 109.141593 123.743363 162.292035 67.1486726 114.185841 93.3716814 88.5309735 67.1486726"></polygon>
        </g>
        <g id="Telegram_logo" transform="translate(1220.000000, 50.000000)" fill-rule="nonzero">
            <circle id="Oval" fill="#FFFFFF" cx="100" cy="100" r="100"></circle>
            <path d="M81.6666667,145.833333 C78.427,145.833333 78.9775,144.610083 77.8601667,141.525417 L68.3333333,110.171583 L141.666667,66.6666667" id="Shape" fill="#DB5960"></path>
            <path d="M81.6666667,145.833333 C84.1666667,145.833333 85.27125,144.69 86.6666667,143.333333 L100,130.368333 L83.3683333,120.339167" id="Shape" fill="#EC5F67"></path>
            <path d="M83.3666667,120.341667 L123.666667,150.115833 C128.265417,152.65325 131.5845,151.3395 132.73,145.84625 L149.134167,68.54375 C150.813667,61.81025 146.567417,58.75625 142.168,60.7535833 L45.843,97.8960833 C39.2679167,100.533333 39.30625,104.201583 44.6445,105.836083 L69.3636667,113.551333 L126.591167,77.4471667 C129.29275,75.8089167 131.77225,76.689675 129.737167,78.4958333" id="Shape" fill="#EC5F67"></path>
        </g>
        <g id="google-hangouts" transform="translate(455.000000, 50.000000)" fill-rule="nonzero">
            <path d="M169.402162,70.1805405 C166.382703,53.7178378 159.174054,39.3383784 147.787027,27.067027 C142.998376,21.9042462 137.57672,17.3670684 131.650811,13.5632432 C120.578378,6.44540541 108.516757,2.08432432 95.4367568,0.539459459 C93.8421622,0.35027027 92.2248649,0.375135135 90.652973,0 L79.3675676,0 C79.2454054,0.284324324 78.9837838,0.180540541 78.7762162,0.2 C75.8702703,0.456216216 72.9783784,0.787027027 70.1102703,1.33081081 C49.1513514,5.30054054 31.9394595,15.5913514 18.6172973,32.2140541 C7.65945946,45.8843243 1.62486486,61.5664865 0.321081081,79.0518919 C-0.314312594,87.4815041 0.305049114,95.9587442 2.15891892,104.206486 C3.52873496,110.363438 5.61275474,116.339394 8.36864865,122.012973 C8.61189189,122.497297 8.85189189,122.981622 9.09945946,123.465946 C13.6497297,132.425946 19.5027027,140.410811 26.8378378,147.307027 C30.6994595,150.937297 34.827027,154.221622 39.2951351,157.059459 C52.9859459,165.749189 67.9308108,170.305946 84.1664865,170.509189 C85.1632432,170.523243 85.4345946,170.768649 85.4281081,171.787027 C85.3827027,180.476757 85.4021622,189.167568 85.4043243,197.858378 C85.4054054,198.195676 85.4313514,198.531892 85.4508108,198.951351 C85.7318919,198.836757 85.9081081,198.771892 86.0778378,198.691892 C102.398919,191.023784 117.384865,181.334054 130.744865,169.188108 C133.400921,166.769534 135.952782,164.238953 138.393514,161.603243 C139.441081,160.475676 140.48,159.328649 141.52973,158.202162 C143.151351,156.468108 144.554595,154.530811 146.083243,152.704865 C147.848649,150.598919 149.433514,148.36 150.996757,146.107027 C154.452973,141.127568 157.539459,135.932973 160.134054,130.445405 C161.446486,127.671351 162.696216,124.875676 163.802162,122.014054 C163.838919,121.96 163.888649,121.912432 163.912432,121.854054 C166.926486,114.018378 168.858378,105.91027 169.886486,97.5913514 C170.245405,94.6940541 170.477838,91.7783784 170.624865,88.8648649 C170.941023,82.6104311 170.530714,76.3404324 169.402162,70.1805405 Z M59.507027,122.486486 C58.0421622,122.884324 56.5481081,123.112432 55.0551351,123.330811 C53.9005405,123.499459 53.1481081,122.858378 52.7178378,121.817297 L52.7297297,112.187027 C52.7859459,111.242162 52.4054054,110.229189 53.1621622,109.395676 C53.5372973,108.982703 53.9621622,108.699459 54.5362162,108.556757 C56.2172973,108.132973 57.9210811,107.794595 59.4518919,106.881081 C62.2713514,105.197838 64.0259459,102.768649 64.8043243,99.6021622 C64.9254054,99.1037838 65.0410811,98.6021622 65.1567568,98.1016216 C58.387027,98.0886486 51.6194595,98.0767568 44.8497297,98.0681081 C44.2637838,98.067027 43.6864865,98.0464865 43.1156757,97.8886486 C41.3902703,97.4108108 40.0691892,95.8367568 40.067027,94.0562162 C40.0540541,83.8205405 40.0745946,73.5837838 40.0821622,63.3481081 C39.9405405,61.7124324 40.0832432,60.1794595 41.4583784,59.0108108 C42.2054054,58.3783784 43.0259459,57.9956757 44.0075676,57.9956757 C53.9610811,57.9935135 63.9145946,58.0010811 73.8681081,57.9902703 C76.5027027,57.9859459 78.6832432,60.6421622 77.84,63.2389189 C78.0432432,63.7297297 78.0054054,64.2486486 78.0054054,64.7610811 C78.0075676,75.9145946 78.0702703,87.0724324 77.9848649,98.2259459 C77.9297297,105.628108 75.0475676,111.852973 69.6291892,116.900541 C69.3459459,117.163243 69.0724324,117.436757 68.7956757,117.704865 C65.9891892,119.856216 62.9513514,121.554595 59.507027,122.486486 Z M114.572973,121.775135 C114.448649,121.808649 114.322162,121.844324 114.193514,121.881081 L113.978378,122.003243 C112.051892,122.548108 110.108108,123 108.121081,123.28973 C106.605405,123.512432 105.459459,122.656216 105.441081,121.131892 C105.425946,120.063784 105.418378,118.993514 105.40973,117.924324 L105.464865,112.181622 C105.456216,111.758919 105.441081,111.339459 105.442162,110.918919 C105.444324,109.448649 106.00973,108.828108 107.837838,108.410811 C110.155676,107.88 112.336216,107.131892 114.140541,105.457297 C116.305946,103.446486 117.398919,100.936216 117.896216,98.0994595 L99.1372973,98.0637838 C98.4572973,98.0627027 97.7762162,98.0724324 97.0951351,98.0605405 C94.5416216,98.0183784 92.7935135,96.252973 92.7935135,93.6854054 C92.7967568,83.5762162 92.8108108,73.4681081 92.8172973,63.3578378 C92.8172973,63.2605405 92.8064865,63.1632432 92.8,63.0659459 C92.6032432,61.1740541 93.147027,59.6237838 94.8281081,58.572973 C95.4810811,58.1621622 96.1913514,57.9935135 96.9427027,57.9935135 C106.83027,57.9881081 116.716757,57.9967568 126.605405,57.9848649 C129.238919,57.9816216 131.418378,60.6378378 130.576216,63.2345946 C130.777297,63.7254054 130.740541,64.2432432 130.740541,64.7556757 C130.740541,75.9286486 130.747027,87.1016216 130.737297,98.2756757 C130.728649,108.257297 124.473514,117.597838 115.254054,121.432432 C115.021622,121.531892 114.8,121.660541 114.572973,121.775135 Z" id="Shape" fill="#FFFFFF"></path>
            <path d="M113.978378,122.003243 C112.051892,122.548108 110.108108,123 108.121081,123.28973 C106.605405,123.512432 105.459459,122.656216 105.441081,121.131892 C105.425946,120.063784 105.418378,118.993514 105.40973,117.924324 L105.464865,112.181622 C106.016216,110.902703 107.20973,110.672432 108.374054,110.407568 C113.777297,109.188108 117.088649,105.659459 117.867027,100.201081 C117.964324,99.52 118.383784,98.8032432 117.891892,98.1005405 L99.132973,98.0648649 C98.452973,98.0637838 97.7708108,98.0735135 97.0908108,98.0616216 C94.5372973,98.0194595 92.7891892,96.2540541 92.7891892,93.6864865 C92.7924324,83.5772973 92.8064865,73.4691892 92.812973,63.3589189 C92.812973,63.2616216 92.8021622,63.1643243 92.7956757,63.067027 C93.0681081,62.9491892 93.0886486,62.6627027 93.2097297,62.4432432 C94.0540541,60.9351351 95.3145946,60.1232432 97.0702703,60.1232432 C106.883243,60.1254054 116.696216,60.12 126.508108,60.1286486 C128.505946,60.1297297 130.002162,61.2983784 130.570811,63.2356757 C130.771892,63.7264865 130.735135,64.2443243 130.735135,64.7567568 C130.735135,75.9297297 130.740541,87.1027027 130.731892,98.2767568 C130.723243,108.258378 124.468108,117.598919 115.248649,121.433514 C115.012973,121.530811 114.792432,121.659459 114.565405,121.772973 C114.44,121.806486 114.313514,121.842162 114.184865,121.878919 C114.122162,121.921081 114.04973,121.962162 113.978378,122.003243 Z M68.8010811,117.704865 C65.9891892,119.856216 62.9513514,121.555676 59.507027,122.486486 C58.0421622,122.884324 56.5481081,123.112432 55.0551351,123.330811 C53.9005405,123.499459 53.1481081,122.858378 52.7178378,121.816216 L52.7297297,112.187027 C53.2594595,110.955676 54.3935135,110.702703 55.5308108,110.441081 C61.0183784,109.175135 64.1654054,105.901622 65.1048649,100.382703 C65.2291892,99.6486486 65.6454054,98.8691892 65.1589189,98.1016216 C58.3891892,98.0886486 51.6216216,98.0767568 44.8518919,98.0681081 C44.2659459,98.067027 43.6886486,98.0464865 43.1178378,97.8886486 C41.3924324,97.4108108 40.0713514,95.8367568 40.0691892,94.0562162 C40.0562162,83.8205405 40.0767568,73.5837838 40.0843243,63.3481081 C40.8151351,61.4389189 42.0572973,60.1416216 44.2248649,60.1372973 C54.1091892,60.1178378 63.9945946,60.1232432 73.8789189,60.1340541 C75.7978378,60.1362162 77.3102703,61.3545946 77.8443243,63.2389189 C78.0475676,63.7297297 78.0097297,64.2486486 78.0097297,64.7610811 C78.0118919,75.9145946 78.0745946,87.0724324 77.9891892,98.2259459 C77.9340541,105.628108 75.0518919,111.852973 69.6335135,116.900541 C69.3524324,117.163243 69.0789189,117.436757 68.8010811,117.704865 Z" id="Shape" fill="#EC5F67"></path>
        </g>
        <g id="Whatsapp" transform="translate(49.000000, 50.000000)" fill="#FFFFFF" fill-rule="nonzero">
            <path d="M0,200 C5.44499174,182.467606 11.7560681,165.798978 17.5258416,148.591525 C-20.7210754,81.8779388 26.6114821,6.77451081 90.7213366,0.535857828 C151.251375,-5.35523215 200.880087,38.0058225 201.030621,97.1830502 C201.188372,159.62408 140.466558,212.056734 72.1644418,190.745364 C67.0122692,189.138142 60.6372675,183.900018 54.6386002,183.548342 C46.2551069,183.05579 35.2682044,189.058964 26.803258,191.773657 C17.5248106,194.750565 9.45681959,197.733642 0,200 Z M56.7007065,165.042155 C111.856895,198.426712 177.902037,160.981426 183.50478,106.436658 C188.575499,57.0590616 149.042859,13.1242194 95.8755713,16.9864875 C35.1774718,21.3947792 -1.28263013,93.6549773 36.0817054,146.534939 C32.7740868,155.574662 29.6788652,164.826213 26.803258,174.295763 C36.9302621,171.371298 46.2654174,167.658132 56.7007065,165.042155 Z" id="Shape"></path>
            <path d="M78.1218792,50.5536327 C83.9390517,62.6797837 92.9372159,80.6155665 78.1218792,88.6691029 C85.6458497,104.520671 98.0855222,115.473357 114.299586,122.663536 C119.691868,119.109142 123.232621,113.709553 127.737905,109.272227 C137.149588,112.94098 145.947196,117.220677 153.578681,122.663536 C154.363333,140.385025 139.378453,146.938504 126.704109,146.356407 C99.9649641,145.130399 63.2145346,111.464618 54.3476625,86.6085844 C49.0856386,71.8604237 55.137483,43.6519262 78.1218792,50.5536327 Z" id="Shape"></path>
        </g>
    </g>
</svg>