<?xml version="1.0" encoding="UTF-8"?>
<svg width="300px" height="300px" viewBox="0 0 300 300" version="1.1" xmlns="http://www.w3.org/2000/svg" xmlns:xlink="http://www.w3.org/1999/xlink">
    <!-- Generator: Sketch 49.3 (51167) - http://www.bohemiancoding.com/sketch -->
    <title>Oval 2</title>
    <desc>Created with Sketch.</desc>
    <defs></defs>
    <g id="Page-1" stroke="none" stroke-width="1" fill="none" fill-rule="evenodd">
        <circle id="Oval-2" fill="#EC5F67" cx="150" cy="148" r="150"></circle>
        <g id="mm" transform="translate(20.000000, 108.000000)" fill="#FFFFFF" fill-rule="nonzero">
            <circle id="dotOne" cx="2.5" cy="2.5" r="2.5"></circle>
            <circle id="dotTwo" cx="23.5" cy="2.5" r="2.5"></circle>
            <path d="M20.8921463,10.4005021 L11.9824099,20.8118607 L3.07267338,10.3988051 L0,10.3988051 L0,38.6986935 L23.9682074,38.6986935 L23.9682074,10.4005021 L20.8921463,10.4005021 Z M3.43685462,35.1722382 L3.43685462,15.8429189 L11.9857976,25.8164404 L20.5279651,15.8412219 L20.5279651,35.1705412 L3.43685462,35.1705412 L3.43685462,35.1722382 Z M39.0537803,13.7368886 C41.589498,11.3067231 44.8468028,10 48.3615753,10 C51.9085312,10 55.2386723,11.3067231 57.7015538,13.7368886 C60.2728428,16.2383299 61.573732,19.323554 61.573732,22.9144969 C61.573732,26.2525804 60.2355777,29.4820532 57.7354311,31.8748838 C55.1607544,34.3406872 51.9424085,35.6083783 48.3598814,35.6083783 C44.8468028,35.6083783 41.5166618,34.2677143 39.0537803,31.8748838 C36.5214502,29.4073833 35.181602,26.2169425 35.181602,22.6938813 C35.181602,19.3591919 36.5908987,16.1297192 39.0554741,13.7368886 L39.0537803,13.7368886 Z M41.6962116,29.4820532 C43.4341184,31.2605542 45.8597348,32.238051 48.3632692,32.238051 C50.9311704,32.238051 53.2500733,31.2944951 55.0625102,29.4820532 C56.8342943,27.7035522 57.813349,25.3446625 57.813349,22.8041891 C57.813349,20.2637158 56.8342943,17.979496 55.0252451,16.1263251 C53.2517672,14.3104891 50.8955992,13.3329924 48.364963,13.3329924 C45.8614287,13.3329924 43.5120362,14.3512182 41.6995993,16.124628 C39.9244275,17.8674912 38.9487605,20.2603217 38.9487605,22.8007951 C38.9487605,25.3412684 39.9244275,27.698461 41.7012932,29.4769621 L41.6962116,29.4820532 Z M72.7837389,10.4005021 L75.8581061,10.4005021 L92.1530994,29.6246048 L92.1530994,10.3971081 L95.6594026,10.3971081 L95.6594026,35.1739353 L92.5155868,35.1739353 L76.2968175,15.9124977 L76.2968175,35.1739353 L72.7837389,35.1739353 L72.7837389,10.3971081 L72.7837389,10.4005021 Z M111.585133,10.4005021 L111.585133,24.6183281 C111.585133,26.8312721 111.61901,28.4298866 112.699697,29.6992747 C114.15134,31.4031058 116.138246,32.2753859 118.71631,32.2753859 C123.023812,32.2753859 125.847487,29.8061884 125.847487,26.2169425 L125.847487,10.4005021 L129.357178,10.4005021 L129.357178,26.3238562 C129.357178,31.805305 125.088635,35.6100753 118.71631,35.6100753 C114.915274,35.6100753 111.87309,34.2354705 109.806574,31.6933002 C108.143197,29.6229078 108.070361,27.4846336 108.070361,24.7642738 L108.070361,10.4005021 L111.583439,10.4005021 L111.585133,10.4005021 Z M141.795238,10.4005021 L144.869605,10.4005021 L153.779341,20.8118607 L162.689078,10.3988051 L165.761751,10.3988051 L165.761751,35.1756323 L162.323203,35.1756323 L162.323203,15.8378278 L153.779341,25.8130463 L145.230398,15.8378278 L145.230398,35.1739353 L141.795238,35.1739353 L141.795238,10.3971081 L141.795238,10.4005021 Z M178.316688,10.4005021 L193.197303,10.4005021 L193.197303,13.5519109 L181.828073,13.5519109 L181.828073,21.0647201 L192.872081,21.0647201 L192.872081,24.2551609 L181.828073,24.2551609 L181.828073,31.9817975 L193.55979,31.9817975 L193.55979,35.1722382 L178.318382,35.1722382 L178.318382,10.4005021 L178.316688,10.4005021 Z M205.272875,10.4005021 L208.345549,10.4005021 L224.640542,29.6246048 L224.640542,10.3971081 L228.150233,10.3971081 L228.150233,35.1739353 L225.003029,35.1739353 L208.782566,15.9124977 L208.782566,35.1739353 L205.272875,35.1739353 L205.272875,10.3971081 L205.272875,10.4005021 Z M247.399329,13.6248838 L238.310043,13.6248838 L238.310043,10.4005021 L260,10.4005021 L260,13.6248838 L250.912408,13.6248838 L250.912408,35.1739353 L247.402717,35.1739353 L247.399329,13.6265808 L247.399329,13.6248838 Z M53.532949,58.0432862 L57.2289651,58.0432862 L64.942832,75.7095034 L72.8023714,58.0432862 L76.4560409,58.0432862 L65.3442783,83 L64.4380599,83 L53.5346428,58.0432862 L53.532949,58.0432862 Z M91.3976351,58.0432862 L93.9723118,58.0432862 L104.829994,82.8201134 L101.176325,82.8201134 L97.9867748,75.5279198 L87.447539,75.5279198 L84.3003355,82.8201134 L80.6805433,82.8201134 L91.3976351,58.0432862 Z M96.540213,72.335782 L92.627382,63.4127301 L88.8246523,72.335782 L96.540213,72.335782 Z M114.041239,58.0432862 L117.557705,58.0432862 L117.557705,79.6262786 L129.321607,79.6262786 L129.321607,82.8167194 L114.042933,82.8167194 L114.042933,58.0432862 L114.041239,58.0432862 Z M139.581354,58.0432862 L143.094433,58.0432862 L143.094433,79.6262786 L154.858334,79.6262786 L154.858334,82.8167194 L139.579661,82.8167194 L139.579661,58.0432862 L139.581354,58.0432862 Z M165.014756,58.0432862 L179.891983,58.0432862 L179.891983,61.196392 L168.526141,61.196392 L168.526141,68.7075042 L179.570149,68.7075042 L179.570149,71.897945 L168.526141,71.897945 L168.526141,79.6262786 L180.256165,79.6262786 L180.256165,82.8167194 L165.01645,82.8167194 L165.01645,58.0432862 L165.014756,58.0432862 Z M197.904557,70.4147294 L188.340988,58.0432862 L192.541777,58.0432862 L199.747484,67.4398131 L207.13274,58.0449833 L211.406365,58.0449833 L201.483697,70.596313 L201.483697,82.8218105 L197.901169,82.8218105 L197.904557,70.4164264 L197.904557,70.4147294 Z" id="Shape"></path>
        </g>
    </g>
</svg>