<?xml version="1.0" encoding="UTF-8"?>
<svg width="462px" height="140px" viewBox="0 0 462 140" version="1.1" xmlns="http://www.w3.org/2000/svg" xmlns:xlink="http://www.w3.org/1999/xlink">
    <!-- Generator: Sketch 50.2 (55047) - http://www.bohemiancoding.com/sketch -->
    <title>Combined Shape</title>
    <desc>Created with Sketch.</desc>
    <defs></defs>
    <g id="Page-1" stroke="none" stroke-width="1" fill="none" fill-rule="evenodd">
        <path d="M230.64975,53.0053425 C272.281726,32.9089332 312.828164,32.948819 352.289062,53.125 C391.828125,73.3411458 427.433594,55.6458333 459.105469,0.0390625 C468.178385,66.5494792 448.035156,109.914063 398.675781,130.132813 C349.363475,150.332282 293.332231,137.953349 230.582048,92.9960123 C167.853935,137.921455 111.840868,150.287368 62.5428465,130.09375 C13.1834715,109.875 -6.95975763,66.5104167 2.11315904,0 C33.785034,55.6067708 69.3905028,73.3020833 108.929565,53.0859375 C148.416015,32.8966925 188.98941,32.8698275 230.64975,53.0053425 Z" id="Combined-Shape" fill="#754F2D"></path>
        <path d="M252.925781,69.484375 C295.696615,60.6692708 331.971354,64.9817708 361.75,82.421875" id="Path-2" stroke="#593C22"></path>
        <path d="M322,114 C351.513021,125.21875 377.730469,125.21875 400.652344,114" id="Path-3" stroke="#593C22"></path>
        <path d="M299.996094,91.9570312 C321.938802,88.2851562 343.895833,92.5911458 365.867188,104.875" id="Path-4" stroke="#593C22"></path>
        <path d="M400.792969,87.0235182 C420.074219,85.9817977 436.988281,71.8424479 451.535156,44.6054688" id="Path-5" stroke="#593C22"></path>
        <path d="M108.498047,65.4394655 C151.26888,56.6243614 187.54362,60.9368614 217.322266,78.3769655" id="Path-2" stroke="#593C22" transform="translate(162.910156, 69.688483) scale(-1, 1) translate(-162.910156, -69.688483) "></path>
        <path d="M76,114 C105.513021,125.21875 131.730469,125.21875 154.652344,114" id="Path-3" stroke="#593C22" transform="translate(115.326172, 118.207031) scale(-1, 1) translate(-115.326172, -118.207031) "></path>
        <path d="M122,85.267507 C143.942708,81.595632 165.89974,85.9016216 187.871094,98.1854758" id="Path-4" stroke="#593C22" transform="translate(154.935547, 91.092738) scale(-1, 1) translate(-154.935547, -91.092738) "></path>
        <path d="M15,86.253894 C34.28125,85.2121735 51.1953125,71.0728237 65.7421875,43.8358445" id="Path-5" stroke="#593C22" transform="translate(40.371094, 65.044909) scale(-1, 1) translate(-40.371094, -65.044909) "></path>
    </g>
</svg>