<?xml version="1.0" encoding="UTF-8"?>
<svg width="300px" height="300px" viewBox="0 0 300 300" version="1.1" xmlns="http://www.w3.org/2000/svg" xmlns:xlink="http://www.w3.org/1999/xlink">
    <!-- Generator: Sketch 50.2 (55047) - http://www.bohemiancoding.com/sketch -->
    <title>Oval-2</title>
    <desc>Created with Sketch.</desc>
    <defs>
        <linearGradient x1="50.0025785%" y1="1.63039062%" x2="50.0025785%" y2="98.5448437%" id="linearGradient-1">
            <stop stop-color="#FF1B2D" offset="30%"></stop>
            <stop stop-color="#FA1A2C" offset="43.81%"></stop>
            <stop stop-color="#ED1528" offset="59.39%"></stop>
            <stop stop-color="#D60E21" offset="75.81%"></stop>
            <stop stop-color="#B70519" offset="92.72%"></stop>
            <stop stop-color="#A70014" offset="100%"></stop>
        </linearGradient>
        <linearGradient x1="49.9902998%" y1="0.852967626%" x2="49.9902998%" y2="99.5189748%" id="linearGradient-2">
            <stop stop-color="#9C0000" offset="0%"></stop>
            <stop stop-color="#FF4B4B" offset="70%"></stop>
        </linearGradient>
    </defs>
    <g id="Page-1" stroke="none" stroke-width="1" fill="none" fill-rule="evenodd">
        <g id="opera-seeklogo.com" transform="translate(50.000000, 50.000000)" fill-rule="nonzero">
            <path d="M67.109375,156.328125 C56.015625,143.28125 48.90625,123.984375 48.4375,102.34375 L48.4375,97.65625 C48.90625,76.015625 56.09375,56.71875 67.109375,43.671875 C81.484375,25.078125 102.578125,16.71875 126.40625,16.71875 C141.09375,16.71875 154.921875,17.734375 166.640625,25.546875 C149.0625,9.6875 125.859375,0.078125 100.390625,0 L100,0 C44.765625,0 0,44.765625 0,100 C0,153.59375 42.1875,197.421875 95.234375,199.921875 C96.796875,200 98.4375,200 100,200 C125.625,200 148.984375,190.390625 166.640625,174.53125 C154.921875,182.34375 141.875,182.65625 127.1875,182.65625 C103.4375,182.734375 81.40625,175 67.109375,156.328125 Z" id="Shape" fill="url(#linearGradient-1)"></path>
            <path d="M67.109375,43.671875 C76.25,32.8125 88.125,26.328125 101.09375,26.328125 C130.234375,26.328125 153.828125,59.296875 153.828125,100.078125 C153.828125,140.859375 130.234375,173.828125 101.09375,173.828125 C88.125,173.828125 76.328125,167.265625 67.109375,156.484375 C81.484375,175.078125 102.8125,186.953125 126.5625,186.953125 C141.171875,186.953125 154.921875,182.5 166.640625,174.6875 C187.109375,156.25 200,129.609375 200,100 C200,70.390625 187.109375,43.75 166.640625,25.46875 C154.921875,17.65625 141.25,13.203125 126.5625,13.203125 C102.734375,13.203125 81.40625,25 67.109375,43.671875 Z" id="Shape" fill="url(#linearGradient-2)"></path>
        </g>
    </g>
</svg>