<?xml version="1.0" encoding="UTF-8"?>
<svg width="300px" height="300px" viewBox="0 0 300 300" version="1.1" xmlns="http://www.w3.org/2000/svg" xmlns:xlink="http://www.w3.org/1999/xlink">
    <!-- Generator: Sketch 49.3 (51167) - http://www.bohemiancoding.com/sketch -->
    <title>Oval 2</title>
    <desc>Created with Sketch.</desc>
    <defs></defs>
    <g id="Page-1" stroke="none" stroke-width="1" fill="none" fill-rule="evenodd">
        <circle id="Oval-2" fill="#EC5F67" cx="150" cy="148" r="150"></circle>
        <g id="PokeÌmon-Go-logo" transform="translate(52.000000, 103.000000)" fill-rule="nonzero">
            <g id="g84" transform="translate(1.649678, 1.444585)" fill="#FFFFFF">
                <path d="M26.5977106,66.1055278 L25.5473682,63.8441235 L12.1333919,34.8353992 L11.8578323,34.2404792 L11.248239,34.5131509 L10.8411125,34.6944598 L8.4531733,35.8304737 C8.10086638,35.2582173 7.5161246,34.2992629 7.10972907,33.6342274 L1.71036969,24.7925829 L0.298218306,22.484435 L2.6342617,21.0502528 C4.84385469,19.6847698 7.33924022,18.4233977 10.0539039,17.3001321 C15.4591107,15.0691821 20.9761494,13.8892574 26.0071214,13.8892574 C27.6619406,13.8892574 29.2634022,14.018865 30.7676504,14.2724142 C33.2754617,14.5493353 35.5946938,15.3468114 37.510454,16.5833951 C40.3654557,18.1301871 42.6130569,20.5296978 43.8826775,23.3683161 C44.9249797,25.7012524 45.1281775,28.433635 44.4659574,31.2680039 L44.0771041,32.9330717 L45.504605,31.9302065 C46.4665052,31.2538391 47.5117312,30.6759168 48.6110457,30.2120209 C50.5114565,29.4336672 52.4776507,29.0363456 54.4474995,29.0363456 C56.3120949,29.0363456 58.0750913,29.3940059 59.6882477,30.0972863 L60.7283571,30.5491422 L60.6238346,29.4492484 L60.1713906,24.6962625 L60.0982979,23.9426972 L59.3410573,24.1332133 L57.0686046,24.7040532 L56.6702492,16.6110164 L73.3163857,11.457876 L73.1818951,17.7477385 L74.4354353,18.0593633 L78.0710673,11.3084377 L88.9596901,20.6656795 L89.4135959,21.0573352 L89.8565378,20.6536395 C91.3483602,19.2952388 93.1164732,18.2052604 95.1111736,17.4141584 L95.9444306,17.0841194 L95.3735764,16.4091685 L93.4103059,14.090397 L105.911354,0.128191096 L112.458269,9.5937933 L102.436526,14.8135081 L100.210853,15.9736021 L102.737668,16.0253035 C107.488695,16.1223321 111.695912,18.0699869 114.582344,21.5084829 L115.626108,22.7556902 L116.298561,23.5567074 L115.181704,24.7054696 L114.436889,25.4717833 L111.932733,28.0596853 L111.467132,28.540579 L111.970741,28.9811031 L114.317748,31.0286194 L115.22556,31.8197214 L115.419986,30.652545 L116.320489,25.250813 L116.550731,23.8640828 L116.55804,23.8718734 L116.79486,22.4553972 L118.139036,14.4806362 L130.139399,14.4806362 L130.702213,14.4806362 L130.797233,13.9430835 L131.031861,12.5776004 L141.83862,12.5776004 L144.456801,28.5986545 L144.627107,29.6362233 L145.50422,29.0193479 C146.564795,28.272865 147.736472,27.6588225 148.987819,27.1949266 C150.653602,26.5858418 152.368357,26.2749253 154.080189,26.2749253 C156.118014,26.2749253 158.096634,26.7310306 159.807735,27.5929564 C159.853052,27.6248271 159.917374,27.6659049 160.005085,27.6999003 L160.817145,28.0157745 L160.912897,27.1715547 L161.108785,25.4257478 L161.173107,24.8534914 L160.59202,24.7281333 L158.4007,24.2536137 L158.293984,15.9020701 L175.000788,19.4652159 L176.25579,25.4746162 L177.553186,25.4994046 L178.847658,20.3278499 L192.779131,23.6105335 L178.54213,65.1862347 L168.354467,62.0862766 L168.282105,58.2568332 L168.271872,57.7079486 L167.709789,57.6314589 L157.544053,56.2411875 L158.119293,51.2346524 L158.255976,50.0433959 L157.155931,50.5894475 C156.63478,50.8465379 156.13044,51.0625505 155.653875,51.2325277 C153.991747,51.8416124 152.289417,52.149696 150.594397,52.149696 C150.103945,52.149696 149.6113,52.1234912 149.131812,52.0710816 L148.26347,51.9768859 L148.399423,52.8126069 L149.115,57.2157231 L134.283756,54.680939 L133.50678,48.1467343 L133.256803,46.0524742 L132.257626,47.9243475 L130.55018,51.1149602 L127.406462,45.4915496 L126.461373,43.8024018 L126.163155,45.7004799 L125.478276,50.0533112 L112.479466,48.0709528 L113.487415,42.0969644 L113.717657,40.7272319 L112.488968,41.4390112 C110.361239,42.6748867 107.917749,43.6048033 105.021085,44.2825872 C104.008751,44.5219717 102.951099,44.6876994 101.874443,44.7741044 L101.26485,44.8236811 L101.26485,45.4164764 L101.26485,56.6902105 L75.6655858,44.4313172 L74.7036856,43.9716707 L74.7044165,45.010656 L74.7219588,55.4954128 L63.2763694,57.1293181 L62.7954193,52.0944534 L62.6653143,50.7473846 L61.6675986,51.6950072 C60.1553102,53.1291893 58.4515189,54.2411231 56.6044658,55.0003544 C54.7150189,55.778708 52.765636,56.1724884 50.8118676,56.1724884 C48.8610228,56.1724884 47.0278573,55.7772916 45.3628051,55.0046038 C42.2782923,53.5668805 40.0533498,50.9584395 39.0987589,47.6672571 C38.6441221,46.1211733 38.5205954,44.4886845 38.7318334,42.8129931 L38.9576899,41.0282331 L37.6142457,42.2676498 C36.666964,43.1387827 35.6465896,43.9709624 34.5794359,44.7351513 L34.2176269,44.9936583 L34.3316515,45.4150599 L38.1872926,59.755465 L38.8685168,62.3001645 L36.2868818,63.0955159 L29.0273127,65.347713 L26.5977106,66.1055278 Z M29.8561842,27.6085376 C29.4819494,27.6085376 29.0952889,27.6418248 28.7057047,27.7098157 L28.2115979,27.8018866 L27.4821325,27.9378683 L27.7021416,28.6262758 L27.8454034,29.0738822 L29.9212367,35.6555389 L30.12882,36.2879955 L30.4372713,37.2370346 L31.2047449,36.5755402 L31.7142011,36.1357243 C33.7264438,34.3835433 34.4317886,32.6044492 34.0071198,30.3607509 C33.7396005,29.0143902 32.6636756,28.3436888 32.0453112,28.0632265 C31.3991715,27.761517 30.6594732,27.6085376 29.8561842,27.6085376 Z M85.5053281,27.8245502 L84.2079322,29.0483857 L80.7908475,32.2659114 L80.0467636,32.9663588 L81.0152421,33.3289767 L84.6801112,34.6994175 L85.8057391,35.1194027 L85.5733043,33.9734734 C85.2707004,32.4932558 85.1917603,31.0116217 85.3335602,29.5703572 L85.5053281,27.8245502 Z M100.427938,24.165084 C99.0106703,24.165084 97.6394508,24.7557545 96.6651248,25.7841163 C95.18719,27.347906 94.8999356,29.6546375 95.951009,31.5229696 L96.2294922,32.0293598 L96.6775506,32.838876 L97.3083408,32.154718 L97.7140054,31.7191515 L102.726704,26.1736472 L103.120674,25.7345396 L103.752926,25.0305509 L102.850962,24.7068861 L102.288879,24.5057465 C101.699021,24.2819433 101.067499,24.165084 100.427938,24.165084 Z" id="path86"></path>
            </g>
            <g id="g160" transform="translate(27.232130, 27.649395)">
                <g id="g162">
                    <path d="M9.93183907,4.35212312 C9.27473549,0.93558253 4.66404659,-0.947622578 0.0928277569,1.46817758 L1.27108244,5.37836013 L3.12471387,11.1568748 L3.97039666,13.7886876 C7.39990718,11.6519332 10.8469599,9.08457011 9.93183907,4.35212312 Z M5.39131917,9.60583335 C4.89209588,8.02717063 3.79716691,4.61842065 3.79716691,4.61842065 C3.8022834,4.63400189 3.58154338,3.88893541 3.31987143,3.03621673 C4.28908093,2.8683643 5.22028221,2.93635516 5.98629393,3.29330717 C6.41461728,3.49090559 7.16747232,3.9519686 7.33193094,4.82593441 C7.71055124,6.7905869 7.02713429,8.19289834 5.39131917,9.60583335 Z" id="path164"></path>
                </g>
            </g>
            <polygon id="polygon172" fill="#FFFFFF" points="117.348878 25.5877138 112.784238 29.8491825 117.120829 33.6226751"></polygon>
            <path d="M159.675426,34.718316 C159.744886,34.98674 159.780746,35.25233 159.771826,35.534916 C159.695806,37.224772 158.056338,38.529348 156.101842,38.440816 C154.148808,38.375676 152.614592,36.939352 152.691318,35.253746 C152.757158,33.673666 154.210202,32.422918 156.004622,32.342888 C155.664018,32.268528 155.30804,32.229588 154.936728,32.216808 C151.667296,32.080128 148.99502,34.323816 148.882468,37.117108 C148.756788,40.104456 151.228008,42.540086 154.44556,42.67536 C157.719386,42.80214 160.390176,40.550644 160.520288,37.577462 C160.558308,36.546976 160.24401,35.558984 159.67533,34.718304" id="path174" fill="#FFFFFF"></path>
            <path d="M60.492244,38.129902 C60.492244,39.82684 58.899562,41.186656 56.948716,41.186656 C54.992752,41.186656 53.405916,39.826128 53.405916,38.129902 C53.405916,36.548406 54.80197,35.244538 56.591294,35.092974 C56.248482,35.032774 55.89178,34.998094 55.5234,34.998094 C52.254688,34.998094 49.675978,37.347318 49.675978,40.14486 C49.675978,43.130082 52.255434,45.471516 55.47078,45.471516 C58.742396,45.471516 61.318918,43.128666 61.318918,40.14486 C61.318918,39.11154 60.966612,38.137714 60.360688,37.335986 C60.442648,37.577496 60.492128,37.84521 60.492128,38.12992" id="path183" fill="#FFFFFF"></path>
            <g id="g185" transform="translate(0.918750, 0.028109)" fill="#B74A50">
                <g id="g187">
                    <path d="M179.091787,20.9624313 L177.640166,26.7593601 L176.299645,20.3405982 L158.348804,16.5118631 L158.474523,26.1835626 L161.179685,26.7714002 L160.984527,28.5157906 C160.949443,28.5023341 160.927515,28.4817952 160.908511,28.4669222 C157.555017,26.7522778 153.397503,26.5766347 149.484849,28.0086921 C148.172104,28.4952517 146.953649,29.1347907 145.848487,29.9124362 L143.140401,13.3481635 L131.202167,13.3481635 L130.87325,15.2526157 L118.30788,15.2526157 L116.87307,23.7677624 L115.830767,22.5205551 C112.785725,18.8957925 108.371655,16.8992693 103.481752,16.800116 L114.150366,11.2439881 L106.710989,0.486559575 L93.2699679,15.4934167 L95.5899309,18.2342981 C93.4885151,19.0664779 91.652426,20.2138236 90.1313664,21.5998456 L78.6068369,11.6923028 L74.5772352,19.1755466 L74.7321918,11.9840969 L56.7141049,17.5614719 L57.1760509,26.9413773 L60.2415596,26.1708143 L60.6947345,30.9245084 C57.1921313,29.40038 52.9819905,29.4379166 49.0773773,31.03641 C47.9203195,31.5250943 46.8414709,32.1256802 45.8474099,32.824003 C46.5227866,29.9280174 46.3627136,27.0731096 45.223929,24.5269936 C43.8790229,21.5183982 41.5122805,19.0317742 38.6104995,17.4630268 C36.576329,16.1499534 34.1518434,15.3319384 31.614795,15.0536008 C25.3799859,13.9976178 17.8930983,15.0819303 10.524621,18.123813 C7.81580476,19.2435374 5.28898936,20.5141166 3.00995829,21.9206774 L0.129374118,23.6905644 L1.8689809,26.5369734 L7.26760935,35.3779096 C7.26760935,35.3779096 8.91950487,38.0869203 8.93046877,38.0855038 L11.8497921,36.6952324 L12.2569186,36.5139235 L25.6716258,65.5240643 L26.965367,68.3123977 L29.9607067,67.3775234 L37.218814,65.124618 L40.3998093,64.1451247 L39.5607049,61.0076299 L35.7057947,46.6693496 C36.8146113,45.8739982 37.8496042,45.0304866 38.8049261,44.1473137 C38.5893026,45.8605417 38.7025963,47.5950168 39.1893938,49.2551269 C40.1973425,52.7311595 42.5465425,55.4769986 45.806478,56.998294 C49.3273544,58.6378653 53.6230136,58.6421147 57.5970649,57.0089176 C59.5903035,56.1894861 61.362802,54.9939802 62.8648574,53.5711299 L63.4123219,59.2816537 L76.1231463,57.4678559 L76.1034112,46.4242992 L102.663114,59.1435473 L102.663114,46.8279949 C103.728805,46.7415899 104.816425,46.5786951 105.909892,46.3187717 C108.835063,45.6339055 111.338489,44.6947818 113.5627,43.4036637 L112.447305,50.0178993 L126.767631,52.2013974 L127.553378,47.2083188 L131.293533,53.9032936 L133.579873,49.6347425 L134.415323,56.6434668 L150.651409,59.4169272 L149.790377,54.1242638 C152.013127,54.3678977 154.355748,54.0789366 156.618699,53.2517145 C157.154469,53.059782 157.68366,52.8260634 158.190193,52.5753471 L157.543322,58.2065482 L168.34935,59.6839329 L168.429752,63.9779805 L179.697726,67.4051447 L194.368166,24.5602808 L179.091787,20.9624313 Z M115.652421,27.3294918 L116.397236,26.5624699 L115.497465,31.9642019 L113.150457,29.9159773 L115.652421,27.3294918 Z M106.137211,5.26362556 L110.071061,10.4415543 L98.8242839,15.8439945 L98.0473082,14.70019 L106.137211,5.26362556 Z M31.6637672,45.1919649 L36.1509294,61.8745134 L28.8884365,64.1224611 L13.9855614,31.8735475 C13.1749631,32.2864503 11.6780242,32.9791071 10.3031501,33.6321027 L4.90671443,24.7989571 C7.05271675,23.4710106 9.40630239,22.2939189 11.9097281,21.2690984 C18.9354006,18.373821 25.6387341,17.5097705 31.0000853,18.4276471 C32.8968414,18.6344526 34.9046985,19.1762548 36.6633094,20.307311 C39.0761001,21.6239257 40.9216913,23.4979237 41.9859214,25.8846861 C44.5814439,31.6964879 40.2455837,40.0600717 31.6637672,45.1919649 Z M65.0532535,42.2230308 C64.9699278,44.7068218 64.0284935,47.1955705 62.4526145,49.3011624 C60.9534827,51.3373469 58.8593762,53.0179959 56.3954206,54.0456494 C50.0948279,56.632135 43.7942353,54.0456494 42.1109099,48.2494288 C40.4802113,42.6451407 44.2744545,35.9735378 50.3791586,33.4252971 C54.2779244,31.8303449 58.1898469,32.2085441 60.9922219,34.0535043 C62.7230575,35.1909347 64.0431121,36.9013297 64.6592837,39.0444582 C64.736762,39.2718026 64.7879269,39.5104789 64.8398228,39.7441975 C65.0159762,40.560796 65.0868762,41.3979334 65.0532535,42.2230308 Z M99.3344711,54.0173199 L72.9808901,41.2456622 L73.0276695,54.6271129 L66.2103113,55.5279918 L65.7352086,50.0122334 C67.840279,46.5149537 68.6099454,42.3937162 67.5113617,38.6145577 C66.9083468,36.5372953 65.7944137,34.7341211 64.2806634,33.2893154 L63.3026828,22.0432026 L60.2415596,22.8123492 L60.1063381,19.9687732 L71.054166,16.8100313 L71.7251572,27.7508935 L79.7902081,16.7710782 L87.67472,24.0468082 L76.6486829,35.3021281 L87.0073835,39.2725109 C88.1644413,41.3972252 89.9296305,43.2025241 92.14434,44.5325953 C94.2852258,45.8130897 96.7382176,46.5701963 99.3330092,46.8187878 L99.3344711,54.0173199 Z M85.6507826,35.5138913 L81.9851826,34.1434506 L85.4022673,30.9252166 C85.2560819,32.4026013 85.3313674,33.9472686 85.6507826,35.5138913 Z M114.330174,38.8596081 C111.801166,40.8865855 108.918389,42.2081578 105.109527,43.0998296 C104.277001,43.2846797 103.461286,43.419245 102.663114,43.4872358 C96.6176146,44.0630334 91.5457106,41.3731451 89.6211792,37.0103984 C89.3814351,36.4820528 89.1965105,35.947333 89.0569034,35.3764931 C88.1666341,31.7021538 88.9267984,28.4180538 90.8001648,25.8450247 C91.3395891,25.0942924 91.9798814,24.4101344 92.6991137,23.7939672 C94.4635721,22.2684223 96.7162898,21.1593215 99.2774587,20.562985 C105.036434,19.2173326 110.108338,20.9206452 113.217703,24.6176481 L102.243561,35.9360012 C102.987645,36.0719829 104.171016,35.8828833 105.044474,35.6803272 C107.65827,35.0627436 109.120856,33.7185077 110.40948,32.2538713 L114.795044,36.0769406 L116.123869,37.2398675 C115.547899,37.8170816 114.942691,38.3617167 114.330174,38.8596081 Z M137.612399,53.964202 L135.22519,38.6414707 L131.849038,47.0942925 L126.793945,36.5295047 L126.736933,36.5295047 L124.739308,48.7643179 L116.31391,47.3435923 L117.498743,40.516177 C117.816697,40.2265076 118.129534,39.93613 118.437254,39.6294629 L121.167998,36.9048709 L118.514001,34.6016806 L121.333919,18.3426586 L129.834602,18.3426586 L131.962331,29.5979784 L134.346616,16.5543573 L140.427199,16.5543573 L142.95036,32.4458038 C139.739397,35.9898273 138.179598,40.754145 139.252599,45.1126423 C140.082202,48.4916462 142.22528,51.212697 145.297367,52.8019833 C145.60655,52.952838 145.926696,53.1022763 146.257075,53.2311756 L146.578683,55.2914402 L137.612399,53.964202 Z M158.608283,48.9718317 C157.679275,49.6127871 156.656707,50.1574222 155.557393,50.5504944 C153.38727,51.3515117 151.228842,51.5179476 149.305772,51.1475391 C147.965252,50.8911569 146.743141,50.3847667 145.679642,49.6517402 C143.988277,48.4661497 142.742777,46.7153851 142.19385,44.517014 C141.553558,41.8759941 142.143416,39.05579 143.609656,36.5854555 C144.340584,35.3779096 145.278363,34.2433121 146.387911,33.2652353 C147.625371,32.1901299 149.060181,31.3097899 150.656526,30.7148699 C154.371829,29.3720505 158.035967,29.8352382 160.615409,31.6320383 C161.564153,32.2836173 162.351361,33.1129641 162.971919,34.0768762 C163.442636,34.8382321 163.808099,35.6774943 164.02957,36.5939544 C164.819703,39.7654446 163.878999,43.1621545 161.81413,45.8987865 C160.929708,47.0652547 159.85159,48.1134471 158.608283,48.9718317 Z M177.579499,63.414223 L171.349075,61.6160065 L170.805996,39.3589159 L167.672511,56.5287322 L160.875619,55.4777068 L161.362417,50.5342049 C165.800607,46.9002352 168.153462,41.167756 166.864106,35.9728296 C166.297637,33.6724722 165.076989,31.6695749 163.356386,30.146863 L163.930164,24.3166469 L161.360224,23.6537361 L161.531992,20.5410296 L173.242177,22.8215563 L177.179682,40.9142068 L181.218055,24.6934296 L190.126596,26.6007148 L177.579499,63.414223 Z" id="path196"></path>
                </g>
            </g>
        </g>
    </g>
</svg>