<?xml version="1.0" encoding="UTF-8"?>
<svg width="300px" height="300px" viewBox="0 0 300 300" version="1.1" xmlns="http://www.w3.org/2000/svg" xmlns:xlink="http://www.w3.org/1999/xlink">
    <!-- Generator: Sketch 49.3 (51167) - http://www.bohemiancoding.com/sketch -->
    <title>Oval 2</title>
    <desc>Created with Sketch.</desc>
    <defs>
        <polygon id="path-1" points="0.014169658 0.0420366522 156.320848 0.0420366522 156.320848 149.253731 0.014169658 149.253731"></polygon>
    </defs>
    <g id="Page-1" stroke="none" stroke-width="1" fill="none" fill-rule="evenodd">
        <circle id="Oval-2" fill="#EC5F67" cx="150" cy="151" r="150"></circle>
        <g id="runkeeper-seeklogo.com-2" transform="translate(72.000000, 76.000000)">
            <mask id="mask-2" fill="white">
                <use xlink:href="#path-1"></use>
            </mask>
            <g id="Clip-2"></g>
            <path d="M27.6390988,130.206405 C26.2384281,131.436803 24.6091536,132.494804 22.9300491,133.302475 C18.6293217,135.371245 16.3905158,134.093614 15.3962781,129.462498 C14.501228,125.294257 14.888532,121.128377 15.6962025,117.099471 C19.3781882,98.7261477 28.0308899,82.636501 39.0008029,67.6733422 C39.551058,66.9247119 41.1498677,64.6174192 41.1498677,64.6174192 C41.1498677,64.6174192 42.2052711,67.6119403 42.4393066,68.5518609 C44.1181749,75.2942566 44.9922067,82.140563 45.0181844,91.7523144 C44.4797374,105.022199 40.0491215,119.314661 27.6390988,130.206405 Z M128.144483,54.9607973 C126.207963,32.2586435 108.594842,16.3650104 86.2115058,18.4644814 C72.1103344,19.7869828 59.7617136,25.539864 49.1672964,34.7902891 C47.6938882,36.0797279 45.8468732,37.5769885 45.8468732,37.5769885 C45.8468732,37.5769885 44.1819384,35.4822407 43.1995088,33.9330247 C37.5056679,24.9541848 30.3783299,17.6048555 19.3592953,15.3660495 C17.5928113,16.2398451 16.3151804,17.498583 16.0598904,19.5626299 C18.3931608,24.6424523 20.1008407,29.9584357 24.0777914,34.2730965 C28.6734838,39.2608162 32.811024,44.7066881 35.545768,51.035802 C36.1831664,52.511808 39.8625543,61.0584735 39.8625543,61.0584735 C36.0535141,57.0508218 30.5462403,53.6335726 30.5462403,53.6335726 C30.5462403,53.6335726 29.1219535,55.4567353 27.818345,57.128755 C19.8056395,67.401757 12.8648687,78.3478179 8.02829208,90.4723219 C2.96027773,103.170697 -0.886784432,116.197336 0.178065369,130.119025 C1.37091442,145.672586 15.4437465,153.650104 29.3914132,146.758927 C42.4770924,140.29284 50.440204,129.318439 55.2271869,116.036747 C62.5788778,95.6466087 61.2684206,75.214198 54.003873,55.0529001 C53.557765,53.813055 52.8915549,51.8930663 52.8915549,51.8930663 C52.8915549,51.8930663 54.4124315,50.3651049 55.3310977,49.5479879 C60.545768,44.9074249 66.2252031,40.9753448 72.5663612,38.1036274 C78.7936898,35.2815039 85.3353486,33.1253542 92.2480162,33.6826941 C106.254487,34.8115435 113.374976,48.0979596 112.600132,59.681655 C111.313055,78.921689 93.1404685,90.3424334 76.3399773,88.4673153 C75.5018421,88.3728509 74.6138768,88.0658417 73.909881,87.6076894 C73.1992726,87.1424523 73.220291,86.2946344 73.7282732,85.6026828 C74.2759305,84.8564141 75.1993199,84.735972 75.6621954,85.4066692 C77.8634517,88.5972039 78.3402607,88.2807482 82.610051,87.9241451 C84.8089458,87.7399395 86.4972605,87.4187606 86.4972605,87.4187606 C86.4972605,87.4187606 86.5494521,86.1552995 84.9527678,84.1384848 C80.2415927,78.1848668 69.8762517,79.5475156 65.9040242,86.4410542 C60.9706216,95.0018893 66.8630739,104.0256 77.7737106,104.897034 C104.915454,107.064991 130.59796,83.7157567 128.144483,54.9607973 Z" id="Fill-1" fill="#FFFFFF" mask="url(#mask-2)"></path>
            <path d="M151.236303,102.641697 C152.540856,120.841442 146.213867,133.108114 130.920792,140.533251 C108.558237,151.390043 78.4354336,142.190629 72.0971094,110.446108 C71.9492726,109.705743 71.7428679,108.370489 71.7081523,104.537597 C80.8929246,108.476289 88.8716229,107.76946 88.8716229,107.76946 C88.8716229,107.76946 88.8338371,108.758974 89.1802853,110.320707 C89.3703949,111.175845 89.6996032,112.00477 90.0151143,112.825902 C93.7410259,122.515114 100.162715,129.057718 110.975817,129.848857 C121.66092,130.631022 129.713537,125.663376 134.470291,116.493954 C137.616664,110.428396 142.326422,105.884187 146.381305,100.690771 C148.325619,100.526639 150.085018,100.827744 151.236303,102.641697" id="Fill-3" fill="#FFFFFF" mask="url(#mask-2)"></path>
            <path d="M19.3592953,15.3662857 C17.5918666,16.2398451 16.3144719,17.4995277 16.0605989,19.5621576 C11.4148404,14.8391744 6.74522955,10.1407519 2.1393822,5.37974684 C0.918430002,4.11770263 0.284101644,2.56211033 1.75750992,1.05658417 C3.32349329,-0.543878708 4.94402985,-0.102730021 6.34611751,1.34965993 C10.7741357,5.93732288 15.4059607,10.3370017 19.3592953,15.3662857" id="Fill-4" fill="#FFFFFF" mask="url(#mask-2)"></path>
            <path d="M151.236303,102.641697 C150.085018,100.827744 148.325619,100.526639 146.381305,100.690771 C147.236444,94.357406 149.410778,88.3454563 150.945589,82.177168 C151.364774,80.490034 152.617608,79.6313527 154.381967,80.1492537 C156.454988,80.7571321 156.533157,82.5311732 156.126015,84.1533629 C154.571604,90.3351124 152.877385,96.4819101 151.236303,102.641697" id="Fill-5" fill="#FFFFFF" mask="url(#mask-2)"></path>
        </g>
    </g>
</svg>