<?xml version="1.0" encoding="UTF-8"?>
<svg width="300px" height="300px" viewBox="0 0 300 300" version="1.1" xmlns="http://www.w3.org/2000/svg" xmlns:xlink="http://www.w3.org/1999/xlink">
    <!-- Generator: Sketch 50.2 (55047) - http://www.bohemiancoding.com/sketch -->
    <title>Oval-2</title>
    <desc>Created with Sketch.</desc>
    <defs>
        <linearGradient x1="50%" y1="100%" x2="50%" y2="3.55271367e-13%" id="linearGradient-1">
            <stop stop-color="#DBDBDA" offset="25%"></stop>
            <stop stop-color="#FFFFFF" offset="100%"></stop>
        </linearGradient>
        <radialGradient cx="57.0254209%" cy="39.0167405%" fx="57.0254209%" fy="39.0167405%" r="61.0315689%" id="radialGradient-2">
            <stop stop-color="#2ABCE1" offset="0%"></stop>
            <stop stop-color="#2ABBE1" offset="11.3629426%"></stop>
            <stop stop-color="#3375F8" offset="100%"></stop>
        </radialGradient>
        <linearGradient x1="49.0502524%" y1="35.7034487%" x2="25.7128956%" y2="77.5718894%" id="linearGradient-3">
            <stop stop-color="#000000" stop-opacity="0" offset="0%"></stop>
            <stop stop-color="#000000" offset="100%"></stop>
        </linearGradient>
    </defs>
    <g id="Page-1" stroke="none" stroke-width="1" fill="none" fill-rule="evenodd">
        <g id="safari-seeklogo.com" transform="translate(50.000000, 50.000000)" fill-rule="nonzero">
            <circle id="Oval" fill="url(#linearGradient-1)" cx="100" cy="100" r="100"></circle>
            <circle id="Oval" fill="url(#radialGradient-2)" cx="100" cy="100" r="92.5"></circle>
            <g id="Group" transform="translate(7.812500, 7.031250)">
                <path d="M92.34375,22.96875 C91.71875,22.96875 91.171875,22.5 91.171875,21.875 L91.171875,5.546875 C91.171875,4.921875 91.71875,4.453125 92.34375,4.453125 C92.96875,4.453125 93.515625,4.921875 93.515625,5.546875 L93.515625,21.875 C93.4375,22.5 92.96875,22.96875 92.34375,22.96875 Z" id="Shape" fill="#F3F3F3"></path>
                <path d="M92.34375,23.046875 C91.640625,23.046875 91.09375,22.5 91.09375,21.875 L91.09375,5.546875 C91.09375,4.921875 91.640625,4.375 92.34375,4.375 C93.046875,4.375 93.59375,4.921875 93.59375,5.546875 L93.59375,21.875 C93.59375,22.5 92.96875,23.046875 92.34375,23.046875 Z M92.34375,4.53125 C91.796875,4.53125 91.25,5 91.25,5.546875 L91.25,21.875 C91.25,22.421875 91.71875,22.890625 92.34375,22.890625 C92.890625,22.890625 93.4375,22.421875 93.4375,21.875 L93.4375,5.546875 C93.359375,5 92.890625,4.53125 92.34375,4.53125 Z" id="Shape" fill="#FFFFFF"></path>
                <path d="M100.15625,14.21875 C99.53125,14.140625 99.0625,13.671875 99.0625,13.046875 L99.609375,5.78125 C99.6875,5.15625 100.234375,4.6875 100.859375,4.765625 C101.484375,4.84375 101.953125,5.3125 101.953125,5.9375 L101.40625,13.203125 C101.328125,13.828125 100.78125,14.296875 100.15625,14.21875 Z" id="Shape" fill="#F3F3F3"></path>
                <path d="M100.15625,14.296875 C99.453125,14.21875 98.984375,13.671875 98.984375,13.046875 L99.53125,5.78125 C99.609375,5.15625 100.15625,4.609375 100.859375,4.6875 C101.5625,4.765625 102.03125,5.3125 102.03125,5.9375 L101.484375,13.203125 C101.40625,13.90625 100.859375,14.375 100.15625,14.296875 Z M100.859375,4.84375 C100.3125,4.84375 99.765625,5.234375 99.765625,5.78125 L99.21875,13.046875 C99.21875,13.59375 99.609375,14.0625 100.234375,14.140625 C100.78125,14.140625 101.328125,13.75 101.328125,13.203125 L101.875,5.9375 C101.875,5.390625 101.40625,4.921875 100.859375,4.84375 Z" id="Shape" fill="#FFFFFF"></path>
                <path d="M106.015625,24.375 C105.390625,24.21875 105,23.671875 105.078125,23.046875 L108.28125,7.03125 C108.4375,6.40625 108.984375,6.015625 109.609375,6.171875 C110.234375,6.328125 110.625,6.875 110.546875,7.5 L107.34375,23.515625 C107.265625,24.0625 106.640625,24.453125 106.015625,24.375 Z" id="Shape" fill="#F3F3F3"></path>
                <path d="M106.015625,24.453125 C105.3125,24.296875 104.921875,23.671875 105,23.046875 L108.203125,7.03125 C108.359375,6.40625 108.984375,5.9375 109.6875,6.09375 C110.390625,6.25 110.78125,6.875 110.703125,7.5 L107.5,23.515625 C107.34375,24.140625 106.71875,24.53125 106.015625,24.453125 Z M109.6875,6.25 C109.140625,6.171875 108.59375,6.484375 108.4375,7.03125 L105.234375,23.046875 C105.15625,23.59375 105.46875,24.140625 106.09375,24.296875 C106.640625,24.375 107.1875,24.0625 107.34375,23.515625 L110.546875,7.5 C110.625,6.875 110.234375,6.40625 109.6875,6.25 Z" id="Shape" fill="#FFFFFF"></path>
                <path d="M115.390625,17.34375 C114.765625,17.1875 114.375,16.5625 114.53125,15.9375 L116.484375,8.90625 C116.640625,8.28125 117.265625,7.96875 117.890625,8.125 C118.515625,8.28125 118.90625,8.90625 118.75,9.53125 L116.796875,16.5625 C116.640625,17.1875 116.015625,17.5 115.390625,17.34375 Z" id="Shape" fill="#F3F3F3"></path>
                <path d="M115.390625,17.421875 C114.765625,17.265625 114.296875,16.5625 114.53125,15.9375 L116.484375,8.90625 C116.640625,8.28125 117.34375,7.890625 117.96875,8.046875 C118.59375,8.203125 119.0625,8.90625 118.828125,9.53125 L116.875,16.5625 C116.71875,17.1875 116.09375,17.578125 115.390625,17.421875 Z M117.96875,8.28125 C117.421875,8.125 116.796875,8.4375 116.640625,8.984375 L114.6875,16.015625 C114.53125,16.5625 114.84375,17.109375 115.46875,17.265625 C116.015625,17.421875 116.640625,17.109375 116.796875,16.5625 L118.75,9.53125 C118.828125,8.984375 118.515625,8.4375 117.96875,8.28125 Z" id="Shape" fill="#FFFFFF"></path>
                <path d="M119.21875,28.359375 C118.59375,28.125 118.359375,27.421875 118.59375,26.875 L124.84375,11.796875 C125.078125,11.25 125.78125,10.9375 126.328125,11.25 C126.953125,11.484375 127.1875,12.1875 126.953125,12.734375 L120.703125,27.8125 C120.46875,28.359375 119.765625,28.671875 119.21875,28.359375 Z" id="Shape" fill="#F3F3F3"></path>
                <path d="M119.21875,28.4375 C118.59375,28.203125 118.28125,27.5 118.515625,26.875 L124.765625,11.796875 C125,11.171875 125.703125,10.9375 126.40625,11.171875 C127.03125,11.40625 127.34375,12.109375 127.109375,12.734375 L120.859375,27.8125 C120.546875,28.4375 119.84375,28.75 119.21875,28.4375 Z M126.328125,11.328125 C125.78125,11.09375 125.15625,11.328125 124.921875,11.875 L118.671875,26.953125 C118.4375,27.5 118.75,28.046875 119.296875,28.28125 C119.84375,28.515625 120.46875,28.28125 120.703125,27.734375 L126.953125,12.65625 C127.109375,12.1875 126.875,11.5625 126.328125,11.328125 Z" id="Shape" fill="#FFFFFF"></path>
                <path d="M129.765625,23.359375 C129.21875,23.046875 128.984375,22.421875 129.21875,21.875 L132.5,15.390625 C132.8125,14.84375 133.4375,14.609375 134.0625,14.921875 C134.609375,15.234375 134.84375,15.859375 134.609375,16.40625 L131.328125,22.890625 C131.015625,23.4375 130.390625,23.671875 129.765625,23.359375 Z" id="Shape" fill="#F3F3F3"></path>
                <path d="M129.765625,23.4375 C129.140625,23.125 128.90625,22.421875 129.21875,21.796875 L132.5,15.3125 C132.8125,14.6875 133.515625,14.453125 134.140625,14.765625 C134.765625,15.078125 135,15.78125 134.6875,16.40625 L131.40625,22.890625 C131.09375,23.515625 130.390625,23.75 129.765625,23.4375 Z M134.0625,14.921875 C133.515625,14.6875 132.890625,14.84375 132.65625,15.390625 L129.375,21.875 C129.140625,22.34375 129.375,22.96875 129.84375,23.28125 C130.390625,23.515625 131.015625,23.359375 131.25,22.8125 L134.53125,16.328125 C134.765625,15.859375 134.53125,15.234375 134.0625,14.921875 Z" id="Shape" fill="#FFFFFF"></path>
                <path d="M131.328125,34.921875 C130.78125,34.53125 130.625,33.828125 131.015625,33.359375 L140.078125,19.84375 C140.390625,19.296875 141.09375,19.21875 141.640625,19.53125 C142.1875,19.921875 142.34375,20.625 141.953125,21.09375 L132.890625,34.609375 C132.578125,35.15625 131.875,35.3125 131.328125,34.921875 Z" id="Shape" fill="#F3F3F3"></path>
                <path d="M131.328125,35 C130.78125,34.609375 130.625,33.828125 130.9375,33.28125 L140,19.765625 C140.390625,19.21875 141.09375,19.0625 141.71875,19.453125 C142.265625,19.84375 142.421875,20.625 142.109375,21.171875 L133.046875,34.6875 C132.65625,35.234375 131.875,35.390625 131.328125,35 Z M141.640625,19.609375 C141.171875,19.296875 140.46875,19.375 140.15625,19.84375 L131.09375,33.359375 C130.78125,33.828125 130.9375,34.453125 131.40625,34.765625 C131.875,35.078125 132.578125,35 132.890625,34.53125 L141.953125,21.09375 C142.265625,20.625 142.109375,19.921875 141.640625,19.609375 Z" id="Shape" fill="#FFFFFF"></path>
                <path d="M142.734375,32.03125 C142.265625,31.640625 142.109375,30.9375 142.5,30.46875 L147.03125,24.765625 C147.421875,24.296875 148.125,24.21875 148.59375,24.609375 C149.0625,25 149.21875,25.703125 148.828125,26.171875 L144.296875,31.875 C143.90625,32.34375 143.203125,32.421875 142.734375,32.03125 Z" id="Shape" fill="#F3F3F3"></path>
                <path d="M142.65625,32.109375 C142.109375,31.71875 142.03125,30.9375 142.421875,30.390625 L146.953125,24.6875 C147.34375,24.140625 148.125,24.0625 148.671875,24.53125 C149.21875,24.921875 149.296875,25.703125 148.90625,26.25 L144.375,31.953125 C143.984375,32.5 143.203125,32.578125 142.65625,32.109375 Z M148.515625,24.6875 C148.046875,24.296875 147.421875,24.375 147.03125,24.84375 L142.5,30.546875 C142.1875,31.015625 142.265625,31.640625 142.734375,32.03125 C143.203125,32.421875 143.828125,32.34375 144.21875,31.875 L148.75,26.171875 C149.0625,25.703125 148.984375,25 148.515625,24.6875 Z" id="Shape" fill="#FFFFFF"></path>
                <path d="M141.953125,43.75 C141.484375,43.28125 141.484375,42.578125 141.953125,42.1875 L153.515625,30.703125 C153.984375,30.234375 154.6875,30.3125 155.078125,30.703125 C155.46875,31.09375 155.546875,31.875 155.078125,32.265625 L143.59375,43.75 C143.125,44.21875 142.421875,44.21875 141.953125,43.75 Z" id="Shape" fill="#F3F3F3"></path>
                <path d="M141.875,43.828125 C141.40625,43.359375 141.40625,42.578125 141.875,42.109375 L153.4375,30.625 C153.90625,30.15625 154.6875,30.15625 155.15625,30.625 C155.625,31.09375 155.625,31.875 155.15625,32.34375 L143.59375,43.828125 C143.125,44.296875 142.34375,44.296875 141.875,43.828125 Z M155.078125,30.703125 C154.6875,30.3125 153.984375,30.3125 153.59375,30.703125 L142.03125,42.1875 C141.640625,42.578125 141.640625,43.28125 142.03125,43.671875 C142.421875,44.0625 143.125,44.0625 143.515625,43.671875 L155.078125,32.1875 C155.46875,31.796875 155.46875,31.171875 155.078125,30.703125 Z" id="Shape" fill="#FFFFFF"></path>
                <path d="M153.671875,43.125 C153.28125,42.65625 153.28125,41.953125 153.75,41.5625 L159.296875,36.875 C159.765625,36.484375 160.46875,36.5625 160.859375,37.03125 C161.25,37.5 161.25,38.203125 160.78125,38.59375 L155.234375,43.28125 C154.765625,43.671875 154.0625,43.59375 153.671875,43.125 Z" id="Shape" fill="#F3F3F3"></path>
                <path d="M153.59375,43.203125 C153.125,42.65625 153.203125,41.875 153.671875,41.484375 L159.21875,36.796875 C159.6875,36.328125 160.46875,36.40625 160.9375,36.953125 C161.40625,37.5 161.328125,38.28125 160.859375,38.671875 L155.3125,43.359375 C154.84375,43.828125 154.0625,43.75 153.59375,43.203125 Z M160.78125,37.03125 C160.390625,36.5625 159.765625,36.5625 159.296875,36.875 L153.75,41.5625 C153.359375,41.953125 153.28125,42.578125 153.671875,43.046875 C154.0625,43.515625 154.6875,43.515625 155.15625,43.203125 L160.703125,38.515625 C161.171875,38.125 161.171875,37.5 160.78125,37.03125 Z" id="Shape" fill="#FFFFFF"></path>
                <path d="M150.546875,54.375 C150.15625,53.828125 150.3125,53.125 150.859375,52.8125 L164.453125,43.75 C165,43.4375 165.703125,43.59375 166.015625,44.0625 C166.40625,44.609375 166.25,45.3125 165.703125,45.625 L152.109375,54.6875 C151.640625,55 150.9375,54.84375 150.546875,54.375 Z" id="Shape" fill="#F3F3F3"></path>
                <path d="M150.46875,54.375 C150.078125,53.828125 150.234375,53.046875 150.78125,52.65625 L164.375,43.59375 C164.921875,43.203125 165.703125,43.359375 166.09375,43.984375 C166.484375,44.53125 166.328125,45.3125 165.78125,45.703125 L152.1875,54.765625 C151.640625,55.15625 150.859375,55 150.46875,54.375 Z M165.9375,44.140625 C165.625,43.671875 165,43.515625 164.53125,43.828125 L150.9375,52.890625 C150.46875,53.203125 150.3125,53.828125 150.703125,54.375 C151.015625,54.84375 151.640625,55 152.109375,54.6875 L165.703125,45.625 C166.171875,45.234375 166.25,44.609375 165.9375,44.140625 Z" id="Shape" fill="#FFFFFF"></path>
                <path d="M162.1875,56.015625 C161.875,55.46875 162.03125,54.765625 162.578125,54.453125 L168.90625,50.859375 C169.453125,50.546875 170.15625,50.78125 170.46875,51.328125 C170.78125,51.875 170.625,52.578125 170.078125,52.890625 L163.75,56.484375 C163.203125,56.796875 162.5,56.5625 162.1875,56.015625 Z" id="Shape" fill="#F3F3F3"></path>
                <path d="M162.109375,56.09375 C161.796875,55.46875 161.953125,54.765625 162.5,54.453125 L168.828125,50.859375 C169.375,50.546875 170.15625,50.78125 170.46875,51.328125 C170.78125,51.953125 170.625,52.65625 170.078125,52.96875 L163.75,56.5625 C163.203125,56.875 162.421875,56.640625 162.109375,56.09375 Z M170.390625,51.40625 C170.078125,50.859375 169.453125,50.703125 168.984375,51.015625 L162.65625,54.609375 C162.1875,54.921875 162.03125,55.546875 162.265625,56.015625 C162.578125,56.5625 163.203125,56.71875 163.671875,56.40625 L170,52.8125 C170.46875,52.578125 170.625,51.953125 170.390625,51.40625 Z" id="Shape" fill="#FFFFFF"></path>
                <path d="M156.953125,66.40625 C156.71875,65.78125 156.953125,65.15625 157.578125,64.921875 L172.65625,58.671875 C173.203125,58.4375 173.90625,58.75 174.140625,59.296875 C174.375,59.921875 174.140625,60.546875 173.515625,60.78125 L158.4375,67.03125 C157.890625,67.265625 157.1875,67.03125 156.953125,66.40625 Z" id="Shape" fill="#F3F3F3"></path>
                <path d="M156.875,66.484375 C156.640625,65.859375 156.875,65.15625 157.5,64.84375 L172.578125,58.59375 C173.203125,58.359375 173.90625,58.671875 174.140625,59.296875 C174.375,59.921875 174.140625,60.625 173.515625,60.9375 L158.4375,67.1875 C157.8125,67.421875 157.109375,67.109375 156.875,66.484375 Z M173.984375,59.375 C173.75,58.828125 173.125,58.59375 172.65625,58.75 L157.578125,65 C157.03125,65.234375 156.796875,65.859375 157.03125,66.40625 C157.265625,66.953125 157.890625,67.1875 158.359375,67.03125 L173.4375,60.78125 C173.984375,60.546875 174.21875,59.921875 173.984375,59.375 Z" id="Shape" fill="#FFFFFF"></path>
                <path d="M167.96875,70.3125 C167.734375,69.6875 168.046875,69.0625 168.671875,68.828125 L175.546875,66.5625 C176.09375,66.328125 176.796875,66.71875 176.953125,67.265625 C177.1875,67.890625 176.875,68.515625 176.25,68.75 L169.375,71.015625 C168.828125,71.25 168.203125,70.9375 167.96875,70.3125 Z" id="Shape" fill="#F3F3F3"></path>
                <path d="M167.890625,70.390625 C167.65625,69.765625 167.96875,69.0625 168.671875,68.828125 L175.546875,66.5625 C176.171875,66.328125 176.875,66.71875 177.109375,67.34375 C177.34375,67.96875 177.03125,68.671875 176.328125,68.90625 L169.453125,71.171875 C168.828125,71.328125 168.125,71.015625 167.890625,70.390625 Z M176.953125,67.421875 C176.796875,66.875 176.171875,66.5625 175.625,66.71875 L168.75,68.984375 C168.203125,69.140625 167.96875,69.765625 168.125,70.3125 C168.28125,70.859375 168.90625,71.171875 169.453125,71.015625 L176.328125,68.75 C176.875,68.515625 177.109375,67.96875 176.953125,67.421875 Z" id="Shape" fill="#FFFFFF"></path>
                <path d="M160.9375,79.609375 C160.78125,78.984375 161.171875,78.359375 161.796875,78.28125 L177.8125,75.15625 C178.4375,75 178.984375,75.46875 179.140625,76.09375 C179.296875,76.71875 178.90625,77.34375 178.28125,77.421875 L162.265625,80.546875 C161.640625,80.625 161.015625,80.234375 160.9375,79.609375 Z" id="Shape" fill="#F3F3F3"></path>
                <path d="M160.78125,79.609375 C160.625,78.90625 161.09375,78.28125 161.71875,78.125 L177.734375,75 C178.359375,74.84375 178.984375,75.3125 179.140625,76.015625 C179.296875,76.71875 178.828125,77.34375 178.203125,77.5 L162.1875,80.625 C161.5625,80.78125 160.9375,80.3125 160.78125,79.609375 Z M178.984375,76.09375 C178.90625,75.546875 178.359375,75.15625 177.8125,75.234375 L161.796875,78.359375 C161.25,78.4375 160.859375,79.0625 161.015625,79.609375 C161.09375,80.15625 161.640625,80.546875 162.1875,80.46875 L178.203125,77.34375 C178.75,77.1875 179.140625,76.640625 178.984375,76.09375 Z" id="Shape" fill="#FFFFFF"></path>
                <path d="M170.9375,85.625 C170.859375,85 171.25,84.453125 171.875,84.375 L179.0625,83.515625 C179.6875,83.4375 180.234375,83.90625 180.3125,84.53125 C180.390625,85.15625 180,85.703125 179.375,85.78125 L172.1875,86.640625 C171.640625,86.71875 171.015625,86.25 170.9375,85.625 Z" id="Shape" fill="#F3F3F3"></path>
                <path d="M170.859375,85.625 C170.78125,84.921875 171.25,84.296875 171.875,84.21875 L179.0625,83.359375 C179.6875,83.28125 180.3125,83.75 180.390625,84.453125 C180.46875,85.15625 180,85.78125 179.375,85.859375 L172.1875,86.71875 C171.5625,86.796875 170.9375,86.328125 170.859375,85.625 Z M180.3125,84.53125 C180.234375,83.984375 179.6875,83.515625 179.140625,83.59375 L171.953125,84.453125 C171.40625,84.53125 171.015625,85.078125 171.09375,85.625 C171.171875,86.171875 171.71875,86.640625 172.265625,86.5625 L179.453125,85.703125 C180,85.625 180.390625,85.078125 180.3125,84.53125 Z" id="Shape" fill="#FFFFFF"></path>
                <path d="M162.1875,93.203125 C162.1875,92.578125 162.65625,92.03125 163.28125,92.03125 L179.609375,92.03125 C180.234375,92.03125 180.703125,92.578125 180.703125,93.203125 C180.703125,93.828125 180.234375,94.375 179.609375,94.375 L163.28125,94.375 C162.65625,94.375 162.1875,93.828125 162.1875,93.203125 Z" id="Shape" fill="#F3F3F3"></path>
                <path d="M162.109375,93.203125 C162.109375,92.5 162.65625,91.953125 163.28125,91.953125 L179.609375,91.953125 C180.234375,91.953125 180.78125,92.5 180.78125,93.203125 C180.78125,93.90625 180.234375,94.453125 179.609375,94.453125 L163.28125,94.453125 C162.65625,94.453125 162.109375,93.90625 162.109375,93.203125 Z M180.625,93.28125 C180.625,92.734375 180.15625,92.1875 179.609375,92.1875 L163.28125,92.1875 C162.734375,92.1875 162.265625,92.65625 162.265625,93.28125 C162.265625,93.828125 162.734375,94.375 163.28125,94.375 L179.609375,94.375 C180.15625,94.296875 180.625,93.828125 180.625,93.28125 Z" id="Shape" fill="#FFFFFF"></path>
                <path d="M170.859375,101.09375 C170.9375,100.46875 171.40625,100 172.03125,100 L179.296875,100.546875 C179.921875,100.625 180.390625,101.171875 180.3125,101.796875 C180.234375,102.421875 179.765625,102.890625 179.140625,102.890625 L171.875,102.34375 C171.328125,102.265625 170.859375,101.71875 170.859375,101.09375 Z" id="Shape" fill="#F3F3F3"></path>
                <path d="M170.78125,101.09375 C170.859375,100.390625 171.40625,99.921875 172.03125,99.921875 L179.296875,100.46875 C179.921875,100.546875 180.46875,101.09375 180.390625,101.796875 C180.3125,102.5 179.765625,102.96875 179.140625,102.96875 L171.875,102.421875 C171.25,102.34375 170.78125,101.71875 170.78125,101.09375 Z M180.3125,101.796875 C180.390625,101.25 179.921875,100.703125 179.375,100.703125 L172.109375,100.15625 C171.5625,100.15625 171.09375,100.546875 171.015625,101.171875 C170.9375,101.71875 171.40625,102.265625 171.953125,102.265625 L179.21875,102.8125 C179.765625,102.8125 180.234375,102.34375 180.3125,101.796875 Z" id="Shape" fill="#FFFFFF"></path>
                <path d="M160.78125,106.796875 C160.9375,106.171875 161.484375,105.78125 162.109375,105.859375 L178.125,109.0625 C178.75,109.21875 179.140625,109.765625 178.984375,110.390625 C178.828125,111.015625 178.28125,111.40625 177.65625,111.328125 L161.640625,108.125 C161.09375,108.046875 160.703125,107.421875 160.78125,106.796875 Z" id="Shape" fill="#F3F3F3"></path>
                <path d="M160.703125,106.796875 C160.859375,106.09375 161.484375,105.703125 162.109375,105.78125 L178.125,108.984375 C178.75,109.140625 179.21875,109.765625 179.0625,110.46875 C178.90625,111.171875 178.28125,111.5625 177.65625,111.484375 L161.640625,108.28125 C161.015625,108.125 160.625,107.5 160.703125,106.796875 Z M178.90625,110.46875 C178.984375,109.921875 178.671875,109.375 178.125,109.21875 L162.109375,106.015625 C161.5625,105.9375 161.015625,106.25 160.859375,106.875 C160.78125,107.421875 161.09375,107.96875 161.640625,108.125 L177.65625,111.328125 C178.28125,111.40625 178.75,111.015625 178.90625,110.46875 Z" id="Shape" fill="#FFFFFF"></path>
                <path d="M167.8125,116.171875 C167.96875,115.546875 168.59375,115.15625 169.21875,115.3125 L176.25,117.265625 C176.875,117.421875 177.1875,118.046875 177.03125,118.671875 C176.875,119.296875 176.25,119.6875 175.625,119.53125 L168.59375,117.578125 C167.96875,117.421875 167.65625,116.796875 167.8125,116.171875 Z" id="Shape" fill="#F3F3F3"></path>
                <path d="M167.734375,116.171875 C167.890625,115.546875 168.59375,115.078125 169.21875,115.3125 L176.25,117.265625 C176.875,117.421875 177.265625,118.125 177.109375,118.75 C176.953125,119.375 176.25,119.84375 175.625,119.609375 L168.59375,117.65625 C167.96875,117.5 167.578125,116.875 167.734375,116.171875 Z M176.875,118.75 C177.03125,118.203125 176.71875,117.578125 176.171875,117.421875 L169.140625,115.46875 C168.59375,115.3125 168.046875,115.625 167.890625,116.25 C167.734375,116.796875 168.046875,117.421875 168.59375,117.578125 L175.625,119.53125 C176.171875,119.609375 176.71875,119.296875 176.875,118.75 Z" id="Shape" fill="#FFFFFF"></path>
                <path d="M156.796875,119.921875 C157.03125,119.296875 157.734375,119.0625 158.28125,119.296875 L173.359375,125.546875 C173.90625,125.78125 174.21875,126.484375 173.984375,127.03125 C173.75,127.65625 173.046875,127.890625 172.5,127.65625 L157.421875,121.40625 C156.796875,121.171875 156.5625,120.46875 156.796875,119.921875 Z" id="Shape" fill="#F3F3F3"></path>
                <path d="M156.71875,119.84375 C156.953125,119.21875 157.65625,118.90625 158.28125,119.140625 L173.359375,125.390625 C173.984375,125.625 174.21875,126.328125 173.984375,127.03125 C173.75,127.65625 173.046875,127.96875 172.421875,127.734375 L157.34375,121.484375 C156.71875,121.171875 156.484375,120.46875 156.71875,119.84375 Z M173.828125,126.953125 C174.0625,126.40625 173.828125,125.78125 173.28125,125.546875 L158.203125,119.296875 C157.65625,119.0625 157.109375,119.375 156.875,119.921875 C156.640625,120.46875 156.875,121.09375 157.421875,121.328125 L172.5,127.578125 C173.046875,127.734375 173.671875,127.5 173.828125,126.953125 Z" id="Shape" fill="#FFFFFF"></path>
                <path d="M161.875,130.46875 C162.1875,129.921875 162.8125,129.6875 163.359375,129.921875 L169.84375,133.203125 C170.390625,133.4375 170.625,134.140625 170.3125,134.765625 C170,135.3125 169.375,135.546875 168.828125,135.3125 L162.34375,132.03125 C161.796875,131.71875 161.5625,131.015625 161.875,130.46875 Z" id="Shape" fill="#F3F3F3"></path>
                <path d="M161.796875,130.390625 C162.109375,129.765625 162.8125,129.53125 163.4375,129.84375 L169.921875,133.125 C170.546875,133.4375 170.78125,134.140625 170.46875,134.765625 C170.15625,135.390625 169.453125,135.625 168.828125,135.3125 L162.34375,132.03125 C161.71875,131.796875 161.484375,131.015625 161.796875,130.390625 Z M170.234375,134.6875 C170.46875,134.140625 170.3125,133.515625 169.765625,133.28125 L163.28125,130 C162.8125,129.765625 162.1875,130 161.875,130.46875 C161.640625,131.015625 161.796875,131.640625 162.34375,131.875 L168.828125,135.15625 C169.375,135.390625 170,135.234375 170.234375,134.6875 Z" id="Shape" fill="#FFFFFF"></path>
                <path d="M150.390625,131.953125 C150.78125,131.40625 151.40625,131.25 151.953125,131.640625 L165.546875,140.703125 C166.09375,141.015625 166.171875,141.71875 165.859375,142.265625 C165.46875,142.8125 164.84375,142.96875 164.296875,142.578125 L150.703125,133.515625 C150.15625,133.125 150,132.421875 150.390625,131.953125 Z" id="Shape" fill="#F3F3F3"></path>
                <path d="M150.3125,131.875 C150.703125,131.328125 151.484375,131.171875 152.03125,131.484375 L165.625,140.546875 C166.171875,140.9375 166.328125,141.640625 165.9375,142.265625 C165.546875,142.8125 164.765625,142.96875 164.21875,142.65625 L150.625,133.59375 C150,133.203125 149.921875,132.421875 150.3125,131.875 Z M165.703125,142.1875 C166.015625,141.71875 165.9375,141.015625 165.46875,140.703125 L151.875,131.640625 C151.40625,131.328125 150.78125,131.484375 150.46875,131.953125 C150.15625,132.421875 150.234375,133.125 150.703125,133.4375 L164.296875,142.5 C164.765625,142.8125 165.390625,142.65625 165.703125,142.1875 Z" id="Shape" fill="#FFFFFF"></path>
                <path d="M153.28125,143.28125 C153.671875,142.8125 154.375,142.65625 154.84375,143.046875 L160.546875,147.5 C161.015625,147.890625 161.09375,148.59375 160.703125,149.0625 C160.3125,149.53125 159.609375,149.6875 159.140625,149.296875 L153.4375,144.84375 C152.96875,144.453125 152.890625,143.75 153.28125,143.28125 Z" id="Shape" fill="#F3F3F3"></path>
                <path d="M153.203125,143.203125 C153.59375,142.65625 154.375,142.578125 154.921875,142.96875 L160.625,147.421875 C161.171875,147.8125 161.25,148.59375 160.859375,149.140625 C160.46875,149.6875 159.6875,149.765625 159.140625,149.375 L153.4375,144.921875 C152.890625,144.53125 152.8125,143.75 153.203125,143.203125 Z M160.703125,149.0625 C161.09375,148.59375 161.015625,147.96875 160.546875,147.578125 L154.84375,143.125 C154.375,142.8125 153.75,142.890625 153.359375,143.359375 C152.96875,143.828125 153.046875,144.453125 153.515625,144.84375 L159.21875,149.296875 C159.6875,149.609375 160.3125,149.53125 160.703125,149.0625 Z" id="Shape" fill="#FFFFFF"></path>
                <path d="M141.640625,142.5 C142.109375,142.03125 142.8125,142.03125 143.203125,142.5 L154.765625,153.984375 C155.234375,154.453125 155.15625,155.15625 154.765625,155.546875 C154.296875,156.015625 153.59375,156.015625 153.203125,155.546875 L141.640625,144.0625 C141.25,143.671875 141.25,142.890625 141.640625,142.5 Z" id="Shape" fill="#F3F3F3"></path>
                <path d="M141.640625,142.421875 C142.109375,141.953125 142.890625,141.953125 143.359375,142.421875 L154.921875,153.90625 C155.390625,154.375 155.390625,155.15625 154.921875,155.625 C154.453125,156.09375 153.671875,156.09375 153.203125,155.625 L141.640625,144.140625 C141.09375,143.671875 141.09375,142.890625 141.640625,142.421875 Z M154.765625,155.46875 C155.15625,155.078125 155.15625,154.375 154.765625,153.984375 L143.203125,142.5 C142.8125,142.109375 142.109375,142.109375 141.71875,142.5 C141.328125,142.890625 141.328125,143.59375 141.71875,143.984375 L153.28125,155.46875 C153.671875,155.9375 154.296875,155.9375 154.765625,155.46875 Z" id="Shape" fill="#FFFFFF"></path>
                <path d="M142.34375,154.140625 C142.8125,153.75 143.515625,153.75 143.90625,154.21875 L148.671875,159.6875 C149.0625,160.15625 148.984375,160.859375 148.515625,161.25 C148.046875,161.640625 147.34375,161.640625 146.953125,161.171875 L142.1875,155.703125 C141.796875,155.3125 141.875,154.609375 142.34375,154.140625 Z" id="Shape" fill="#F3F3F3"></path>
                <path d="M142.265625,154.140625 C142.8125,153.671875 143.515625,153.75 143.984375,154.21875 L148.75,159.6875 C149.21875,160.15625 149.140625,160.9375 148.59375,161.40625 C148.046875,161.875 147.34375,161.796875 146.875,161.328125 L142.109375,155.859375 C141.71875,155.3125 141.71875,154.53125 142.265625,154.140625 Z M148.515625,161.25 C148.984375,160.859375 148.984375,160.234375 148.671875,159.765625 L143.90625,154.296875 C143.515625,153.90625 142.890625,153.828125 142.421875,154.21875 C141.953125,154.609375 141.953125,155.234375 142.265625,155.703125 L147.03125,161.171875 C147.421875,161.640625 148.046875,161.640625 148.515625,161.25 Z" id="Shape" fill="#FFFFFF"></path>
                <path d="M131.09375,151.171875 C131.640625,150.78125 132.34375,150.9375 132.65625,151.484375 L141.71875,165 C142.03125,165.546875 141.875,166.25 141.40625,166.5625 C140.859375,166.953125 140.15625,166.796875 139.84375,166.25 L130.78125,152.734375 C130.46875,152.1875 130.625,151.484375 131.09375,151.171875 Z" id="Shape" fill="#F3F3F3"></path>
                <path d="M131.09375,151.09375 C131.640625,150.703125 132.421875,150.859375 132.8125,151.40625 L141.875,164.921875 C142.265625,165.46875 142.109375,166.25 141.484375,166.640625 C140.9375,167.03125 140.15625,166.875 139.765625,166.328125 L130.703125,152.8125 C130.3125,152.1875 130.46875,151.484375 131.09375,151.09375 Z M141.40625,166.484375 C141.875,166.171875 142.03125,165.546875 141.71875,165.078125 L132.65625,151.5625 C132.34375,151.09375 131.71875,151.015625 131.171875,151.328125 C130.703125,151.640625 130.546875,152.265625 130.859375,152.734375 L139.921875,166.25 C140.234375,166.640625 140.9375,166.796875 141.40625,166.484375 Z" id="Shape" fill="#FFFFFF"></path>
                <path d="M129.453125,162.734375 C130,162.421875 130.703125,162.578125 131.015625,163.125 L134.609375,169.453125 C134.921875,170 134.6875,170.703125 134.140625,171.015625 C133.59375,171.328125 132.890625,171.171875 132.578125,170.625 L128.984375,164.296875 C128.75,163.75 128.90625,163.046875 129.453125,162.734375 Z" id="Shape" fill="#F3F3F3"></path>
                <path d="M129.453125,162.65625 C130.078125,162.34375 130.78125,162.5 131.09375,163.046875 L134.6875,169.375 C135,169.921875 134.84375,170.703125 134.21875,171.015625 C133.59375,171.328125 132.890625,171.171875 132.578125,170.625 L128.984375,164.296875 C128.671875,163.75 128.828125,163.046875 129.453125,162.65625 Z M134.140625,170.9375 C134.609375,170.625 134.84375,170 134.53125,169.53125 L130.9375,163.203125 C130.625,162.734375 130,162.578125 129.53125,162.8125 C129.0625,163.125 128.828125,163.75 129.140625,164.21875 L132.734375,170.546875 C132.96875,171.015625 133.671875,171.25 134.140625,170.9375 Z" id="Shape" fill="#FFFFFF"></path>
                <path d="M119.0625,157.578125 C119.6875,157.34375 120.3125,157.578125 120.546875,158.125 L126.875,173.203125 C127.109375,173.75 126.796875,174.453125 126.25,174.6875 C125.703125,174.921875 125,174.6875 124.765625,174.140625 L118.4375,159.0625 C118.203125,158.515625 118.515625,157.8125 119.0625,157.578125 Z" id="Shape" fill="#F3F3F3"></path>
                <path d="M119.0625,157.5 C119.6875,157.265625 120.390625,157.5 120.703125,158.125 L127.03125,173.203125 C127.265625,173.828125 126.953125,174.53125 126.328125,174.765625 C125.703125,175 125,174.765625 124.6875,174.140625 L118.359375,159.0625 C118.125,158.515625 118.4375,157.8125 119.0625,157.5 Z M126.171875,174.609375 C126.71875,174.375 126.953125,173.75 126.71875,173.28125 L120.390625,158.203125 C120.15625,157.65625 119.53125,157.421875 118.984375,157.65625 C118.4375,157.890625 118.203125,158.515625 118.4375,158.984375 L124.765625,174.0625 C125.078125,174.609375 125.625,174.84375 126.171875,174.609375 Z" id="Shape" fill="#FFFFFF"></path>
                <path d="M115.234375,168.671875 C115.859375,168.4375 116.484375,168.75 116.71875,169.375 L118.984375,176.25 C119.21875,176.796875 118.828125,177.5 118.28125,177.65625 C117.65625,177.890625 117.03125,177.578125 116.796875,176.953125 L114.53125,170.078125 C114.296875,169.53125 114.609375,168.90625 115.234375,168.671875 Z" id="Shape" fill="#F3F3F3"></path>
                <path d="M115.15625,168.59375 C115.78125,168.359375 116.484375,168.671875 116.71875,169.296875 L118.984375,176.171875 C119.21875,176.796875 118.828125,177.5 118.203125,177.734375 C117.578125,177.96875 116.875,177.65625 116.640625,177.03125 L114.375,170.15625 C114.21875,169.53125 114.53125,168.828125 115.15625,168.59375 Z M118.203125,177.578125 C118.75,177.421875 119.0625,176.796875 118.90625,176.25 L116.640625,169.375 C116.484375,168.828125 115.859375,168.59375 115.3125,168.75 C114.765625,168.90625 114.453125,169.53125 114.609375,170.078125 L116.875,176.953125 C117.03125,177.5 117.65625,177.8125 118.203125,177.578125 Z" id="Shape" fill="#FFFFFF"></path>
                <path d="M106.015625,161.5625 C106.640625,161.40625 107.265625,161.796875 107.34375,162.421875 L110.625,178.4375 C110.78125,179.0625 110.3125,179.609375 109.6875,179.765625 C109.0625,179.921875 108.4375,179.53125 108.359375,178.90625 L105.078125,162.890625 C105,162.34375 105.390625,161.71875 106.015625,161.5625 Z" id="Shape" fill="#F3F3F3"></path>
                <path d="M106.015625,161.484375 C106.71875,161.328125 107.34375,161.796875 107.5,162.421875 L110.78125,178.4375 C110.9375,179.0625 110.46875,179.765625 109.84375,179.84375 C109.140625,180 108.515625,179.53125 108.359375,178.90625 L105.078125,162.890625 C104.921875,162.265625 105.3125,161.640625 106.015625,161.484375 Z M109.6875,179.6875 C110.234375,179.609375 110.625,179.0625 110.546875,178.4375 L107.265625,162.421875 C107.1875,161.875 106.5625,161.484375 106.015625,161.640625 C105.46875,161.71875 105.078125,162.265625 105.15625,162.890625 L108.4375,178.90625 C108.59375,179.453125 109.140625,179.765625 109.6875,179.6875 Z" id="Shape" fill="#FFFFFF"></path>
                <path d="M100.078125,171.71875 C100.703125,171.640625 101.25,172.03125 101.40625,172.65625 L102.34375,179.84375 C102.421875,180.46875 101.953125,181.015625 101.328125,181.09375 C100.703125,181.171875 100.15625,180.78125 100,180.15625 L99.0625,172.96875 C98.984375,172.34375 99.453125,171.796875 100.078125,171.71875 Z" id="Shape" fill="#F3F3F3"></path>
                <path d="M100.078125,171.640625 C100.78125,171.5625 101.40625,172.03125 101.484375,172.65625 L102.421875,179.84375 C102.5,180.46875 102.03125,181.09375 101.328125,181.171875 C100.625,181.25 100,180.78125 99.921875,180.15625 L98.984375,172.96875 C98.90625,172.34375 99.375,171.71875 100.078125,171.640625 Z M101.25,181.015625 C101.796875,180.9375 102.265625,180.390625 102.1875,179.84375 L101.25,172.65625 C101.171875,172.109375 100.625,171.71875 100.078125,171.796875 C99.53125,171.875 99.0625,172.421875 99.140625,172.96875 L100.078125,180.15625 C100.15625,180.703125 100.703125,181.09375 101.25,181.015625 Z" id="Shape" fill="#FFFFFF"></path>
                <path d="M92.03125,162.96875 C92.65625,162.96875 93.203125,163.4375 93.203125,164.0625 L93.203125,180.390625 C93.203125,181.015625 92.65625,181.484375 92.03125,181.484375 C91.40625,181.484375 90.859375,181.015625 90.859375,180.390625 L90.859375,164.0625 C90.9375,163.4375 91.40625,162.96875 92.03125,162.96875 Z" id="Shape" fill="#F3F3F3"></path>
                <path d="M92.03125,162.890625 C92.734375,162.890625 93.28125,163.4375 93.28125,164.0625 L93.28125,180.390625 C93.28125,181.015625 92.734375,181.5625 92.03125,181.5625 C91.328125,181.5625 90.78125,181.015625 90.78125,180.390625 L90.78125,164.0625 C90.78125,163.4375 91.40625,162.890625 92.03125,162.890625 Z M92.03125,181.40625 C92.578125,181.40625 93.125,180.9375 93.125,180.390625 L93.125,164.0625 C93.125,163.515625 92.65625,163.046875 92.03125,163.046875 C91.484375,163.046875 90.9375,163.515625 90.9375,164.0625 L90.9375,180.390625 C91.015625,180.9375 91.484375,181.40625 92.03125,181.40625 Z" id="Shape" fill="#FFFFFF"></path>
                <path d="M84.21875,171.71875 C84.84375,171.796875 85.3125,172.265625 85.3125,172.890625 L84.765625,180.15625 C84.6875,180.78125 84.140625,181.25 83.515625,181.171875 C82.890625,181.09375 82.421875,180.625 82.421875,180 L82.96875,172.734375 C83.046875,172.109375 83.59375,171.640625 84.21875,171.71875 Z" id="Shape" fill="#F3F3F3"></path>
                <path d="M84.21875,171.640625 C84.921875,171.71875 85.390625,172.265625 85.390625,172.890625 L84.84375,180.15625 C84.765625,180.78125 84.21875,181.328125 83.515625,181.25 C82.8125,181.171875 82.34375,180.625 82.34375,180 L82.890625,172.734375 C82.96875,172.03125 83.515625,171.5625 84.21875,171.640625 Z M83.515625,181.09375 C84.0625,181.09375 84.609375,180.703125 84.609375,180.15625 L85.15625,172.890625 C85.15625,172.34375 84.765625,171.875 84.140625,171.796875 C83.59375,171.796875 83.046875,172.1875 83.046875,172.734375 L82.5,180 C82.5,180.546875 82.96875,181.015625 83.515625,181.09375 Z" id="Shape" fill="#FFFFFF"></path>
                <path d="M78.359375,161.5625 C78.984375,161.71875 79.375,162.265625 79.296875,162.890625 L76.09375,178.90625 C75.9375,179.53125 75.390625,179.921875 74.765625,179.765625 C74.140625,179.609375 73.75,179.0625 73.828125,178.4375 L77.03125,162.421875 C77.109375,161.875 77.734375,161.484375 78.359375,161.5625 Z" id="Shape" fill="#F3F3F3"></path>
                <path d="M78.359375,161.484375 C79.0625,161.640625 79.453125,162.265625 79.375,162.890625 L76.171875,178.90625 C76.015625,179.53125 75.390625,180 74.6875,179.84375 C73.984375,179.6875 73.59375,179.0625 73.671875,178.4375 L76.875,162.421875 C77.03125,161.796875 77.65625,161.40625 78.359375,161.484375 Z M74.6875,179.6875 C75.234375,179.765625 75.78125,179.453125 75.9375,178.90625 L79.140625,162.890625 C79.21875,162.34375 78.90625,161.796875 78.28125,161.640625 C77.734375,161.5625 77.1875,161.875 77.03125,162.421875 L73.828125,178.4375 C73.75,179.0625 74.140625,179.53125 74.6875,179.6875 Z" id="Shape" fill="#FFFFFF"></path>
                <path d="M68.984375,168.59375 C69.609375,168.75 70,169.375 69.84375,170 L67.890625,177.03125 C67.734375,177.65625 67.109375,177.96875 66.484375,177.8125 C65.859375,177.65625 65.46875,177.03125 65.625,176.40625 L67.578125,169.375 C67.734375,168.75 68.359375,168.4375 68.984375,168.59375 Z" id="Shape" fill="#F3F3F3"></path>
                <path d="M68.984375,168.515625 C69.609375,168.671875 70.078125,169.375 69.84375,170 L67.890625,177.03125 C67.734375,177.65625 67.03125,178.046875 66.40625,177.890625 C65.78125,177.734375 65.3125,177.03125 65.546875,176.40625 L67.5,169.375 C67.65625,168.75 68.28125,168.359375 68.984375,168.515625 Z M66.40625,177.65625 C66.953125,177.8125 67.578125,177.5 67.734375,176.953125 L69.6875,169.921875 C69.84375,169.375 69.53125,168.828125 68.90625,168.671875 C68.359375,168.515625 67.734375,168.828125 67.578125,169.375 L65.625,176.40625 C65.546875,176.953125 65.859375,177.5 66.40625,177.65625 Z" id="Shape" fill="#FFFFFF"></path>
                <path d="M65.15625,157.578125 C65.78125,157.8125 66.015625,158.515625 65.78125,159.0625 L59.53125,174.140625 C59.296875,174.6875 58.59375,175 58.046875,174.6875 C57.5,174.375 57.1875,173.75 57.421875,173.203125 L63.671875,158.125 C63.90625,157.578125 64.609375,157.265625 65.15625,157.578125 Z" id="Shape" fill="#F3F3F3"></path>
                <path d="M65.15625,157.5 C65.78125,157.734375 66.09375,158.4375 65.859375,159.0625 L59.609375,174.140625 C59.375,174.765625 58.671875,175 57.96875,174.765625 C57.34375,174.53125 57.03125,173.828125 57.265625,173.203125 L63.515625,158.125 C63.828125,157.5 64.53125,157.1875 65.15625,157.5 Z M58.046875,174.609375 C58.59375,174.84375 59.21875,174.609375 59.453125,174.0625 L65.703125,158.984375 C65.9375,158.4375 65.625,157.890625 65.078125,157.65625 C64.53125,157.421875 63.90625,157.65625 63.671875,158.203125 L57.421875,173.28125 C57.265625,173.75 57.5,174.375 58.046875,174.609375 Z" id="Shape" fill="#FFFFFF"></path>
                <path d="M54.609375,162.578125 C55.15625,162.890625 55.390625,163.515625 55.15625,164.0625 L51.875,170.546875 C51.5625,171.09375 50.9375,171.328125 50.3125,171.015625 C49.765625,170.703125 49.53125,170.078125 49.765625,169.53125 L53.046875,163.046875 C53.359375,162.5 53.984375,162.265625 54.609375,162.578125 Z" id="Shape" fill="#F3F3F3"></path>
                <path d="M54.609375,162.5 C55.234375,162.8125 55.46875,163.515625 55.15625,164.140625 L51.875,170.625 C51.5625,171.25 50.859375,171.484375 50.234375,171.171875 C49.609375,170.859375 49.375,170.15625 49.6875,169.53125 L52.96875,163.046875 C53.28125,162.421875 53.984375,162.1875 54.609375,162.5 Z M50.3125,171.015625 C50.859375,171.25 51.484375,171.09375 51.71875,170.546875 L55,164.0625 C55.234375,163.59375 55,162.96875 54.53125,162.65625 C53.984375,162.421875 53.359375,162.578125 53.125,163.125 L49.84375,169.609375 C49.609375,170.078125 49.84375,170.703125 50.3125,171.015625 Z" id="Shape" fill="#FFFFFF"></path>
                <path d="M53.046875,151.015625 C53.59375,151.40625 53.75,152.109375 53.359375,152.578125 L44.296875,166.09375 C43.984375,166.640625 43.28125,166.71875 42.734375,166.40625 C42.1875,166.015625 42.03125,165.3125 42.421875,164.84375 L51.484375,151.328125 C51.796875,150.78125 52.5,150.625 53.046875,151.015625 Z" id="Shape" fill="#F3F3F3"></path>
                <path d="M53.046875,150.9375 C53.59375,151.328125 53.75,152.109375 53.4375,152.65625 L44.375,166.171875 C43.984375,166.71875 43.28125,166.875 42.65625,166.484375 C42.109375,166.09375 41.953125,165.3125 42.265625,164.765625 L51.328125,151.25 C51.71875,150.703125 52.5,150.546875 53.046875,150.9375 Z M42.734375,166.328125 C43.203125,166.640625 43.90625,166.5625 44.21875,166.09375 L53.28125,152.578125 C53.59375,152.109375 53.4375,151.484375 52.96875,151.171875 C52.5,150.859375 51.796875,150.9375 51.484375,151.40625 L42.421875,164.84375 C42.109375,165.3125 42.265625,166.015625 42.734375,166.328125 Z" id="Shape" fill="#FFFFFF"></path>
                <path d="M41.640625,153.90625 C42.109375,154.296875 42.265625,155 41.875,155.46875 L37.34375,161.171875 C36.953125,161.640625 36.25,161.71875 35.78125,161.328125 C35.3125,160.9375 35.15625,160.234375 35.546875,159.765625 L40.078125,154.0625 C40.46875,153.59375 41.171875,153.515625 41.640625,153.90625 Z" id="Shape" fill="#F3F3F3"></path>
                <path d="M41.71875,153.828125 C42.265625,154.21875 42.34375,155 41.953125,155.546875 L37.421875,161.25 C37.03125,161.796875 36.25,161.875 35.703125,161.40625 C35.15625,161.015625 35.078125,160.234375 35.46875,159.6875 L40,153.984375 C40.390625,153.4375 41.171875,153.359375 41.71875,153.828125 Z M35.859375,161.25 C36.328125,161.640625 36.953125,161.5625 37.34375,161.09375 L41.875,155.390625 C42.1875,154.921875 42.109375,154.296875 41.640625,153.90625 C41.171875,153.515625 40.546875,153.59375 40.15625,154.0625 L35.625,159.765625 C35.3125,160.234375 35.390625,160.9375 35.859375,161.25 Z" id="Shape" fill="#FFFFFF"></path>
                <path d="M42.421875,142.1875 C42.890625,142.65625 42.890625,143.359375 42.421875,143.75 L30.859375,155.234375 C30.390625,155.703125 29.6875,155.625 29.296875,155.234375 C28.90625,154.84375 28.828125,154.0625 29.296875,153.671875 L40.78125,142.1875 C41.25,141.71875 41.953125,141.71875 42.421875,142.1875 Z" id="Shape" fill="#F3F3F3"></path>
                <path d="M42.5,142.109375 C42.96875,142.578125 42.96875,143.359375 42.5,143.828125 L30.9375,155.3125 C30.46875,155.78125 29.6875,155.78125 29.21875,155.3125 C28.75,154.84375 28.75,154.0625 29.21875,153.59375 L40.78125,142.109375 C41.25,141.640625 42.03125,141.640625 42.5,142.109375 Z M29.296875,155.234375 C29.6875,155.625 30.390625,155.625 30.78125,155.234375 L42.34375,143.75 C42.734375,143.359375 42.734375,142.65625 42.34375,142.265625 C41.953125,141.875 41.25,141.875 40.859375,142.265625 L29.296875,153.75 C28.90625,154.140625 28.90625,154.765625 29.296875,155.234375 Z" id="Shape" fill="#FFFFFF"></path>
                <path d="M30.703125,142.8125 C31.09375,143.28125 31.09375,143.984375 30.625,144.375 L25.078125,149.0625 C24.609375,149.453125 23.90625,149.375 23.515625,148.90625 C23.125,148.4375 23.125,147.734375 23.59375,147.34375 L29.140625,142.65625 C29.609375,142.265625 30.3125,142.34375 30.703125,142.8125 Z" id="Shape" fill="#F3F3F3"></path>
                <path d="M30.78125,142.734375 C31.25,143.28125 31.171875,144.0625 30.703125,144.453125 L25.15625,149.140625 C24.6875,149.609375 23.90625,149.53125 23.4375,148.984375 C22.96875,148.4375 23.046875,147.65625 23.515625,147.265625 L29.0625,142.578125 C29.53125,142.109375 30.3125,142.1875 30.78125,142.734375 Z M23.59375,148.90625 C23.984375,149.375 24.609375,149.375 25.078125,149.0625 L30.625,144.375 C31.015625,143.984375 31.09375,143.359375 30.703125,142.890625 C30.3125,142.421875 29.6875,142.421875 29.21875,142.734375 L23.671875,147.421875 C23.203125,147.8125 23.203125,148.4375 23.59375,148.90625 Z" id="Shape" fill="#FFFFFF"></path>
                <path d="M33.828125,131.5625 C34.21875,132.109375 34.0625,132.8125 33.515625,133.125 L19.921875,142.1875 C19.375,142.5 18.671875,142.34375 18.359375,141.875 C17.96875,141.328125 18.125,140.625 18.671875,140.3125 L32.265625,131.25 C32.734375,130.9375 33.4375,131.09375 33.828125,131.5625 Z" id="Shape" fill="#F3F3F3"></path>
                <path d="M33.90625,131.5625 C34.296875,132.109375 34.140625,132.890625 33.59375,133.28125 L20,142.34375 C19.453125,142.734375 18.671875,142.578125 18.28125,141.953125 C17.890625,141.40625 18.046875,140.625 18.59375,140.234375 L32.1875,131.171875 C32.734375,130.78125 33.515625,130.9375 33.90625,131.5625 Z M18.4375,141.796875 C18.75,142.265625 19.375,142.421875 19.84375,142.109375 L33.4375,133.046875 C33.90625,132.734375 34.0625,132.109375 33.671875,131.5625 C33.359375,131.09375 32.734375,130.9375 32.265625,131.25 L18.671875,140.3125 C18.203125,140.703125 18.125,141.328125 18.4375,141.796875 Z" id="Shape" fill="#FFFFFF"></path>
                <path d="M22.1875,129.921875 C22.5,130.46875 22.34375,131.171875 21.796875,131.484375 L15.46875,135.078125 C14.921875,135.390625 14.21875,135.15625 13.90625,134.609375 C13.59375,134.0625 13.75,133.359375 14.296875,133.046875 L20.625,129.453125 C21.171875,129.140625 21.875,129.375 22.1875,129.921875 Z" id="Shape" fill="#F3F3F3"></path>
                <path d="M22.265625,129.84375 C22.578125,130.46875 22.421875,131.171875 21.875,131.484375 L15.546875,135.078125 C15,135.390625 14.21875,135.15625 13.90625,134.609375 C13.59375,133.984375 13.75,133.28125 14.296875,132.96875 L20.625,129.375 C21.171875,129.0625 21.953125,129.296875 22.265625,129.84375 Z M13.984375,134.53125 C14.296875,135.078125 14.921875,135.234375 15.390625,134.921875 L21.71875,131.328125 C22.1875,131.015625 22.34375,130.390625 22.109375,129.921875 C21.796875,129.375 21.171875,129.21875 20.703125,129.53125 L14.375,133.125 C13.90625,133.359375 13.75,133.984375 13.984375,134.53125 Z" id="Shape" fill="#FFFFFF"></path>
                <path d="M27.421875,119.53125 C27.65625,120.15625 27.421875,120.78125 26.796875,121.015625 L11.71875,127.265625 C11.171875,127.5 10.46875,127.1875 10.234375,126.640625 C10,126.015625 10.234375,125.390625 10.859375,125.15625 L25.9375,118.90625 C26.484375,118.671875 27.1875,118.90625 27.421875,119.53125 Z" id="Shape" fill="#F3F3F3"></path>
                <path d="M27.5,119.453125 C27.734375,120.078125 27.5,120.78125 26.875,121.09375 L11.796875,127.34375 C11.171875,127.578125 10.46875,127.265625 10.234375,126.640625 C10,126.015625 10.234375,125.3125 10.859375,125 L25.9375,118.75 C26.5625,118.515625 27.265625,118.828125 27.5,119.453125 Z M10.390625,126.5625 C10.625,127.109375 11.25,127.34375 11.71875,127.1875 L26.796875,120.9375 C27.34375,120.703125 27.578125,120.078125 27.34375,119.53125 C27.109375,118.984375 26.484375,118.75 26.015625,118.90625 L10.9375,125.15625 C10.390625,125.390625 10.15625,126.015625 10.390625,126.5625 Z" id="Shape" fill="#FFFFFF"></path>
                <path d="M16.40625,115.625 C16.640625,116.25 16.328125,116.875 15.703125,117.109375 L8.828125,119.375 C8.28125,119.609375 7.578125,119.21875 7.421875,118.671875 C7.1875,118.046875 7.5,117.421875 8.125,117.1875 L15,114.921875 C15.546875,114.6875 16.171875,115 16.40625,115.625 Z" id="Shape" fill="#F3F3F3"></path>
                <path d="M16.484375,115.546875 C16.71875,116.171875 16.40625,116.875 15.703125,117.109375 L8.828125,119.375 C8.203125,119.609375 7.5,119.21875 7.265625,118.59375 C7.03125,117.96875 7.34375,117.265625 8.046875,117.03125 L14.921875,114.765625 C15.546875,114.609375 16.25,114.921875 16.484375,115.546875 Z M7.421875,118.515625 C7.578125,119.0625 8.203125,119.375 8.75,119.21875 L15.625,116.953125 C16.171875,116.796875 16.40625,116.171875 16.25,115.625 C16.09375,115.078125 15.46875,114.765625 14.921875,114.921875 L8.046875,117.1875 C7.5,117.421875 7.265625,117.96875 7.421875,118.515625 Z" id="Shape" fill="#FFFFFF"></path>
                <path d="M23.4375,106.328125 C23.59375,106.953125 23.203125,107.578125 22.578125,107.65625 L6.5625,110.78125 C5.9375,110.9375 5.390625,110.46875 5.234375,109.84375 C5.078125,109.21875 5.46875,108.59375 6.09375,108.515625 L22.109375,105.390625 C22.734375,105.3125 23.359375,105.703125 23.4375,106.328125 Z" id="Shape" fill="#F3F3F3"></path>
                <path d="M23.59375,106.328125 C23.75,107.03125 23.28125,107.65625 22.65625,107.8125 L6.640625,110.9375 C6.015625,111.09375 5.390625,110.625 5.234375,109.921875 C5.078125,109.21875 5.546875,108.59375 6.171875,108.4375 L22.1875,105.3125 C22.8125,105.15625 23.4375,105.625 23.59375,106.328125 Z M5.390625,109.84375 C5.46875,110.390625 6.015625,110.78125 6.5625,110.703125 L22.578125,107.578125 C23.125,107.5 23.515625,106.875 23.359375,106.328125 C23.28125,105.78125 22.734375,105.390625 22.1875,105.46875 L6.171875,108.59375 C5.625,108.75 5.234375,109.296875 5.390625,109.84375 Z" id="Shape" fill="#FFFFFF"></path>
                <path d="M13.4375,100.3125 C13.515625,100.9375 13.125,101.484375 12.5,101.5625 L5.3125,102.421875 C4.6875,102.5 4.140625,102.03125 4.0625,101.40625 C3.984375,100.78125 4.375,100.234375 5,100.15625 L12.1875,99.296875 C12.734375,99.21875 13.359375,99.6875 13.4375,100.3125 Z" id="Shape" fill="#F3F3F3"></path>
                <path d="M13.515625,100.3125 C13.59375,101.015625 13.125,101.640625 12.5,101.71875 L5.3125,102.578125 C4.6875,102.65625 4.0625,102.1875 3.984375,101.484375 C3.90625,100.78125 4.375,100.15625 5,100.078125 L12.1875,99.21875 C12.8125,99.140625 13.4375,99.609375 13.515625,100.3125 Z M4.0625,101.40625 C4.140625,101.953125 4.6875,102.421875 5.234375,102.34375 L12.421875,101.484375 C12.96875,101.40625 13.359375,100.859375 13.28125,100.3125 C13.203125,99.765625 12.65625,99.296875 12.109375,99.375 L4.921875,100.234375 C4.375,100.3125 3.984375,100.859375 4.0625,101.40625 Z" id="Shape" fill="#FFFFFF"></path>
                <path d="M22.1875,92.734375 C22.1875,93.359375 21.71875,93.90625 21.09375,93.90625 L4.765625,93.90625 C4.140625,93.90625 3.671875,93.359375 3.671875,92.734375 C3.671875,92.109375 4.140625,91.5625 4.765625,91.5625 L21.09375,91.5625 C21.71875,91.5625 22.1875,92.109375 22.1875,92.734375 Z" id="Shape" fill="#F3F3F3"></path>
                <path d="M22.265625,92.734375 C22.265625,93.4375 21.71875,93.984375 21.09375,93.984375 L4.765625,93.984375 C4.140625,93.984375 3.59375,93.4375 3.59375,92.734375 C3.59375,92.03125 4.140625,91.484375 4.765625,91.484375 L21.09375,91.484375 C21.71875,91.484375 22.265625,92.03125 22.265625,92.734375 Z M3.75,92.65625 C3.75,93.203125 4.21875,93.75 4.765625,93.75 L21.09375,93.75 C21.640625,93.75 22.109375,93.28125 22.109375,92.65625 C22.109375,92.109375 21.640625,91.5625 21.09375,91.5625 L4.765625,91.5625 C4.21875,91.640625 3.75,92.109375 3.75,92.65625 Z" id="Shape" fill="#FFFFFF"></path>
                <path d="M13.515625,84.84375 C13.4375,85.46875 12.96875,85.9375 12.34375,85.9375 L5.078125,85.390625 C4.453125,85.3125 3.984375,84.765625 4.0625,84.140625 C4.140625,83.515625 4.609375,83.046875 5.234375,83.046875 L12.5,83.59375 C13.046875,83.671875 13.515625,84.21875 13.515625,84.84375 Z" id="Shape" fill="#E2E2E2"></path>
                <path d="M13.59375,84.84375 C13.515625,85.546875 12.96875,86.015625 12.34375,86.015625 L5.078125,85.46875 C4.453125,85.390625 3.90625,84.84375 3.984375,84.140625 C4.0625,83.4375 4.609375,82.96875 5.234375,82.96875 L12.5,83.515625 C13.125,83.59375 13.59375,84.21875 13.59375,84.84375 Z M4.0625,84.140625 C3.984375,84.6875 4.453125,85.234375 5,85.234375 L12.265625,85.78125 C12.8125,85.78125 13.28125,85.390625 13.359375,84.765625 C13.4375,84.21875 12.96875,83.671875 12.421875,83.671875 L5.15625,83.125 C4.609375,83.125 4.140625,83.59375 4.0625,84.140625 Z" id="Shape" fill="#FFFFFF"></path>
                <path d="M23.59375,79.140625 C23.4375,79.765625 22.890625,80.15625 22.265625,80.078125 L6.25,76.796875 C5.625,76.640625 5.234375,76.09375 5.390625,75.46875 C5.546875,74.84375 6.09375,74.453125 6.71875,74.53125 L22.734375,77.734375 C23.28125,77.890625 23.671875,78.515625 23.59375,79.140625 Z" id="Shape" fill="#F3F3F3"></path>
                <path d="M23.671875,79.140625 C23.515625,79.84375 22.890625,80.234375 22.265625,80.15625 L6.25,76.953125 C5.625,76.796875 5.15625,76.171875 5.3125,75.46875 C5.46875,74.765625 6.09375,74.375 6.71875,74.453125 L22.734375,77.65625 C23.359375,77.8125 23.75,78.4375 23.671875,79.140625 Z M5.46875,75.46875 C5.390625,76.015625 5.703125,76.5625 6.25,76.71875 L22.265625,79.921875 C22.8125,80 23.359375,79.6875 23.515625,79.0625 C23.59375,78.515625 23.28125,77.96875 22.734375,77.8125 L6.71875,74.609375 C6.09375,74.53125 5.625,74.921875 5.46875,75.46875 Z" id="Shape" fill="#FFFFFF"></path>
                <path d="M16.5625,69.765625 C16.40625,70.390625 15.78125,70.78125 15.15625,70.625 L8.125,68.671875 C7.5,68.515625 7.1875,67.890625 7.34375,67.265625 C7.5,66.640625 8.125,66.25 8.75,66.40625 L15.78125,68.359375 C16.40625,68.515625 16.71875,69.140625 16.5625,69.765625 Z" id="Shape" fill="#F3F3F3"></path>
                <path d="M16.640625,69.765625 C16.484375,70.390625 15.78125,70.859375 15.15625,70.625 L8.125,68.671875 C7.5,68.515625 7.109375,67.8125 7.265625,67.1875 C7.421875,66.5625 8.125,66.09375 8.75,66.328125 L15.78125,68.28125 C16.40625,68.4375 16.796875,69.0625 16.640625,69.765625 Z M7.5,67.1875 C7.34375,67.734375 7.65625,68.359375 8.203125,68.515625 L15.234375,70.46875 C15.78125,70.625 16.328125,70.3125 16.484375,69.6875 C16.640625,69.140625 16.328125,68.515625 15.78125,68.359375 L8.75,66.40625 C8.203125,66.328125 7.65625,66.640625 7.5,67.1875 Z" id="Shape" fill="#FFFFFF"></path>
                <path d="M27.578125,66.015625 C27.34375,66.640625 26.640625,66.875 26.09375,66.640625 L11.015625,60.390625 C10.46875,60.15625 10.15625,59.453125 10.390625,58.90625 C10.625,58.28125 11.328125,58.046875 11.875,58.28125 L26.953125,64.53125 C27.578125,64.765625 27.8125,65.46875 27.578125,66.015625 Z" id="Shape" fill="#F3F3F3"></path>
                <path d="M27.65625,66.09375 C27.421875,66.71875 26.71875,67.03125 26.09375,66.796875 L11.015625,60.546875 C10.390625,60.3125 10.15625,59.609375 10.390625,58.90625 C10.625,58.28125 11.328125,57.96875 11.953125,58.203125 L27.03125,64.453125 C27.65625,64.765625 27.890625,65.46875 27.65625,66.09375 Z M10.546875,58.984375 C10.3125,59.53125 10.546875,60.15625 11.09375,60.390625 L26.171875,66.640625 C26.71875,66.875 27.265625,66.5625 27.5,66.015625 C27.734375,65.46875 27.5,64.84375 26.953125,64.609375 L11.875,58.359375 C11.328125,58.203125 10.703125,58.4375 10.546875,58.984375 Z" id="Shape" fill="#FFFFFF"></path>
                <path d="M22.5,55.46875 C22.1875,56.015625 21.5625,56.25 21.015625,56.015625 L14.53125,52.734375 C13.984375,52.5 13.75,51.796875 14.0625,51.171875 C14.375,50.625 15,50.390625 15.546875,50.625 L22.03125,53.90625 C22.578125,54.21875 22.8125,54.921875 22.5,55.46875 Z" id="Shape" fill="#F3F3F3"></path>
                <path d="M22.578125,55.546875 C22.265625,56.171875 21.5625,56.40625 20.9375,56.09375 L14.453125,52.8125 C13.828125,52.5 13.59375,51.796875 13.90625,51.171875 C14.21875,50.546875 14.921875,50.3125 15.546875,50.625 L22.03125,53.90625 C22.65625,54.140625 22.890625,54.921875 22.578125,55.546875 Z M14.140625,51.25 C13.90625,51.796875 14.0625,52.421875 14.609375,52.65625 L21.09375,55.9375 C21.5625,56.171875 22.1875,55.9375 22.5,55.46875 C22.734375,54.921875 22.578125,54.296875 22.03125,54.0625 L15.46875,50.78125 C15,50.546875 14.375,50.703125 14.140625,51.25 Z" id="Shape" fill="#FFFFFF"></path>
                <path d="M33.984375,53.984375 C33.59375,54.53125 32.96875,54.6875 32.421875,54.296875 L18.90625,45.3125 C18.359375,45 18.28125,44.296875 18.59375,43.75 C18.90625,43.203125 19.609375,43.046875 20.15625,43.4375 L33.75,52.5 C34.21875,52.8125 34.375,53.515625 33.984375,53.984375 Z" id="Shape" fill="#F3F3F3"></path>
                <path d="M34.0625,54.0625 C33.671875,54.609375 32.890625,54.765625 32.34375,54.453125 L18.828125,45.390625 C18.28125,45 18.125,44.296875 18.515625,43.671875 C18.90625,43.125 19.6875,42.96875 20.234375,43.28125 L33.75,52.34375 C34.375,52.734375 34.453125,53.515625 34.0625,54.0625 Z M18.671875,43.75 C18.359375,44.21875 18.4375,44.921875 18.90625,45.234375 L32.5,54.296875 C32.96875,54.609375 33.59375,54.453125 33.90625,53.984375 C34.21875,53.515625 34.140625,52.8125 33.671875,52.5 L20.078125,43.4375 C19.609375,43.125 18.984375,43.28125 18.671875,43.75 Z" id="Shape" fill="#FFFFFF"></path>
                <path d="M31.09375,42.65625 C30.703125,43.125 30,43.28125 29.53125,42.890625 L23.828125,38.4375 C23.359375,38.046875 23.28125,37.34375 23.671875,36.875 C24.0625,36.40625 24.765625,36.25 25.234375,36.640625 L30.9375,41.09375 C31.40625,41.484375 31.484375,42.1875 31.09375,42.65625 Z" id="Shape" fill="#F3F3F3"></path>
                <path d="M31.171875,42.734375 C30.78125,43.28125 30,43.359375 29.453125,42.96875 L23.75,38.515625 C23.203125,38.125 23.125,37.34375 23.515625,36.796875 C23.90625,36.25 24.6875,36.171875 25.234375,36.5625 L30.9375,41.015625 C31.484375,41.40625 31.5625,42.1875 31.171875,42.734375 Z M23.671875,36.875 C23.28125,37.34375 23.359375,37.96875 23.828125,38.359375 L29.53125,42.8125 C30,43.125 30.625,43.046875 31.015625,42.578125 C31.40625,42.109375 31.328125,41.484375 30.859375,41.09375 L25.15625,36.640625 C24.6875,36.328125 24.0625,36.40625 23.671875,36.875 Z" id="Shape" fill="#FFFFFF"></path>
                <path d="M42.734375,43.4375 C42.265625,43.90625 41.5625,43.90625 41.171875,43.4375 L29.53125,31.953125 C29.0625,31.484375 29.140625,30.78125 29.53125,30.390625 C30,29.921875 30.703125,29.921875 31.09375,30.390625 L42.65625,41.875 C43.125,42.265625 43.125,43.046875 42.734375,43.4375 Z" id="Shape" fill="#F3F3F3"></path>
                <path d="M42.734375,43.515625 C42.265625,43.984375 41.484375,43.984375 41.015625,43.515625 L29.453125,32.03125 C28.984375,31.5625 28.984375,30.78125 29.453125,30.3125 C29.921875,29.84375 30.703125,29.84375 31.171875,30.3125 L42.734375,41.796875 C43.28125,42.265625 43.28125,43.046875 42.734375,43.515625 Z M29.609375,30.46875 C29.21875,30.859375 29.21875,31.5625 29.609375,31.953125 L41.171875,43.4375 C41.5625,43.828125 42.265625,43.828125 42.65625,43.4375 C43.046875,43.046875 43.046875,42.34375 42.65625,41.953125 L31.09375,30.390625 C30.703125,30 30.078125,30 29.609375,30.46875 Z" id="Shape" fill="#FFFFFF"></path>
                <path d="M42.03125,31.796875 C41.5625,32.1875 40.859375,32.1875 40.46875,31.71875 L35.703125,26.25 C35.3125,25.78125 35.390625,25.078125 35.859375,24.6875 C36.328125,24.296875 37.03125,24.296875 37.421875,24.765625 L42.1875,30.234375 C42.578125,30.625 42.5,31.328125 42.03125,31.796875 Z" id="Shape" fill="#F3F3F3"></path>
                <path d="M42.109375,31.796875 C41.5625,32.265625 40.859375,32.1875 40.390625,31.71875 L35.625,26.25 C35.15625,25.78125 35.234375,25 35.78125,24.53125 C36.328125,24.0625 37.03125,24.140625 37.5,24.609375 L42.265625,30.078125 C42.65625,30.625 42.65625,31.40625 42.109375,31.796875 Z M35.859375,24.6875 C35.390625,25.078125 35.390625,25.703125 35.703125,26.171875 L40.46875,31.640625 C40.859375,32.03125 41.484375,32.109375 41.953125,31.71875 C42.421875,31.328125 42.421875,30.703125 42.109375,30.234375 L37.34375,24.765625 C36.953125,24.296875 36.328125,24.296875 35.859375,24.6875 Z" id="Shape" fill="#FFFFFF"></path>
                <path d="M53.28125,34.765625 C52.734375,35.15625 52.03125,35 51.71875,34.453125 L42.578125,20.9375 C42.265625,20.390625 42.421875,19.6875 42.890625,19.375 C43.4375,18.984375 44.140625,19.140625 44.453125,19.6875 L53.515625,33.203125 C53.90625,33.75 53.75,34.453125 53.28125,34.765625 Z" id="Shape" fill="#F3F3F3"></path>
                <path d="M53.28125,34.84375 C52.734375,35.234375 51.953125,35.078125 51.5625,34.53125 L42.5,21.015625 C42.109375,20.46875 42.265625,19.6875 42.890625,19.296875 C43.4375,18.90625 44.21875,19.0625 44.609375,19.609375 L53.671875,33.125 C54.0625,33.75 53.90625,34.453125 53.28125,34.84375 Z M42.96875,19.453125 C42.5,19.765625 42.34375,20.390625 42.65625,20.859375 L51.71875,34.375 C52.03125,34.84375 52.65625,34.921875 53.203125,34.609375 C53.671875,34.296875 53.828125,33.671875 53.515625,33.203125 L44.453125,19.765625 C44.140625,19.296875 43.4375,19.140625 42.96875,19.453125 Z" id="Shape" fill="#FFFFFF"></path>
                <path d="M54.921875,23.203125 C54.375,23.515625 53.671875,23.359375 53.359375,22.8125 L49.765625,16.484375 C49.453125,15.9375 49.6875,15.234375 50.234375,14.921875 C50.78125,14.609375 51.484375,14.765625 51.796875,15.3125 L55.390625,21.640625 C55.625,22.1875 55.46875,22.890625 54.921875,23.203125 Z" id="Shape" fill="#F3F3F3"></path>
                <path d="M54.921875,23.28125 C54.296875,23.59375 53.59375,23.4375 53.28125,22.890625 L49.6875,16.5625 C49.375,16.015625 49.53125,15.234375 50.15625,14.921875 C50.78125,14.609375 51.484375,14.765625 51.796875,15.3125 L55.390625,21.640625 C55.703125,22.1875 55.546875,22.890625 54.921875,23.28125 Z M50.234375,15 C49.765625,15.3125 49.53125,15.9375 49.84375,16.40625 L53.4375,22.734375 C53.75,23.203125 54.375,23.359375 54.84375,23.125 C55.3125,22.8125 55.546875,22.1875 55.234375,21.71875 L51.640625,15.390625 C51.40625,14.921875 50.703125,14.6875 50.234375,15 Z" id="Shape" fill="#FFFFFF"></path>
                <path d="M65.3125,28.359375 C64.6875,28.59375 64.0625,28.359375 63.828125,27.8125 L57.5,12.734375 C57.265625,12.1875 57.578125,11.484375 58.125,11.25 C58.75,11.015625 59.375,11.25 59.609375,11.796875 L65.9375,26.875 C66.171875,27.421875 65.859375,28.125 65.3125,28.359375 Z" id="Shape" fill="#F3F3F3"></path>
                <path d="M65.3125,28.4375 C64.6875,28.671875 63.984375,28.4375 63.671875,27.8125 L57.34375,12.734375 C57.109375,12.109375 57.421875,11.40625 58.046875,11.171875 C58.671875,10.9375 59.375,11.171875 59.6875,11.796875 L66.015625,26.875 C66.25,27.421875 65.9375,28.125 65.3125,28.4375 Z M58.203125,11.328125 C57.65625,11.5625 57.421875,12.1875 57.65625,12.65625 L63.984375,27.734375 C64.21875,28.28125 64.84375,28.515625 65.390625,28.28125 C65.9375,28.046875 66.171875,27.421875 65.9375,26.953125 L59.609375,11.875 C59.296875,11.328125 58.75,11.09375 58.203125,11.328125 Z" id="Shape" fill="#FFFFFF"></path>
                <path d="M69.140625,17.265625 C68.515625,17.5 67.890625,17.1875 67.65625,16.5625 L65.390625,9.6875 C65.15625,9.140625 65.546875,8.4375 66.09375,8.28125 C66.640625,8.125 67.34375,8.359375 67.578125,8.984375 L69.84375,15.859375 C70.078125,16.40625 69.765625,17.03125 69.140625,17.265625 Z" id="Shape" fill="#F3F3F3"></path>
                <path d="M69.21875,17.34375 C68.59375,17.578125 67.890625,17.265625 67.65625,16.640625 L65.390625,9.765625 C65.15625,9.140625 65.546875,8.4375 66.171875,8.203125 C66.796875,7.96875 67.5,8.28125 67.734375,8.90625 L70,15.78125 C70.15625,16.40625 69.84375,17.109375 69.21875,17.34375 Z M66.171875,8.359375 C65.625,8.515625 65.3125,9.140625 65.46875,9.6875 L67.734375,16.5625 C67.890625,17.109375 68.515625,17.34375 69.0625,17.1875 C69.609375,17.03125 69.921875,16.40625 69.765625,15.859375 L67.5,8.984375 C67.34375,8.4375 66.71875,8.125 66.171875,8.359375 Z" id="Shape" fill="#FFFFFF"></path>
                <path d="M78.359375,24.375 C77.734375,24.53125 77.109375,24.140625 77.03125,23.515625 L73.75,7.5 C73.59375,6.875 74.0625,6.328125 74.6875,6.171875 C75.3125,6.015625 75.9375,6.40625 76.015625,7.03125 L79.296875,23.046875 C79.375,23.59375 78.984375,24.21875 78.359375,24.375 Z" id="Shape" fill="#F3F3F3"></path>
                <path d="M78.359375,24.453125 C77.65625,24.609375 77.03125,24.140625 76.875,23.515625 L73.59375,7.5 C73.4375,6.875 73.90625,6.171875 74.53125,6.09375 C75.234375,5.9375 75.859375,6.40625 76.015625,7.03125 L79.296875,23.046875 C79.453125,23.671875 79.0625,24.296875 78.359375,24.453125 Z M74.6875,6.25 C74.140625,6.328125 73.75,6.875 73.828125,7.5 L77.109375,23.515625 C77.1875,24.0625 77.8125,24.453125 78.359375,24.296875 C78.90625,24.21875 79.296875,23.671875 79.21875,23.046875 L75.9375,7.03125 C75.78125,6.484375 75.234375,6.171875 74.6875,6.25 Z" id="Shape" fill="#FFFFFF"></path>
                <path d="M84.296875,14.21875 C83.671875,14.296875 83.125,13.90625 82.96875,13.28125 L82.03125,6.09375 C81.953125,5.46875 82.421875,4.921875 83.046875,4.84375 C83.671875,4.765625 84.21875,5.15625 84.375,5.78125 L85.3125,12.96875 C85.390625,13.59375 84.921875,14.140625 84.296875,14.21875 Z" id="Shape" fill="#F3F3F3"></path>
                <path d="M84.296875,14.296875 C83.59375,14.375 82.96875,13.90625 82.890625,13.28125 L81.953125,6.09375 C81.875,5.46875 82.34375,4.84375 83.046875,4.765625 C83.75,4.6875 84.375,5.15625 84.453125,5.78125 L85.390625,12.96875 C85.46875,13.59375 85,14.21875 84.296875,14.296875 Z M83.125,4.921875 C82.578125,5 82.109375,5.546875 82.1875,6.09375 L83.125,13.28125 C83.203125,13.828125 83.75,14.21875 84.296875,14.140625 C84.84375,14.0625 85.3125,13.515625 85.234375,12.96875 L84.296875,5.78125 C84.21875,5.234375 83.671875,4.84375 83.125,4.921875 Z" id="Shape" fill="#FFFFFF"></path>
                <circle id="Oval" fill-opacity="0.200000003" fill="url(#linearGradient-3)" cx="92.734375" cy="92.890625" r="92.5"></circle>
            </g>
            <polygon id="Shape" fill-opacity="0.05" fill="#000000" points="164.609375 41.25 90 89.0625 89.921875 89.0625 89.921875 89.140625 89.84375 89.21875 43.28125 166.015625 111.71875 110.9375 111.796875 110.859375 111.796875 110.78125"></polygon>
            <polyline id="Shape" fill="#CD151E" points="163.203125 36.796875 89.453125 89.21875 111.328125 110.9375 163.203125 36.796875"></polyline>
            <polygon id="Shape" fill="#FA5153" points="89.53125 89.0625 100.546875 99.921875 163.203125 36.796875"></polygon>
            <polygon id="Shape" fill="#ACACAC" points="89.53125 89.0625 111.40625 110.78125 37.65625 163.203125"></polygon>
            <polygon id="Shape" fill="#EEEEEE" points="37.65625 163.203125 100.546875 99.921875 89.53125 89.0625"></polygon>
        </g>
    </g>
</svg>