<?xml version="1.0" encoding="UTF-8"?>
<svg width="300px" height="300px" viewBox="0 0 300 300" version="1.1" xmlns="http://www.w3.org/2000/svg" xmlns:xlink="http://www.w3.org/1999/xlink">
    <!-- Generator: Sketch 49.3 (51167) - http://www.bohemiancoding.com/sketch -->
    <title>Oval 2</title>
    <desc>Created with Sketch.</desc>
    <defs></defs>
    <g id="Page-1" stroke="none" stroke-width="1" fill="none" fill-rule="evenodd">
        <circle id="Oval-2" fill="#EC5F67" cx="150" cy="150" r="150"></circle>
        <path d="M150.858273,250 C150.254494,250 149.678417,249.977952 149.240282,249.957034 C148.8926,249.986997 148.533612,250 148.174058,250 C135.489617,250 127.008449,244.003482 119.523967,238.708547 C114.159495,234.9191 109.100304,231.341655 103.173323,230.355709 C100.262409,229.872912 97.3667584,229.628122 94.5689112,229.628122 C89.5278113,229.628122 85.5438895,230.409982 82.6352364,230.978709 C80.8453831,231.327522 79.3020162,231.627715 78.1091575,231.627715 C76.8597652,231.627715 75.3418384,231.3507 74.7092276,229.190552 C74.2077747,227.48663 73.8482211,225.835849 73.5011049,224.246125 C72.632749,220.273509 72.0029648,217.848784 70.5155662,217.618692 C54.6064495,215.164004 45.2066101,211.548116 43.3342177,207.169024 C43.143946,206.731602 43.0321874,206.264092 43.0040616,205.787909 C42.9309862,204.485034 43.851745,203.336585 45.1393351,203.124611 C57.7734611,201.044175 69.0072501,194.366428 78.5303327,183.270581 C85.9074004,174.680303 89.5300727,166.472756 89.9190237,165.566523 C89.9363304,165.524849 89.9553802,165.48392 89.9761227,165.443845 C91.8117682,161.719413 92.1769752,158.500955 91.0649595,155.880624 C89.0150517,151.046437 82.2259333,148.892507 77.7343398,147.467295 C76.6172362,147.11396 75.5606234,146.779282 74.7188383,146.445168 C70.7371778,144.872404 64.1888925,141.549359 65.0612057,136.96279 C65.6966432,133.618263 70.1203964,131.289079 73.6955804,131.289079 C74.6883102,131.289079 75.5679728,131.463202 76.3085628,131.810884 C80.3484529,133.703628 83.9829972,134.663003 87.1087392,134.663003 C90.9959886,134.663003 92.873469,133.182954 93.3274337,132.762344 C93.2097066,130.639469 93.0817508,128.517174 92.9435706,126.395532 C92.0311185,111.880533 90.8930974,93.8169216 95.5135875,83.4582726 C109.342833,52.4512963 138.670762,50.0401388 147.327185,50.0401388 C148.75599,50.0281448 150.184783,50.0147651 151.613561,50 C160.293728,50 189.682713,52.4139841 203.520439,83.4396165 C208.140929,93.8050496 207.001778,111.883925 206.086499,126.414188 L206.043533,127.109551 C205.918029,129.082573 205.802135,130.949877 205.704332,132.760083 C206.131726,133.153557 207.849781,134.510363 211.345253,134.647739 C214.325138,134.533541 217.749378,133.578689 221.520168,131.813145 C222.685891,131.2659 223.976552,131.152268 224.852823,131.152268 C226.177405,131.152268 227.525166,131.410061 228.648488,131.878724 L228.708414,131.901903 C231.908215,133.037663 234.003915,135.307486 234.049141,137.692073 C234.08928,139.914973 232.437369,143.237452 224.312362,146.446299 C223.480187,146.77589 222.418487,147.11283 221.29686,147.468426 C216.80131,148.895334 210.017844,151.048133 207.967937,155.879493 C206.854225,158.499825 207.220563,161.717151 209.056773,165.440453 C209.077126,165.481157 209.094651,165.522427 209.114438,165.565392 C209.679774,166.89054 223.363728,198.091991 253.894126,203.121785 C255.181243,203.334699 256.101683,204.482447 256.029965,205.785082 C256.000017,206.265853 255.885577,206.737585 255.691894,207.178635 C253.832505,211.533417 244.433231,215.144217 228.519591,217.602298 C227.025974,217.832955 226.396755,220.246939 225.536314,224.198636 C225.180152,225.830761 224.817772,227.430662 224.323103,229.11197 C223.860093,230.693215 222.830051,231.466029 221.175878,231.466029 L220.926565,231.466029 C219.849601,231.466029 218.323759,231.270423 216.399356,230.893909 C213.035607,230.23925 209.263121,229.629818 204.465681,229.629818 C201.668399,229.629818 198.773314,229.875174 195.859008,230.357405 C189.938245,231.343351 184.87962,234.915143 179.524759,238.700632 C172.025578,244.002917 163.541583,250 150.858273,250" id="Shape" fill="#FFFFFF" fill-rule="nonzero"></path>
    </g>
</svg>