<?xml version="1.0" encoding="UTF-8"?>
<svg width="373px" height="516px" viewBox="0 0 373 516" version="1.1" xmlns="http://www.w3.org/2000/svg" xmlns:xlink="http://www.w3.org/1999/xlink">
    <!-- Generator: Sketch 50.2 (55047) - http://www.bohemiancoding.com/sketch -->
    <title>Shape</title>
    <desc>Created with Sketch.</desc>
    <defs></defs>
    <g id="Page-1" stroke="none" stroke-width="1" fill="none" fill-rule="evenodd">
        <path d="M227.794,386.711 C255.599,396.233 280.151,402.298 315.427,413.138 C301.875,584.374 139.952,516.371 227.794,386.711 Z M372.366,229.409 C370.54,177.994 361.484,110.549 289.349,121.117 C255.534,129.942 230.549,167.079 218.798,231.152 C212.344,266.381 216.097,315.83 223.71,345.472 C230.661,366.361 228.297,365.077 235.768,369.044 C264.684,375.558 293.31,382.769 322.461,390.122 C352.075,369.209 376.397,258.182 372.366,229.409 Z M149.752,225.463 C157.359,195.817 161.112,146.368 154.661,111.143 C142.919,47.067 117.931,9.924 84.11,1.105 C11.975,-9.463 2.919,57.981 1.093,109.399 C-2.938,138.167 21.387,249.201 51.004,270.11 C80.153,262.757 108.775,255.552 137.7,249.032 C145.162,245.069 142.798,246.352 149.752,225.463 Z M58.029,293.132 C71.576,464.366 233.499,396.363 145.659,266.705 C117.854,276.228 93.304,282.292 58.029,293.132 Z" id="Shape" fill="#5093E1" fill-rule="nonzero"></path>
    </g>
</svg>