<?xml version="1.0" encoding="UTF-8"?>
<svg width="300px" height="300px" viewBox="0 0 300 300" version="1.1" xmlns="http://www.w3.org/2000/svg" xmlns:xlink="http://www.w3.org/1999/xlink">
    <!-- Generator: Sketch 49.3 (51167) - http://www.bohemiancoding.com/sketch -->
    <title>Oval 2</title>
    <desc>Created with Sketch.</desc>
    <defs></defs>
    <g id="Page-1" stroke="none" stroke-width="1" fill="none" fill-rule="evenodd">
        <circle id="Oval-2" fill="#EC5F67" cx="150" cy="150" r="150"></circle>
        <path d="M249.9997,150.027186 C249.9997,205.154419 205.087911,250.072235 149.954652,249.999913 C94.8213925,249.927591 49.981925,205.130311 50.0000055,149.984999 C50.0180859,94.8396857 94.99617,49.8857089 150.045054,50.0002183 C205.262688,50.1087009 249.9997,94.8698198 249.9997,150.027186 Z M96.1653711,150.135669 C96.1819646,179.862595 120.263908,203.963414 149.990813,204.003298 C179.757228,204.003298 203.713798,179.58869 203.810227,150.286339 C203.882364,135.970277 198.248314,122.215287 188.154083,112.063374 C178.059851,101.911462 164.337187,96.1991273 150.020947,96.1896912 C120.435336,96.1233963 96.1653711,120.453629 96.1653711,150.135669 Z M126.419958,202.69548 L118.928633,218.310945 C127.99276,222.502354 137.830456,224.760119 147.815134,224.940436 L147.815134,207.703759 C140.433694,207.381685 133.177434,205.683107 126.419958,202.69548 Z M105.760053,187.248766 L92.2539714,198.157292 C98.633182,205.818738 106.494782,212.112118 115.366788,216.659599 L122.840033,201.056188 C116.296299,197.618368 110.492786,192.926819 105.760053,187.248766 Z M184.295416,216.810269 C193.18074,212.133549 201.082964,205.790489 207.570957,198.127158 L194.076929,187.399436 C189.244787,193.042814 183.390692,197.723228 176.822171,201.194804 L184.295416,216.810269 Z M209.770742,195.155941 C214.14018,190.937173 222.776599,172.531295 222.372802,168.348689 L205.780994,164.485504 C204.002863,171.666175 200.790426,178.412907 196.336982,184.319736 L209.770742,195.155941 Z M93.0736175,160.736828 C91.7204825,153.475246 91.777775,146.021083 93.2423682,138.781158 L76.5059165,134.887839 C74.2458627,144.856183 74.5411764,154.710018 76.1684151,164.642201 L93.0736175,160.736828 Z M180.733571,218.624339 L173.248273,203.014901 C166.493054,206.035287 159.207959,207.692201 151.810909,207.89059 L151.810909,225.097133 C161.775668,224.803265 171.592532,222.60833 180.733571,218.630366 L180.733571,218.624339 Z M196.174259,115.367001 C200.584085,121.263137 203.845074,127.936409 205.787021,135.038509 L222.662089,131.29586 C220.092732,121.648989 215.669062,112.594896 209.638152,104.639279 L196.174259,115.367001 Z M206.594613,138.775132 C208.050175,146.015815 208.109497,153.467863 206.769391,160.730801 L223.505843,164.630147 C225.451524,154.862216 225.451524,144.806441 223.505843,135.038509 L206.594613,138.775132 Z M106.248225,112.257167 C111.073991,106.759096 116.864586,102.189939 123.334231,98.7751927 L115.85496,83.1778081 C107.020895,87.7239009 99.1691016,93.9660152 92.7481698,101.547525 L106.248225,112.257167 Z M173.2543,97.147954 L180.733571,81.7072664 C171.696534,77.586272 161.920777,75.3314319 151.991713,75.0777753 L151.991713,92.3023987 C159.320039,92.5726267 166.532493,94.2162811 173.2543,97.147954 Z M94.2187115,134.694981 C96.1592001,127.644478 99.4167822,121.025022 103.81942,115.186197 L90.3314189,104.458475 C84.3028593,112.294943 79.8772763,121.242361 77.3074822,130.789608 L94.2187115,134.694981 Z M103.325222,184.295629 C101.119921,181.338576 99.2045947,178.175967 97.6057788,174.851617 C96.0273785,171.516927 94.7818318,168.034644 93.8872369,164.45537 L77.1447583,168.198019 C79.5655649,177.838593 83.8823784,186.900418 89.8432473,194.8546 L103.325222,184.295629 Z M148.001965,92.260211 L148.001965,75.0295608 C138.165893,75.3403456 128.474795,77.4886991 119.428858,81.3637383 L126.90813,96.9671497 C133.604944,94.1640996 140.74814,92.5783102 148.001965,92.2843182 L148.001965,92.260211 Z M193.757508,112.407837 L207.257562,101.836812 C200.856366,94.3040704 193.067065,88.0718108 184.313496,83.4791486 L176.828198,98.9559971 C183.249821,102.371997 188.988387,106.93997 193.757508,112.431945 L193.757508,112.407837 Z M152.172518,54.0562615 L152.172518,71.118161 C157.300362,71.281678 162.401442,71.9273842 167.408294,73.0467403 L171.470364,56.4609588 C165.135378,55.0136059 158.669324,54.215951 152.172518,54.0803687 L152.172518,54.0562615 Z M148.321386,71.118161 L148.321386,53.9357253 C141.884216,54.100915 135.475417,54.8513316 129.17421,56.1776987 L133.073556,72.9141504 C138.087193,71.834379 143.193668,71.2429967 148.321386,71.1482951 L148.321386,71.118161 Z M59.4259365,117.621028 C57.2389912,123.734397 55.7135331,130.064543 54.8756949,136.503024 L71.9436212,138.612408 C72.6319696,133.580461 73.8356186,128.632575 75.5356,123.846723 L59.4259365,117.621028 Z M86.1729199,196.572241 L72.1123719,206.269378 C75.9108546,211.500425 80.214624,216.345193 84.9615311,220.733723 L96.2919342,207.944832 C94.5321056,206.094601 92.7481698,204.328746 91.0847702,202.448381 C89.4213706,200.568016 87.8363195,198.579169 86.1729199,196.572241 Z M69.8342376,203.201732 L83.7863031,193.558836 L76.5963186,180.016593 L60.8964782,186.103672 C63.284953,192.085227 66.2798353,197.806401 69.8342376,203.177625 L69.8342376,203.201732 Z M99.2631516,89.4939051 C103.16605,86.2461309 107.355816,83.3594889 111.780836,80.8695398 L103.81942,65.7543 C98.1542185,68.9123485 92.7481698,72.3476303 87.884534,76.6447459 L99.2631516,89.4939051 Z M71.123975,157.669181 L71.123975,142.343003 L54.3875232,140.2517 C53.7228443,146.68326 53.7228443,153.166201 54.3875232,159.597761 L71.123975,157.669181 Z M59.4319633,182.379103 L75.1619378,176.442695 L71.5458517,161.598662 L54.8636412,163.527241 C55.7084854,169.950478 57.2400236,176.264537 59.4319633,182.361023 L59.4319633,182.379103 Z M214.079912,103.867847 L228.050057,94.2249511 C224.316967,88.9992285 220.07769,84.1543407 215.393756,79.7606068 L204.141702,92.4590957 L214.079912,103.867847 Z M239.265951,114.559409 C236.877489,108.576719 233.880482,102.855344 230.322165,97.4854554 L216.25559,107.18862 C217.52122,109.406486 218.810957,111.53395 219.962078,113.727709 C221.113199,115.921468 222.155837,118.223709 223.270797,120.538004 L239.265951,114.559409 Z M96.3401486,92.1155675 L84.9555043,79.2483279 C80.2703825,83.6409147 76.0309985,88.485925 72.299203,93.7126722 L86.2814025,103.464051 C89.243406,99.3519895 92.6134483,95.5498388 96.3401486,92.1155675 Z M107.230595,236.029767 C112.979038,238.978047 119.045069,241.260897 125.311025,242.834036 L129.373095,226.266334 C124.489499,224.955966 119.748988,223.161114 115.222145,220.9085 L107.230595,236.029767 Z M125.311025,57.1721223 C119.044549,58.7463319 112.978414,61.0312428 107.230595,63.9824178 L115.198038,79.0976576 C119.711675,76.8181835 124.452788,75.0203177 129.342961,73.7337966 L125.311025,57.1721223 Z M171.169023,243.852566 L167.143114,227.453616 L152.178545,229.261659 L152.178545,246.136727 C158.561754,246.020272 164.916573,245.254948 171.144916,243.852566 L171.169023,243.852566 Z M148.044153,246.088513 L148.044153,229.03264 C143.021142,228.916096 138.02055,228.322805 133.109717,227.260758 L128.89095,243.840513 C135.186563,245.164649 141.588974,245.917043 148.020046,246.088513 L148.044153,246.088513 Z M83.7923299,106.6221 L69.8402644,96.9792033 C66.3465424,102.386037 63.3548203,108.101174 60.902505,114.053156 L76.5722114,119.977511 L83.7923299,106.6221 Z M196.674484,66.1098818 L188.797443,81.0563709 L201.218699,89.6807362 L212.446646,77.1690784 C207.607617,72.919396 202.318865,69.2110043 196.674484,66.1098818 Z M184.964392,220.751803 C180.437371,223.004011 175.696902,224.798848 170.813442,226.109637 L175.032209,242.683365 C181.225356,241.070027 187.223525,238.784337 192.919781,235.867043 L184.964392,220.751803 Z M196.336982,234.065027 C201.945541,230.971083 207.231156,227.324857 212.115171,223.180608 L200.730527,210.337475 C196.912235,213.619815 192.773021,216.509188 188.375566,218.961841 L196.336982,234.065027 Z M111.618112,219.118538 C107.219133,216.667649 103.077943,213.780324 99.2571247,210.500199 L87.8785072,223.349358 C92.7662652,227.481084 98.0538264,231.115147 103.662723,234.197617 L111.618112,219.118538 Z M228.713007,142.686531 C229.142411,147.719821 229.142411,152.780536 228.713007,157.813825 L245.588075,159.923208 C246.255032,153.546154 246.255032,147.116926 245.588075,140.739872 L228.713007,142.686531 Z M245.130037,136.834499 C244.206562,130.475941 242.678883,124.219925 240.567742,118.151387 L224.638883,124.178197 C226.264108,128.92944 227.4089,133.831652 228.056084,138.811293 L245.130037,136.834499 Z M244.961287,163.828581 L228.086218,161.713171 C227.38409,166.699468 226.186877,171.603398 224.51232,176.352293 L240.435152,182.523746 C242.538572,176.451201 244.054234,170.19077 244.961287,163.828581 Z M227.567913,206.269378 L213.585713,196.518 C210.672567,200.587116 207.350553,204.347353 203.67161,207.73992 L215.050228,220.583052 C219.730934,216.283006 223.926511,211.483154 227.561886,206.269378 L227.567913,206.269378 Z M193.094559,64.4705894 C187.368642,61.5735457 181.376285,59.2363448 175.200959,57.4915433 L171.138889,74.071298 C176.038957,75.3247228 180.784937,77.1176038 185.289839,79.4170786 L193.094559,64.4705894 Z M230.002744,202.852177 C233.592074,197.551888 236.591155,191.875057 238.94653,185.922867 L223.017671,179.896057 C221.133294,184.508214 218.791213,188.919806 216.026571,193.064637 L230.002744,202.852177 Z" id="Shape" fill="#FFFFFF" fill-rule="nonzero"></path>
    </g>
</svg>