<?xml version="1.0" encoding="UTF-8"?>
<svg width="300px" height="300px" viewBox="0 0 300 300" version="1.1" xmlns="http://www.w3.org/2000/svg" xmlns:xlink="http://www.w3.org/1999/xlink">
    <!-- Generator: Sketch 49.3 (51167) - http://www.bohemiancoding.com/sketch -->
    <title>Oval 2</title>
    <desc>Created with Sketch.</desc>
    <defs></defs>
    <g id="Page-1" stroke="none" stroke-width="1" fill="none" fill-rule="evenodd">
        <circle id="Oval-2" fill="#EC5F67" cx="150" cy="150" r="150"></circle>
        <g id="Whatsapp" transform="translate(49.000000, 50.000000)" fill="#FFFFFF" fill-rule="nonzero">
            <path d="M0,200 C5.44499174,182.467606 11.7560681,165.798978 17.5258416,148.591525 C-20.7210754,81.8779388 26.6114821,6.77451081 90.7213366,0.535857828 C151.251375,-5.35523215 200.880087,38.0058225 201.030621,97.1830502 C201.188372,159.62408 140.466558,212.056734 72.1644418,190.745364 C67.0122692,189.138142 60.6372675,183.900018 54.6386002,183.548342 C46.2551069,183.05579 35.2682044,189.058964 26.803258,191.773657 C17.5248106,194.750565 9.45681959,197.733642 0,200 Z M56.7007065,165.042155 C111.856895,198.426712 177.902037,160.981426 183.50478,106.436658 C188.575499,57.0590616 149.042859,13.1242194 95.8755713,16.9864875 C35.1774718,21.3947792 -1.28263013,93.6549773 36.0817054,146.534939 C32.7740868,155.574662 29.6788652,164.826213 26.803258,174.295763 C36.9302621,171.371298 46.2654174,167.658132 56.7007065,165.042155 Z" id="Shape"></path>
            <path d="M78.1218792,50.5536327 C83.9390517,62.6797837 92.9372159,80.6155665 78.1218792,88.6691029 C85.6458497,104.520671 98.0855222,115.473357 114.299586,122.663536 C119.691868,119.109142 123.232621,113.709553 127.737905,109.272227 C137.149588,112.94098 145.947196,117.220677 153.578681,122.663536 C154.363333,140.385025 139.378453,146.938504 126.704109,146.356407 C99.9649641,145.130399 63.2145346,111.464618 54.3476625,86.6085844 C49.0856386,71.8604237 55.137483,43.6519262 78.1218792,50.5536327 Z" id="Shape"></path>
        </g>
    </g>
</svg>