<?xml version="1.0" standalone="no"?>
<!DOCTYPE svg PUBLIC "-//W3C//DTD SVG 20010904//EN"
 "http://www.w3.org/TR/2001/REC-SVG-20010904/DTD/svg10.dtd">
<svg version="1.0" xmlns="http://www.w3.org/2000/svg"
 width="400.000000pt" height="400.000000pt" viewBox="0 0 400.000000 400.000000"
 preserveAspectRatio="xMidYMid meet">
<metadata>
Created by potrace 1.11, written by Peter Selinger 2001-2013
</metadata>
<g transform="translate(0.000000,400.000000) scale(0.100000,-0.100000)"
fill="#5AAAAB" stroke="none">
<path d="M0 2000 l0 -2000 2000 0 2000 0 0 2000 0 2000 -2000 0 -2000 0 0
-2000z m1382 614 c76 -18 163 -63 218 -111 l44 -40 -68 -64 c-38 -35 -72 -65
-76 -67 -5 -2 -30 13 -57 32 -86 61 -178 83 -278 65 -163 -29 -259 -146 -259
-314 0 -132 56 -229 165 -284 74 -37 150 -47 231 -31 115 22 108 11 108 182
l0 148 105 0 105 0 0 -204 0 -205 -30 -21 c-92 -65 -230 -103 -375 -103 -93 0
-122 4 -188 27 -229 78 -357 254 -357 491 0 150 44 260 145 360 140 139 353
192 567 139z m720 -334 c59 -184 110 -341 114 -350 4 -8 57 136 123 335 l118
350 109 0 109 0 13 -40 c8 -22 60 -181 116 -354 l101 -315 118 357 118 357
110 0 c91 0 110 -3 107 -14 -2 -8 -75 -235 -163 -505 l-160 -490 -126 -1 -126
0 -77 238 c-43 130 -91 281 -109 334 -17 54 -35 94 -39 90 -4 -4 -56 -154
-116 -332 l-109 -325 -125 -3 -125 -3 -93 283 c-51 156 -126 383 -166 506
l-72 223 121 -3 121 -3 108 -335z"/>
</g>
</svg>
